solid OpenSCAD_Model
  facet normal 1 0 0
    outer loop
      vertex 4.8 3.9 22.95
      vertex 4.8 1.815 21.27
      vertex 4.8 3.9 17.55
    endloop
  endfacet
  facet normal 1 0 0
    outer loop
      vertex 4.8 3.9 22.95
      vertex 4.8 -1.815 21.27
      vertex 4.8 1.815 21.27
    endloop
  endfacet
  facet normal 1 0 0
    outer loop
      vertex 4.8 -3.9 17.55
      vertex 4.8 -1.815 21.27
      vertex 4.8 -3.9 22.95
    endloop
  endfacet
  facet normal 1 -0 0
    outer loop
      vertex 4.8 -3.9 22.95
      vertex 4.8 -1.815 21.27
      vertex 4.8 3.9 22.95
    endloop
  endfacet
  facet normal 1 -0 0
    outer loop
      vertex 4.8 1.815 18.63
      vertex 4.8 3.9 17.55
      vertex 4.8 1.815 21.27
    endloop
  endfacet
  facet normal 1 -0 0
    outer loop
      vertex 4.8 -1.815 18.63
      vertex 4.8 3.9 17.55
      vertex 4.8 1.815 18.63
    endloop
  endfacet
  facet normal 1 0 0
    outer loop
      vertex 4.8 -1.815 18.63
      vertex 4.8 -3.9 17.55
      vertex 4.8 3.9 17.55
    endloop
  endfacet
  facet normal 1 0 0
    outer loop
      vertex 4.8 -1.815 21.27
      vertex 4.8 -3.9 17.55
      vertex 4.8 -1.815 18.63
    endloop
  endfacet
  facet normal -0 0 1
    outer loop
      vertex -4.8 3.9 22.95
      vertex 4.8 -3.9 22.95
      vertex 4.8 3.9 22.95
    endloop
  endfacet
  facet normal 0 0 1
    outer loop
      vertex 4.8 -3.9 22.95
      vertex -4.8 3.9 22.95
      vertex -4.8 -3.9 22.95
    endloop
  endfacet
  facet normal -1 0 0
    outer loop
      vertex -4.8 1.815 21.27
      vertex -4.8 3.9 17.55
      vertex -4.8 1.815 18.63
    endloop
  endfacet
  facet normal -1 0 0
    outer loop
      vertex -4.8 3.9 17.55
      vertex -4.8 -1.815 18.63
      vertex -4.8 1.815 18.63
    endloop
  endfacet
  facet normal -1 -0 0
    outer loop
      vertex -4.8 -1.815 18.63
      vertex -4.8 -3.9 17.55
      vertex -4.8 -1.815 21.27
    endloop
  endfacet
  facet normal -1 0 0
    outer loop
      vertex -4.8 -3.9 17.55
      vertex -4.8 -1.815 18.63
      vertex -4.8 3.9 17.55
    endloop
  endfacet
  facet normal -1 0 0
    outer loop
      vertex -4.8 3.9 17.55
      vertex -4.8 1.815 21.27
      vertex -4.8 3.9 22.95
    endloop
  endfacet
  facet normal -1 0 0
    outer loop
      vertex -4.8 -1.815 21.27
      vertex -4.8 3.9 22.95
      vertex -4.8 1.815 21.27
    endloop
  endfacet
  facet normal -1 0 0
    outer loop
      vertex -4.8 -1.815 21.27
      vertex -4.8 -3.9 22.95
      vertex -4.8 3.9 22.95
    endloop
  endfacet
  facet normal -1 0 0
    outer loop
      vertex -4.8 -3.9 22.95
      vertex -4.8 -1.815 21.27
      vertex -4.8 -3.9 17.55
    endloop
  endfacet
  facet normal 0 1 0
    outer loop
      vertex 4.8 3.9 22.95
      vertex 2.31 3.9 21.27
      vertex -4.8 3.9 22.95
    endloop
  endfacet
  facet normal 0 1 -0
    outer loop
      vertex 4.8 3.9 17.55
      vertex 2.31 3.9 21.27
      vertex 4.8 3.9 22.95
    endloop
  endfacet
  facet normal 0 1 0
    outer loop
      vertex 2.31 3.9 18.63
      vertex 4.8 3.9 17.55
      vertex -2.31 3.9 18.63
    endloop
  endfacet
  facet normal 0 1 0
    outer loop
      vertex 2.31 3.9 21.27
      vertex 4.8 3.9 17.55
      vertex 2.31 3.9 18.63
    endloop
  endfacet
  facet normal 0 1 -0
    outer loop
      vertex -2.31 3.9 21.27
      vertex -4.8 3.9 22.95
      vertex 2.31 3.9 21.27
    endloop
  endfacet
  facet normal 0 1 0
    outer loop
      vertex -4.8 3.9 17.55
      vertex -2.31 3.9 21.27
      vertex -2.31 3.9 18.63
    endloop
  endfacet
  facet normal 0 1 0
    outer loop
      vertex -2.31 3.9 21.27
      vertex -4.8 3.9 17.55
      vertex -4.8 3.9 22.95
    endloop
  endfacet
  facet normal 0 1 0
    outer loop
      vertex -4.8 3.9 17.55
      vertex -2.31 3.9 18.63
      vertex 4.8 3.9 17.55
    endloop
  endfacet
  facet normal 0 -1 0
    outer loop
      vertex -4.8 -3.9 22.95
      vertex -2.31 -3.9 21.27
      vertex 4.8 -3.9 22.95
    endloop
  endfacet
  facet normal 0 -1 0
    outer loop
      vertex -4.8 -3.9 17.55
      vertex -2.31 -3.9 21.27
      vertex -4.8 -3.9 22.95
    endloop
  endfacet
  facet normal 0 -1 -0
    outer loop
      vertex -2.31 -3.9 18.63
      vertex -4.8 -3.9 17.55
      vertex 2.31 -3.9 18.63
    endloop
  endfacet
  facet normal 0 -1 -0
    outer loop
      vertex -2.31 -3.9 21.27
      vertex -4.8 -3.9 17.55
      vertex -2.31 -3.9 18.63
    endloop
  endfacet
  facet normal 0 -1 0
    outer loop
      vertex 2.31 -3.9 21.27
      vertex 4.8 -3.9 22.95
      vertex -2.31 -3.9 21.27
    endloop
  endfacet
  facet normal 0 -1 0
    outer loop
      vertex 4.8 -3.9 17.55
      vertex 2.31 -3.9 21.27
      vertex 2.31 -3.9 18.63
    endloop
  endfacet
  facet normal 0 -1 0
    outer loop
      vertex 2.31 -3.9 21.27
      vertex 4.8 -3.9 17.55
      vertex 4.8 -3.9 22.95
    endloop
  endfacet
  facet normal 0 -1 0
    outer loop
      vertex 4.8 -3.9 17.55
      vertex 2.31 -3.9 18.63
      vertex -4.8 -3.9 17.55
    endloop
  endfacet
  facet normal 0 0 1
    outer loop
      vertex 7.5 6 17.55
      vertex 4.8 3.9 17.55
      vertex 7.5 -6 17.55
    endloop
  endfacet
  facet normal 0 0 1
    outer loop
      vertex 7.5 6 17.55
      vertex -4.8 3.9 17.55
      vertex 4.8 3.9 17.55
    endloop
  endfacet
  facet normal 0 0 1
    outer loop
      vertex -4.8 3.9 17.55
      vertex -7.5 6 17.55
      vertex -4.8 -3.9 17.55
    endloop
  endfacet
  facet normal -0 0 1
    outer loop
      vertex -7.5 6 17.55
      vertex -4.8 3.9 17.55
      vertex 7.5 6 17.55
    endloop
  endfacet
  facet normal -0 0 1
    outer loop
      vertex 4.8 -3.9 17.55
      vertex 7.5 -6 17.55
      vertex 4.8 3.9 17.55
    endloop
  endfacet
  facet normal -0 0 1
    outer loop
      vertex -4.8 -3.9 17.55
      vertex 7.5 -6 17.55
      vertex 4.8 -3.9 17.55
    endloop
  endfacet
  facet normal 0 0 1
    outer loop
      vertex -4.8 -3.9 17.55
      vertex -7.5 -6 17.55
      vertex 7.5 -6 17.55
    endloop
  endfacet
  facet normal 0 0 1
    outer loop
      vertex -7.5 -6 17.55
      vertex -4.8 -3.9 17.55
      vertex -7.5 6 17.55
    endloop
  endfacet
  facet normal 1 0 0
    outer loop
      vertex 7.5 6 17.55
      vertex 7.5 2.97 15.315
      vertex 7.5 6 10.2
    endloop
  endfacet
  facet normal 1 0 0
    outer loop
      vertex 7.5 6 17.55
      vertex 7.5 -2.97 15.315
      vertex 7.5 2.97 15.315
    endloop
  endfacet
  facet normal 1 0 0
    outer loop
      vertex 7.5 -6 10.2
      vertex 7.5 -2.97 15.315
      vertex 7.5 -6 17.55
    endloop
  endfacet
  facet normal 1 -0 0
    outer loop
      vertex 7.5 -6 17.55
      vertex 7.5 -2.97 15.315
      vertex 7.5 6 17.55
    endloop
  endfacet
  facet normal 1 -0 0
    outer loop
      vertex 7.5 2.97 11.685
      vertex 7.5 6 10.2
      vertex 7.5 2.97 15.315
    endloop
  endfacet
  facet normal 1 -0 0
    outer loop
      vertex 7.5 -2.97 11.685
      vertex 7.5 6 10.2
      vertex 7.5 2.97 11.685
    endloop
  endfacet
  facet normal 1 0 0
    outer loop
      vertex 7.5 -2.97 11.685
      vertex 7.5 -6 10.2
      vertex 7.5 6 10.2
    endloop
  endfacet
  facet normal 1 0 0
    outer loop
      vertex 7.5 -2.97 15.315
      vertex 7.5 -6 10.2
      vertex 7.5 -2.97 11.685
    endloop
  endfacet
  facet normal -1 0 0
    outer loop
      vertex -7.5 2.97 15.315
      vertex -7.5 6 10.2
      vertex -7.5 2.97 11.685
    endloop
  endfacet
  facet normal -1 0 0
    outer loop
      vertex -7.5 6 10.2
      vertex -7.5 -2.97 11.685
      vertex -7.5 2.97 11.685
    endloop
  endfacet
  facet normal -1 -0 0
    outer loop
      vertex -7.5 -2.97 11.685
      vertex -7.5 -6 10.2
      vertex -7.5 -2.97 15.315
    endloop
  endfacet
  facet normal -1 0 0
    outer loop
      vertex -7.5 -6 10.2
      vertex -7.5 -2.97 11.685
      vertex -7.5 6 10.2
    endloop
  endfacet
  facet normal -1 0 0
    outer loop
      vertex -7.5 6 10.2
      vertex -7.5 2.97 15.315
      vertex -7.5 6 17.55
    endloop
  endfacet
  facet normal -1 0 0
    outer loop
      vertex -7.5 -2.97 15.315
      vertex -7.5 6 17.55
      vertex -7.5 2.97 15.315
    endloop
  endfacet
  facet normal -1 0 0
    outer loop
      vertex -7.5 -2.97 15.315
      vertex -7.5 -6 17.55
      vertex -7.5 6 17.55
    endloop
  endfacet
  facet normal -1 0 0
    outer loop
      vertex -7.5 -6 17.55
      vertex -7.5 -2.97 15.315
      vertex -7.5 -6 10.2
    endloop
  endfacet
  facet normal 0 1 -0
    outer loop
      vertex 1.5525 6 11.685
      vertex -1.5525 6 15.315
      vertex 1.5525 6 15.315
    endloop
  endfacet
  facet normal 0 1 0
    outer loop
      vertex -1.5525 6 15.315
      vertex 1.5525 6 11.685
      vertex -1.5525 6 11.685
    endloop
  endfacet
  facet normal 0 1 0
    outer loop
      vertex 1.5525 6 15.315
      vertex 7.5 6 17.55
      vertex 5.3475 6 15.315
    endloop
  endfacet
  facet normal 0 1 -0
    outer loop
      vertex 7.5 6 10.2
      vertex 5.3475 6 15.315
      vertex 7.5 6 17.55
    endloop
  endfacet
  facet normal 0 1 0
    outer loop
      vertex 7.5 6 10.2
      vertex 1.5525 6 11.685
      vertex 5.3475 6 11.685
    endloop
  endfacet
  facet normal 0 1 0
    outer loop
      vertex 1.5525 6 11.685
      vertex 7.5 6 10.2
      vertex -1.5525 6 11.685
    endloop
  endfacet
  facet normal 0 1 0
    outer loop
      vertex -7.5 6 10.2
      vertex -1.5525 6 11.685
      vertex 7.5 6 10.2
    endloop
  endfacet
  facet normal 0 1 0
    outer loop
      vertex 5.3475 6 15.315
      vertex 7.5 6 10.2
      vertex 5.3475 6 11.685
    endloop
  endfacet
  facet normal 0 1 0
    outer loop
      vertex 7.5 6 17.55
      vertex 1.5525 6 15.315
      vertex -7.5 6 17.55
    endloop
  endfacet
  facet normal 0 1 -0
    outer loop
      vertex -1.5525 6 15.315
      vertex -7.5 6 17.55
      vertex 1.5525 6 15.315
    endloop
  endfacet
  facet normal 0 1 -0
    outer loop
      vertex -5.3475 6 15.315
      vertex -7.5 6 17.55
      vertex -1.5525 6 15.315
    endloop
  endfacet
  facet normal 0 1 0
    outer loop
      vertex -7.5 6 10.2
      vertex -5.3475 6 15.315
      vertex -5.3475 6 11.685
    endloop
  endfacet
  facet normal 0 1 0
    outer loop
      vertex -5.3475 6 15.315
      vertex -7.5 6 10.2
      vertex -7.5 6 17.55
    endloop
  endfacet
  facet normal 0 1 0
    outer loop
      vertex -1.5525 6 11.685
      vertex -7.5 6 10.2
      vertex -5.3475 6 11.685
    endloop
  endfacet
  facet normal 0 -1 0
    outer loop
      vertex -1.5525 -6 11.685
      vertex 1.5525 -6 15.315
      vertex -1.5525 -6 15.315
    endloop
  endfacet
  facet normal 0 -1 -0
    outer loop
      vertex 1.5525 -6 15.315
      vertex -1.5525 -6 11.685
      vertex 1.5525 -6 11.685
    endloop
  endfacet
  facet normal 0 -1 0
    outer loop
      vertex -1.5525 -6 15.315
      vertex -7.5 -6 17.55
      vertex -5.3475 -6 15.315
    endloop
  endfacet
  facet normal 0 -1 0
    outer loop
      vertex -7.5 -6 10.2
      vertex -5.3475 -6 15.315
      vertex -7.5 -6 17.55
    endloop
  endfacet
  facet normal 0 -1 0
    outer loop
      vertex -7.5 -6 10.2
      vertex -1.5525 -6 11.685
      vertex -5.3475 -6 11.685
    endloop
  endfacet
  facet normal 0 -1 -0
    outer loop
      vertex -1.5525 -6 11.685
      vertex -7.5 -6 10.2
      vertex 1.5525 -6 11.685
    endloop
  endfacet
  facet normal 0 -1 0
    outer loop
      vertex 7.5 -6 10.2
      vertex 1.5525 -6 11.685
      vertex -7.5 -6 10.2
    endloop
  endfacet
  facet normal 0 -1 -0
    outer loop
      vertex -5.3475 -6 15.315
      vertex -7.5 -6 10.2
      vertex -5.3475 -6 11.685
    endloop
  endfacet
  facet normal 0 -1 0
    outer loop
      vertex -7.5 -6 17.55
      vertex -1.5525 -6 15.315
      vertex 7.5 -6 17.55
    endloop
  endfacet
  facet normal 0 -1 0
    outer loop
      vertex 1.5525 -6 15.315
      vertex 7.5 -6 17.55
      vertex -1.5525 -6 15.315
    endloop
  endfacet
  facet normal 0 -1 0
    outer loop
      vertex 5.3475 -6 15.315
      vertex 7.5 -6 17.55
      vertex 1.5525 -6 15.315
    endloop
  endfacet
  facet normal 0 -1 0
    outer loop
      vertex 7.5 -6 10.2
      vertex 5.3475 -6 15.315
      vertex 5.3475 -6 11.685
    endloop
  endfacet
  facet normal 0 -1 0
    outer loop
      vertex 5.3475 -6 15.315
      vertex 7.5 -6 10.2
      vertex 7.5 -6 17.55
    endloop
  endfacet
  facet normal 0 -1 0
    outer loop
      vertex 1.5525 -6 11.685
      vertex 7.5 -6 10.2
      vertex 5.3475 -6 11.685
    endloop
  endfacet
  facet normal 0 0 1
    outer loop
      vertex 10.8 7.8 10.2
      vertex 7.5 6 10.2
      vertex 10.8 -7.8 10.2
    endloop
  endfacet
  facet normal 0 0 1
    outer loop
      vertex 10.8 7.8 10.2
      vertex -7.5 6 10.2
      vertex 7.5 6 10.2
    endloop
  endfacet
  facet normal 0 0 1
    outer loop
      vertex -7.5 6 10.2
      vertex -10.8 7.8 10.2
      vertex -7.5 -6 10.2
    endloop
  endfacet
  facet normal -0 0 1
    outer loop
      vertex -10.8 7.8 10.2
      vertex -7.5 6 10.2
      vertex 10.8 7.8 10.2
    endloop
  endfacet
  facet normal -0 0 1
    outer loop
      vertex 7.5 -6 10.2
      vertex 10.8 -7.8 10.2
      vertex 7.5 6 10.2
    endloop
  endfacet
  facet normal -0 0 1
    outer loop
      vertex -7.5 -6 10.2
      vertex 10.8 -7.8 10.2
      vertex 7.5 -6 10.2
    endloop
  endfacet
  facet normal 0 0 1
    outer loop
      vertex -7.5 -6 10.2
      vertex -10.8 -7.8 10.2
      vertex 10.8 -7.8 10.2
    endloop
  endfacet
  facet normal 0 0 1
    outer loop
      vertex -10.8 -7.8 10.2
      vertex -7.5 -6 10.2
      vertex -10.8 7.8 10.2
    endloop
  endfacet
  facet normal 1 0 0
    outer loop
      vertex 10.8 7.8 10.2
      vertex 10.8 5.58 7.425
      vertex 10.8 7.8 0.45
    endloop
  endfacet
  facet normal 1 0 0
    outer loop
      vertex 10.8 7.8 10.2
      vertex 10.8 1.62 7.425
      vertex 10.8 5.58 7.425
    endloop
  endfacet
  facet normal 1 0 0
    outer loop
      vertex 10.8 1.62 7.425
      vertex 10.8 -1.62 7.425
      vertex 10.8 1.62 2.475
    endloop
  endfacet
  facet normal 1 0 0
    outer loop
      vertex 10.8 7.8 10.2
      vertex 10.8 -1.62 7.425
      vertex 10.8 1.62 7.425
    endloop
  endfacet
  facet normal 1 -0 0
    outer loop
      vertex 10.8 -7.8 10.2
      vertex 10.8 -1.62 7.425
      vertex 10.8 7.8 10.2
    endloop
  endfacet
  facet normal 1 0 0
    outer loop
      vertex 10.8 -7.8 0.45
      vertex 10.8 -5.58 7.425
      vertex 10.8 -7.8 10.2
    endloop
  endfacet
  facet normal 1 0 0
    outer loop
      vertex 10.8 -1.62 7.425
      vertex 10.8 -7.8 10.2
      vertex 10.8 -5.58 7.425
    endloop
  endfacet
  facet normal 1 -0 0
    outer loop
      vertex 10.8 5.58 2.475
      vertex 10.8 7.8 0.45
      vertex 10.8 5.58 7.425
    endloop
  endfacet
  facet normal 1 -0 0
    outer loop
      vertex 10.8 1.62 2.475
      vertex 10.8 7.8 0.45
      vertex 10.8 5.58 2.475
    endloop
  endfacet
  facet normal 1 0 0
    outer loop
      vertex 10.8 -1.62 2.475
      vertex 10.8 1.62 2.475
      vertex 10.8 -1.62 7.425
    endloop
  endfacet
  facet normal 1 -0 0
    outer loop
      vertex 10.8 -1.62 2.475
      vertex 10.8 7.8 0.45
      vertex 10.8 1.62 2.475
    endloop
  endfacet
  facet normal 1 0 0
    outer loop
      vertex 10.8 -7.8 0.45
      vertex 10.8 -1.62 2.475
      vertex 10.8 -5.58 2.475
    endloop
  endfacet
  facet normal 1 0 0
    outer loop
      vertex 10.8 -1.62 2.475
      vertex 10.8 -7.8 0.45
      vertex 10.8 7.8 0.45
    endloop
  endfacet
  facet normal 1 0 0
    outer loop
      vertex 10.8 -5.58 7.425
      vertex 10.8 -7.8 0.45
      vertex 10.8 -5.58 2.475
    endloop
  endfacet
  facet normal -1 0 0
    outer loop
      vertex -10.8 5.58 7.425
      vertex -10.8 7.8 0.45
      vertex -10.8 5.58 2.475
    endloop
  endfacet
  facet normal -1 0 0
    outer loop
      vertex -10.8 7.8 0.45
      vertex -10.8 1.62 2.475
      vertex -10.8 5.58 2.475
    endloop
  endfacet
  facet normal -1 0 0
    outer loop
      vertex -10.8 1.62 2.475
      vertex -10.8 -1.62 2.475
      vertex -10.8 1.62 7.425
    endloop
  endfacet
  facet normal -1 0 0
    outer loop
      vertex -10.8 7.8 0.45
      vertex -10.8 -1.62 2.475
      vertex -10.8 1.62 2.475
    endloop
  endfacet
  facet normal -1 0 0
    outer loop
      vertex -10.8 -7.8 0.45
      vertex -10.8 -1.62 2.475
      vertex -10.8 7.8 0.45
    endloop
  endfacet
  facet normal -1 -0 0
    outer loop
      vertex -10.8 -5.58 2.475
      vertex -10.8 -7.8 0.45
      vertex -10.8 -5.58 7.425
    endloop
  endfacet
  facet normal -1 -0 0
    outer loop
      vertex -10.8 -1.62 2.475
      vertex -10.8 -7.8 0.45
      vertex -10.8 -5.58 2.475
    endloop
  endfacet
  facet normal -1 0 0
    outer loop
      vertex -10.8 7.8 0.45
      vertex -10.8 5.58 7.425
      vertex -10.8 7.8 10.2
    endloop
  endfacet
  facet normal -1 0 0
    outer loop
      vertex -10.8 1.62 7.425
      vertex -10.8 7.8 10.2
      vertex -10.8 5.58 7.425
    endloop
  endfacet
  facet normal -1 0 0
    outer loop
      vertex -10.8 -1.62 7.425
      vertex -10.8 1.62 7.425
      vertex -10.8 -1.62 2.475
    endloop
  endfacet
  facet normal -1 0 0
    outer loop
      vertex -10.8 -1.62 7.425
      vertex -10.8 7.8 10.2
      vertex -10.8 1.62 7.425
    endloop
  endfacet
  facet normal -1 0 0
    outer loop
      vertex -10.8 -7.8 10.2
      vertex -10.8 -1.62 7.425
      vertex -10.8 -5.58 7.425
    endloop
  endfacet
  facet normal -1 0 0
    outer loop
      vertex -10.8 -1.62 7.425
      vertex -10.8 -7.8 10.2
      vertex -10.8 7.8 10.2
    endloop
  endfacet
  facet normal -1 0 0
    outer loop
      vertex -10.8 -7.8 10.2
      vertex -10.8 -5.58 7.425
      vertex -10.8 -7.8 0.45
    endloop
  endfacet
  facet normal 0 1 -0
    outer loop
      vertex -1.87 7.8 2.475
      vertex -4.93 7.8 7.425
      vertex -1.87 7.8 7.425
    endloop
  endfacet
  facet normal 0 1 0
    outer loop
      vertex -4.93 7.8 7.425
      vertex -1.87 7.8 2.475
      vertex -4.93 7.8 2.475
    endloop
  endfacet
  facet normal 0 1 -0
    outer loop
      vertex 4.93 7.8 2.475
      vertex 1.87 7.8 7.425
      vertex 4.93 7.8 7.425
    endloop
  endfacet
  facet normal 0 1 0
    outer loop
      vertex 1.87 7.8 7.425
      vertex 4.93 7.8 2.475
      vertex 1.87 7.8 2.475
    endloop
  endfacet
  facet normal 0 1 0
    outer loop
      vertex 4.93 7.8 7.425
      vertex 10.8 7.8 10.2
      vertex 8.67 7.8 7.425
    endloop
  endfacet
  facet normal 0 1 -0
    outer loop
      vertex 10.8 7.8 0.45
      vertex 8.67 7.8 7.425
      vertex 10.8 7.8 10.2
    endloop
  endfacet
  facet normal 0 1 0
    outer loop
      vertex 10.8 7.8 0.45
      vertex 4.93 7.8 2.475
      vertex 8.67 7.8 2.475
    endloop
  endfacet
  facet normal 0 1 0
    outer loop
      vertex 4.93 7.8 2.475
      vertex 10.8 7.8 0.45
      vertex 1.87 7.8 2.475
    endloop
  endfacet
  facet normal 0 1 0
    outer loop
      vertex 1.87 7.8 2.475
      vertex 10.8 7.8 0.45
      vertex -1.87 7.8 2.475
    endloop
  endfacet
  facet normal 0 1 0
    outer loop
      vertex -10.8 7.8 0.45
      vertex -1.87 7.8 2.475
      vertex 10.8 7.8 0.45
    endloop
  endfacet
  facet normal 0 1 0
    outer loop
      vertex -1.87 7.8 2.475
      vertex -10.8 7.8 0.45
      vertex -4.93 7.8 2.475
    endloop
  endfacet
  facet normal 0 1 0
    outer loop
      vertex 8.67 7.8 7.425
      vertex 10.8 7.8 0.45
      vertex 8.67 7.8 2.475
    endloop
  endfacet
  facet normal 0 1 0
    outer loop
      vertex 1.87 7.8 7.425
      vertex 10.8 7.8 10.2
      vertex 4.93 7.8 7.425
    endloop
  endfacet
  facet normal 0 1 0
    outer loop
      vertex 10.8 7.8 10.2
      vertex 1.87 7.8 7.425
      vertex -10.8 7.8 10.2
    endloop
  endfacet
  facet normal 0 1 -0
    outer loop
      vertex -1.87 7.8 7.425
      vertex -10.8 7.8 10.2
      vertex 1.87 7.8 7.425
    endloop
  endfacet
  facet normal 0 1 -0
    outer loop
      vertex -4.93 7.8 7.425
      vertex -10.8 7.8 10.2
      vertex -1.87 7.8 7.425
    endloop
  endfacet
  facet normal 0 1 -0
    outer loop
      vertex -8.67 7.8 7.425
      vertex -10.8 7.8 10.2
      vertex -4.93 7.8 7.425
    endloop
  endfacet
  facet normal 0 1 0
    outer loop
      vertex -10.8 7.8 0.45
      vertex -8.67 7.8 7.425
      vertex -8.67 7.8 2.475
    endloop
  endfacet
  facet normal 0 1 0
    outer loop
      vertex -8.67 7.8 7.425
      vertex -10.8 7.8 0.45
      vertex -10.8 7.8 10.2
    endloop
  endfacet
  facet normal 0 1 0
    outer loop
      vertex -4.93 7.8 2.475
      vertex -10.8 7.8 0.45
      vertex -8.67 7.8 2.475
    endloop
  endfacet
  facet normal 0 -1 0
    outer loop
      vertex 1.87 -7.8 2.475
      vertex 4.93 -7.8 7.425
      vertex 1.87 -7.8 7.425
    endloop
  endfacet
  facet normal 0 -1 -0
    outer loop
      vertex 4.93 -7.8 7.425
      vertex 1.87 -7.8 2.475
      vertex 4.93 -7.8 2.475
    endloop
  endfacet
  facet normal 0 -1 0
    outer loop
      vertex -4.93 -7.8 2.475
      vertex -1.87 -7.8 7.425
      vertex -4.93 -7.8 7.425
    endloop
  endfacet
  facet normal 0 -1 -0
    outer loop
      vertex -1.87 -7.8 7.425
      vertex -4.93 -7.8 2.475
      vertex -1.87 -7.8 2.475
    endloop
  endfacet
  facet normal 0 -1 0
    outer loop
      vertex -4.93 -7.8 7.425
      vertex -10.8 -7.8 10.2
      vertex -8.67 -7.8 7.425
    endloop
  endfacet
  facet normal 0 -1 0
    outer loop
      vertex -10.8 -7.8 0.45
      vertex -8.67 -7.8 7.425
      vertex -10.8 -7.8 10.2
    endloop
  endfacet
  facet normal 0 -1 0
    outer loop
      vertex -10.8 -7.8 0.45
      vertex -4.93 -7.8 2.475
      vertex -8.67 -7.8 2.475
    endloop
  endfacet
  facet normal 0 -1 -0
    outer loop
      vertex -4.93 -7.8 2.475
      vertex -10.8 -7.8 0.45
      vertex -1.87 -7.8 2.475
    endloop
  endfacet
  facet normal 0 -1 -0
    outer loop
      vertex -1.87 -7.8 2.475
      vertex -10.8 -7.8 0.45
      vertex 1.87 -7.8 2.475
    endloop
  endfacet
  facet normal 0 -1 0
    outer loop
      vertex 10.8 -7.8 0.45
      vertex 1.87 -7.8 2.475
      vertex -10.8 -7.8 0.45
    endloop
  endfacet
  facet normal 0 -1 0
    outer loop
      vertex 1.87 -7.8 2.475
      vertex 10.8 -7.8 0.45
      vertex 4.93 -7.8 2.475
    endloop
  endfacet
  facet normal 0 -1 -0
    outer loop
      vertex -8.67 -7.8 7.425
      vertex -10.8 -7.8 0.45
      vertex -8.67 -7.8 2.475
    endloop
  endfacet
  facet normal 0 -1 0
    outer loop
      vertex -1.87 -7.8 7.425
      vertex -10.8 -7.8 10.2
      vertex -4.93 -7.8 7.425
    endloop
  endfacet
  facet normal 0 -1 0
    outer loop
      vertex -10.8 -7.8 10.2
      vertex -1.87 -7.8 7.425
      vertex 10.8 -7.8 10.2
    endloop
  endfacet
  facet normal 0 -1 0
    outer loop
      vertex 1.87 -7.8 7.425
      vertex 10.8 -7.8 10.2
      vertex -1.87 -7.8 7.425
    endloop
  endfacet
  facet normal 0 -1 0
    outer loop
      vertex 4.93 -7.8 7.425
      vertex 10.8 -7.8 10.2
      vertex 1.87 -7.8 7.425
    endloop
  endfacet
  facet normal 0 -1 0
    outer loop
      vertex 8.67 -7.8 7.425
      vertex 10.8 -7.8 10.2
      vertex 4.93 -7.8 7.425
    endloop
  endfacet
  facet normal 0 -1 0
    outer loop
      vertex 10.8 -7.8 0.45
      vertex 8.67 -7.8 7.425
      vertex 8.67 -7.8 2.475
    endloop
  endfacet
  facet normal 0 -1 0
    outer loop
      vertex 8.67 -7.8 7.425
      vertex 10.8 -7.8 0.45
      vertex 10.8 -7.8 10.2
    endloop
  endfacet
  facet normal 0 -1 0
    outer loop
      vertex 4.93 -7.8 2.475
      vertex 10.8 -7.8 0.45
      vertex 8.67 -7.8 2.475
    endloop
  endfacet
  facet normal 0 0 -1
    outer loop
      vertex 10.8 -7.8 0.45
      vertex 10.575 -7.575 0.45
      vertex 10.8 7.8 0.45
    endloop
  endfacet
  facet normal 0 0 -1
    outer loop
      vertex 10.8 -7.8 0.45
      vertex -10.575 -7.575 0.45
      vertex 10.575 -7.575 0.45
    endloop
  endfacet
  facet normal -0 0 -1
    outer loop
      vertex -10.575 -7.575 0.45
      vertex -10.8 -7.8 0.45
      vertex -10.575 7.575 0.45
    endloop
  endfacet
  facet normal 0 0 -1
    outer loop
      vertex -10.8 -7.8 0.45
      vertex -10.575 -7.575 0.45
      vertex 10.8 -7.8 0.45
    endloop
  endfacet
  facet normal 0 0 -1
    outer loop
      vertex 10.575 7.575 0.45
      vertex 10.8 7.8 0.45
      vertex 10.575 -7.575 0.45
    endloop
  endfacet
  facet normal 0 0 -1
    outer loop
      vertex -10.575 7.575 0.45
      vertex 10.8 7.8 0.45
      vertex 10.575 7.575 0.45
    endloop
  endfacet
  facet normal 0 0 -1
    outer loop
      vertex -10.575 7.575 0.45
      vertex -10.8 7.8 0.45
      vertex 10.8 7.8 0.45
    endloop
  endfacet
  facet normal 0 0 -1
    outer loop
      vertex -10.8 7.8 0.45
      vertex -10.575 7.575 0.45
      vertex -10.8 -7.8 0.45
    endloop
  endfacet
  facet normal 1 -0 0
    outer loop
      vertex 10.575 -7.575 0.45
      vertex 10.575 7.575 0
      vertex 10.575 7.575 0.45
    endloop
  endfacet
  facet normal 1 0 0
    outer loop
      vertex 10.575 7.575 0
      vertex 10.575 -7.575 0.45
      vertex 10.575 -7.575 0
    endloop
  endfacet
  facet normal 0 0 -1
    outer loop
      vertex 10.575 -7.575 0
      vertex 9.975 -6.975 0
      vertex 10.575 7.575 0
    endloop
  endfacet
  facet normal 0 0 -1
    outer loop
      vertex 10.575 -7.575 0
      vertex -9.975 -6.975 0
      vertex 9.975 -6.975 0
    endloop
  endfacet
  facet normal -0 0 -1
    outer loop
      vertex -9.975 -6.975 0
      vertex -10.575 -7.575 0
      vertex -9.975 6.975 0
    endloop
  endfacet
  facet normal 0 0 -1
    outer loop
      vertex -10.575 -7.575 0
      vertex -9.975 -6.975 0
      vertex 10.575 -7.575 0
    endloop
  endfacet
  facet normal 0 0 -1
    outer loop
      vertex 9.975 6.975 0
      vertex 10.575 7.575 0
      vertex 9.975 -6.975 0
    endloop
  endfacet
  facet normal 0 0 -1
    outer loop
      vertex -9.975 6.975 0
      vertex 10.575 7.575 0
      vertex 9.975 6.975 0
    endloop
  endfacet
  facet normal 0 0 -1
    outer loop
      vertex -9.975 6.975 0
      vertex -10.575 7.575 0
      vertex 10.575 7.575 0
    endloop
  endfacet
  facet normal 0 0 -1
    outer loop
      vertex -10.575 7.575 0
      vertex -9.975 6.975 0
      vertex -10.575 -7.575 0
    endloop
  endfacet
  facet normal -1 0 0
    outer loop
      vertex -10.575 -7.575 0
      vertex -10.575 7.575 0.45
      vertex -10.575 7.575 0
    endloop
  endfacet
  facet normal -1 -0 0
    outer loop
      vertex -10.575 7.575 0.45
      vertex -10.575 -7.575 0
      vertex -10.575 -7.575 0.45
    endloop
  endfacet
  facet normal 0 1 -0
    outer loop
      vertex 10.575 7.575 0
      vertex -10.575 7.575 0.45
      vertex 10.575 7.575 0.45
    endloop
  endfacet
  facet normal 0 1 0
    outer loop
      vertex -10.575 7.575 0.45
      vertex 10.575 7.575 0
      vertex -10.575 7.575 0
    endloop
  endfacet
  facet normal 0 -1 0
    outer loop
      vertex -10.575 -7.575 0
      vertex 10.575 -7.575 0.45
      vertex -10.575 -7.575 0.45
    endloop
  endfacet
  facet normal 0 -1 -0
    outer loop
      vertex 10.575 -7.575 0.45
      vertex -10.575 -7.575 0
      vertex 10.575 -7.575 0
    endloop
  endfacet
  facet normal -1 0 0
    outer loop
      vertex -1.5525 5.4 11.685
      vertex -1.5525 5.76 15.315
      vertex -1.5525 5.76 11.685
    endloop
  endfacet
  facet normal -1 -0 0
    outer loop
      vertex -1.5525 5.76 15.315
      vertex -1.5525 5.4 11.685
      vertex -1.5525 5.4 15.315
    endloop
  endfacet
  facet normal -1 0 0
    outer loop
      vertex -1.5525 -5.76 11.685
      vertex -1.5525 -5.4 15.315
      vertex -1.5525 -5.4 11.685
    endloop
  endfacet
  facet normal -1 -0 0
    outer loop
      vertex -1.5525 -5.4 15.315
      vertex -1.5525 -5.76 11.685
      vertex -1.5525 -5.76 15.315
    endloop
  endfacet
  facet normal 0 0 1
    outer loop
      vertex -1.5525 6 11.685
      vertex -5.3475 6 11.685
      vertex -1.5525 5.76 11.685
    endloop
  endfacet
  facet normal 0 0 1
    outer loop
      vertex -5.3475 5.4 11.685
      vertex -1.5525 5.76 11.685
      vertex -5.3475 6 11.685
    endloop
  endfacet
  facet normal 0 0 1
    outer loop
      vertex -1.5525 5.76 11.685
      vertex -5.3475 5.4 11.685
      vertex -1.5525 5.4 11.685
    endloop
  endfacet
  facet normal -0 0 1
    outer loop
      vertex -5.3475 -5.4 11.685
      vertex -1.5525 -5.76 11.685
      vertex -1.5525 -5.4 11.685
    endloop
  endfacet
  facet normal 0 0 1
    outer loop
      vertex -5.3475 -6 11.685
      vertex -1.5525 -5.76 11.685
      vertex -5.3475 -5.4 11.685
    endloop
  endfacet
  facet normal 0 0 1
    outer loop
      vertex -1.5525 -5.76 11.685
      vertex -5.3475 -6 11.685
      vertex -1.5525 -6 11.685
    endloop
  endfacet
  facet normal 0 0 -1
    outer loop
      vertex -5.3475 5.4 15.315
      vertex -1.5525 5.76 15.315
      vertex -1.5525 5.4 15.315
    endloop
  endfacet
  facet normal -0 0 -1
    outer loop
      vertex -1.5525 5.76 15.315
      vertex -5.3475 5.4 15.315
      vertex -5.3475 5.76 15.315
    endloop
  endfacet
  facet normal 0 0 -1
    outer loop
      vertex -5.3475 -5.76 15.315
      vertex -1.5525 -5.4 15.315
      vertex -1.5525 -5.76 15.315
    endloop
  endfacet
  facet normal -0 0 -1
    outer loop
      vertex -1.5525 -5.4 15.315
      vertex -5.3475 -5.76 15.315
      vertex -5.3475 -5.4 15.315
    endloop
  endfacet
  facet normal 1 -0 0
    outer loop
      vertex -5.3475 5.76 15.315
      vertex -5.3475 6 11.685
      vertex -5.3475 6 15.315
    endloop
  endfacet
  facet normal 1 0 0
    outer loop
      vertex -5.3475 5.4 11.685
      vertex -5.3475 5.76 15.315
      vertex -5.3475 5.4 15.315
    endloop
  endfacet
  facet normal 1 0 0
    outer loop
      vertex -5.3475 5.76 15.315
      vertex -5.3475 5.4 11.685
      vertex -5.3475 6 11.685
    endloop
  endfacet
  facet normal 1 -0 0
    outer loop
      vertex -5.3475 -5.76 15.315
      vertex -5.3475 -5.4 11.685
      vertex -5.3475 -5.4 15.315
    endloop
  endfacet
  facet normal 1 0 0
    outer loop
      vertex -5.3475 -6 11.685
      vertex -5.3475 -5.76 15.315
      vertex -5.3475 -6 15.315
    endloop
  endfacet
  facet normal 1 0 0
    outer loop
      vertex -5.3475 -5.76 15.315
      vertex -5.3475 -6 11.685
      vertex -5.3475 -5.4 11.685
    endloop
  endfacet
  facet normal -1 0 0
    outer loop
      vertex 5.3475 6 11.685
      vertex 5.3475 5.76 15.315
      vertex 5.3475 6 15.315
    endloop
  endfacet
  facet normal -1 0 0
    outer loop
      vertex 5.3475 5.4 11.685
      vertex 5.3475 5.76 15.315
      vertex 5.3475 6 11.685
    endloop
  endfacet
  facet normal -1 -0 0
    outer loop
      vertex 5.3475 5.76 15.315
      vertex 5.3475 5.4 11.685
      vertex 5.3475 5.4 15.315
    endloop
  endfacet
  facet normal -1 0 0
    outer loop
      vertex 5.3475 -5.4 11.685
      vertex 5.3475 -5.76 15.315
      vertex 5.3475 -5.4 15.315
    endloop
  endfacet
  facet normal -1 0 0
    outer loop
      vertex 5.3475 -6 11.685
      vertex 5.3475 -5.76 15.315
      vertex 5.3475 -5.4 11.685
    endloop
  endfacet
  facet normal -1 -0 0
    outer loop
      vertex 5.3475 -5.76 15.315
      vertex 5.3475 -6 11.685
      vertex 5.3475 -6 15.315
    endloop
  endfacet
  facet normal 0 0 1
    outer loop
      vertex 1.5525 5.76 11.685
      vertex 5.3475 6 11.685
      vertex 1.5525 6 11.685
    endloop
  endfacet
  facet normal 0 0 1
    outer loop
      vertex 5.3475 6 11.685
      vertex 1.5525 5.76 11.685
      vertex 5.3475 5.4 11.685
    endloop
  endfacet
  facet normal 0 0 1
    outer loop
      vertex 1.5525 5.76 11.685
      vertex 1.5525 5.4 11.685
      vertex 5.3475 5.4 11.685
    endloop
  endfacet
  facet normal 0 0 1
    outer loop
      vertex 5.3475 -5.4 11.685
      vertex 1.5525 -5.76 11.685
      vertex 5.3475 -6 11.685
    endloop
  endfacet
  facet normal -0 0 1
    outer loop
      vertex 1.5525 -5.4 11.685
      vertex 1.5525 -5.76 11.685
      vertex 5.3475 -5.4 11.685
    endloop
  endfacet
  facet normal 0 0 1
    outer loop
      vertex 5.3475 -6 11.685
      vertex 1.5525 -5.76 11.685
      vertex 1.5525 -6 11.685
    endloop
  endfacet
  facet normal 0 0 -1
    outer loop
      vertex 1.5525 5.4 15.315
      vertex 5.3475 5.76 15.315
      vertex 5.3475 5.4 15.315
    endloop
  endfacet
  facet normal -0 0 -1
    outer loop
      vertex 5.3475 5.76 15.315
      vertex 1.5525 5.4 15.315
      vertex 1.5525 5.76 15.315
    endloop
  endfacet
  facet normal 0 0 -1
    outer loop
      vertex 1.5525 -5.76 15.315
      vertex 5.3475 -5.4 15.315
      vertex 5.3475 -5.76 15.315
    endloop
  endfacet
  facet normal -0 0 -1
    outer loop
      vertex 5.3475 -5.4 15.315
      vertex 1.5525 -5.76 15.315
      vertex 1.5525 -5.4 15.315
    endloop
  endfacet
  facet normal 1 -0 0
    outer loop
      vertex 1.5525 5.4 15.315
      vertex 1.5525 5.76 11.685
      vertex 1.5525 5.76 15.315
    endloop
  endfacet
  facet normal 1 0 0
    outer loop
      vertex 1.5525 5.76 11.685
      vertex 1.5525 5.4 15.315
      vertex 1.5525 5.4 11.685
    endloop
  endfacet
  facet normal 1 -0 0
    outer loop
      vertex 1.5525 -5.76 15.315
      vertex 1.5525 -5.4 11.685
      vertex 1.5525 -5.4 15.315
    endloop
  endfacet
  facet normal 1 0 0
    outer loop
      vertex 1.5525 -5.4 11.685
      vertex 1.5525 -5.76 15.315
      vertex 1.5525 -5.76 11.685
    endloop
  endfacet
  facet normal -1 0 0
    outer loop
      vertex -4.93 7.2 2.475
      vertex -4.93 7.56 7.425
      vertex -4.93 7.56 2.475
    endloop
  endfacet
  facet normal -1 -0 0
    outer loop
      vertex -4.93 7.56 7.425
      vertex -4.93 7.2 2.475
      vertex -4.93 7.2 7.425
    endloop
  endfacet
  facet normal -1 0 0
    outer loop
      vertex -4.93 -7.56 2.475
      vertex -4.93 -7.2 7.425
      vertex -4.93 -7.2 2.475
    endloop
  endfacet
  facet normal -1 -0 0
    outer loop
      vertex -4.93 -7.2 7.425
      vertex -4.93 -7.56 2.475
      vertex -4.93 -7.56 7.425
    endloop
  endfacet
  facet normal 0 0 1
    outer loop
      vertex -4.93 7.8 2.475
      vertex -8.67 7.8 2.475
      vertex -4.93 7.56 2.475
    endloop
  endfacet
  facet normal 0 0 1
    outer loop
      vertex -8.67 7.56 2.475
      vertex -4.93 7.56 2.475
      vertex -8.67 7.8 2.475
    endloop
  endfacet
  facet normal 0 0 1
    outer loop
      vertex -4.93 7.56 2.475
      vertex -8.67 7.56 2.475
      vertex -4.93 7.2 2.475
    endloop
  endfacet
  facet normal 0 0 1
    outer loop
      vertex -4.93 7.2 2.475
      vertex -8.67 7.56 2.475
      vertex -8.67 7.2 2.475
    endloop
  endfacet
  facet normal 0 0 1
    outer loop
      vertex -8.67 -7.56 2.475
      vertex -4.93 -7.56 2.475
      vertex -8.67 -7.2 2.475
    endloop
  endfacet
  facet normal -0 0 1
    outer loop
      vertex -8.67 -7.2 2.475
      vertex -4.93 -7.56 2.475
      vertex -4.93 -7.2 2.475
    endloop
  endfacet
  facet normal 0 0 1
    outer loop
      vertex -4.93 -7.56 2.475
      vertex -8.67 -7.56 2.475
      vertex -4.93 -7.8 2.475
    endloop
  endfacet
  facet normal 0 0 1
    outer loop
      vertex -8.67 -7.8 2.475
      vertex -4.93 -7.8 2.475
      vertex -8.67 -7.56 2.475
    endloop
  endfacet
  facet normal 0 0 -1
    outer loop
      vertex -8.67 7.56 7.425
      vertex -4.93 7.56 7.425
      vertex -8.67 7.2 7.425
    endloop
  endfacet
  facet normal 0 0 -1
    outer loop
      vertex -8.67 7.2 7.425
      vertex -4.93 7.56 7.425
      vertex -4.93 7.2 7.425
    endloop
  endfacet
  facet normal 0 0 -1
    outer loop
      vertex -4.93 7.56 7.425
      vertex -8.67 7.56 7.425
      vertex -4.93 7.8 7.425
    endloop
  endfacet
  facet normal 0 0 -1
    outer loop
      vertex -8.67 7.8 7.425
      vertex -4.93 7.8 7.425
      vertex -8.67 7.56 7.425
    endloop
  endfacet
  facet normal 0 0 -1
    outer loop
      vertex -4.93 -7.8 7.425
      vertex -8.67 -7.8 7.425
      vertex -4.93 -7.56 7.425
    endloop
  endfacet
  facet normal 0 0 -1
    outer loop
      vertex -8.67 -7.56 7.425
      vertex -4.93 -7.56 7.425
      vertex -8.67 -7.8 7.425
    endloop
  endfacet
  facet normal 0 0 -1
    outer loop
      vertex -4.93 -7.56 7.425
      vertex -8.67 -7.56 7.425
      vertex -4.93 -7.2 7.425
    endloop
  endfacet
  facet normal -0 0 -1
    outer loop
      vertex -4.93 -7.2 7.425
      vertex -8.67 -7.56 7.425
      vertex -8.67 -7.2 7.425
    endloop
  endfacet
  facet normal 1 -0 0
    outer loop
      vertex -8.67 7.2 7.425
      vertex -8.67 7.56 2.475
      vertex -8.67 7.56 7.425
    endloop
  endfacet
  facet normal 1 0 0
    outer loop
      vertex -8.67 7.56 2.475
      vertex -8.67 7.2 7.425
      vertex -8.67 7.2 2.475
    endloop
  endfacet
  facet normal 1 -0 0
    outer loop
      vertex -8.67 -7.56 7.425
      vertex -8.67 -7.2 2.475
      vertex -8.67 -7.2 7.425
    endloop
  endfacet
  facet normal 1 0 0
    outer loop
      vertex -8.67 -7.2 2.475
      vertex -8.67 -7.56 7.425
      vertex -8.67 -7.56 2.475
    endloop
  endfacet
  facet normal -1 0 0
    outer loop
      vertex 1.87 7.2 2.475
      vertex 1.87 7.8 7.425
      vertex 1.87 7.8 2.475
    endloop
  endfacet
  facet normal -1 -0 0
    outer loop
      vertex 1.87 7.8 7.425
      vertex 1.87 7.2 2.475
      vertex 1.87 7.2 7.425
    endloop
  endfacet
  facet normal -1 0 0
    outer loop
      vertex 1.87 -7.8 2.475
      vertex 1.87 -7.2 7.425
      vertex 1.87 -7.2 2.475
    endloop
  endfacet
  facet normal -1 -0 0
    outer loop
      vertex 1.87 -7.2 7.425
      vertex 1.87 -7.8 2.475
      vertex 1.87 -7.8 7.425
    endloop
  endfacet
  facet normal -0 0 1
    outer loop
      vertex -1.87 7.8 2.475
      vertex 1.87 7.2 2.475
      vertex 1.87 7.8 2.475
    endloop
  endfacet
  facet normal 0 0 1
    outer loop
      vertex 1.87 7.2 2.475
      vertex -1.87 7.8 2.475
      vertex -1.87 7.2 2.475
    endloop
  endfacet
  facet normal -0 0 1
    outer loop
      vertex -1.87 -7.2 2.475
      vertex 1.87 -7.8 2.475
      vertex 1.87 -7.2 2.475
    endloop
  endfacet
  facet normal 0 0 1
    outer loop
      vertex 1.87 -7.8 2.475
      vertex -1.87 -7.2 2.475
      vertex -1.87 -7.8 2.475
    endloop
  endfacet
  facet normal 0 0 -1
    outer loop
      vertex -1.87 7.2 7.425
      vertex 1.87 7.8 7.425
      vertex 1.87 7.2 7.425
    endloop
  endfacet
  facet normal -0 0 -1
    outer loop
      vertex 1.87 7.8 7.425
      vertex -1.87 7.2 7.425
      vertex -1.87 7.8 7.425
    endloop
  endfacet
  facet normal 0 0 -1
    outer loop
      vertex -1.87 -7.8 7.425
      vertex 1.87 -7.2 7.425
      vertex 1.87 -7.8 7.425
    endloop
  endfacet
  facet normal -0 0 -1
    outer loop
      vertex 1.87 -7.2 7.425
      vertex -1.87 -7.8 7.425
      vertex -1.87 -7.2 7.425
    endloop
  endfacet
  facet normal 1 -0 0
    outer loop
      vertex -1.87 7.2 7.425
      vertex -1.87 7.8 2.475
      vertex -1.87 7.8 7.425
    endloop
  endfacet
  facet normal 1 0 0
    outer loop
      vertex -1.87 7.8 2.475
      vertex -1.87 7.2 7.425
      vertex -1.87 7.2 2.475
    endloop
  endfacet
  facet normal 1 -0 0
    outer loop
      vertex -1.87 -7.8 7.425
      vertex -1.87 -7.2 2.475
      vertex -1.87 -7.2 7.425
    endloop
  endfacet
  facet normal 1 0 0
    outer loop
      vertex -1.87 -7.2 2.475
      vertex -1.87 -7.8 7.425
      vertex -1.87 -7.8 2.475
    endloop
  endfacet
  facet normal -1 0 0
    outer loop
      vertex 8.67 7.2 2.475
      vertex 8.67 7.56 7.425
      vertex 8.67 7.56 2.475
    endloop
  endfacet
  facet normal -1 -0 0
    outer loop
      vertex 8.67 7.56 7.425
      vertex 8.67 7.2 2.475
      vertex 8.67 7.2 7.425
    endloop
  endfacet
  facet normal -1 0 0
    outer loop
      vertex 8.67 -7.56 2.475
      vertex 8.67 -7.2 7.425
      vertex 8.67 -7.2 2.475
    endloop
  endfacet
  facet normal -1 -0 0
    outer loop
      vertex 8.67 -7.2 7.425
      vertex 8.67 -7.56 2.475
      vertex 8.67 -7.56 7.425
    endloop
  endfacet
  facet normal 0 0 1
    outer loop
      vertex 8.67 7.8 2.475
      vertex 4.93 7.56 2.475
      vertex 8.67 7.56 2.475
    endloop
  endfacet
  facet normal 0 0 1
    outer loop
      vertex 8.67 7.8 2.475
      vertex 4.93 7.8 2.475
      vertex 4.93 7.56 2.475
    endloop
  endfacet
  facet normal 0 0 1
    outer loop
      vertex 8.67 7.56 2.475
      vertex 4.93 7.56 2.475
      vertex 8.67 7.2 2.475
    endloop
  endfacet
  facet normal 0 0 1
    outer loop
      vertex 4.93 7.56 2.475
      vertex 4.93 7.2 2.475
      vertex 8.67 7.2 2.475
    endloop
  endfacet
  facet normal 0 0 1
    outer loop
      vertex 4.93 -7.56 2.475
      vertex 8.67 -7.56 2.475
      vertex 8.67 -7.2 2.475
    endloop
  endfacet
  facet normal 0 0 1
    outer loop
      vertex 8.67 -7.56 2.475
      vertex 4.93 -7.56 2.475
      vertex 8.67 -7.8 2.475
    endloop
  endfacet
  facet normal 0 0 1
    outer loop
      vertex 4.93 -7.8 2.475
      vertex 8.67 -7.8 2.475
      vertex 4.93 -7.56 2.475
    endloop
  endfacet
  facet normal -0 0 1
    outer loop
      vertex 4.93 -7.2 2.475
      vertex 4.93 -7.56 2.475
      vertex 8.67 -7.2 2.475
    endloop
  endfacet
  facet normal 0 0 -1
    outer loop
      vertex 4.93 7.56 7.425
      vertex 8.67 7.56 7.425
      vertex 8.67 7.2 7.425
    endloop
  endfacet
  facet normal 0 0 -1
    outer loop
      vertex 8.67 7.56 7.425
      vertex 4.93 7.56 7.425
      vertex 8.67 7.8 7.425
    endloop
  endfacet
  facet normal 0 0 -1
    outer loop
      vertex 4.93 7.8 7.425
      vertex 8.67 7.8 7.425
      vertex 4.93 7.56 7.425
    endloop
  endfacet
  facet normal 0 0 -1
    outer loop
      vertex 4.93 7.2 7.425
      vertex 4.93 7.56 7.425
      vertex 8.67 7.2 7.425
    endloop
  endfacet
  facet normal 0 0 -1
    outer loop
      vertex 8.67 -7.8 7.425
      vertex 4.93 -7.56 7.425
      vertex 8.67 -7.56 7.425
    endloop
  endfacet
  facet normal 0 0 -1
    outer loop
      vertex 8.67 -7.8 7.425
      vertex 4.93 -7.8 7.425
      vertex 4.93 -7.56 7.425
    endloop
  endfacet
  facet normal 0 0 -1
    outer loop
      vertex 8.67 -7.56 7.425
      vertex 4.93 -7.56 7.425
      vertex 8.67 -7.2 7.425
    endloop
  endfacet
  facet normal 0 0 -1
    outer loop
      vertex 4.93 -7.56 7.425
      vertex 4.93 -7.2 7.425
      vertex 8.67 -7.2 7.425
    endloop
  endfacet
  facet normal 1 -0 0
    outer loop
      vertex 4.93 7.2 7.425
      vertex 4.93 7.56 2.475
      vertex 4.93 7.56 7.425
    endloop
  endfacet
  facet normal 1 0 0
    outer loop
      vertex 4.93 7.56 2.475
      vertex 4.93 7.2 7.425
      vertex 4.93 7.2 2.475
    endloop
  endfacet
  facet normal 1 -0 0
    outer loop
      vertex 4.93 -7.56 7.425
      vertex 4.93 -7.2 2.475
      vertex 4.93 -7.2 7.425
    endloop
  endfacet
  facet normal 1 0 0
    outer loop
      vertex 4.93 -7.2 2.475
      vertex 4.93 -7.56 7.425
      vertex 4.93 -7.56 2.475
    endloop
  endfacet
  facet normal 0 0 1
    outer loop
      vertex -10.2 -1.62 2.475
      vertex -10.56 -1.62 2.475
      vertex -10.2 -5.58 2.475
    endloop
  endfacet
  facet normal 0 0 1
    outer loop
      vertex -10.8 -5.58 2.475
      vertex -10.56 -1.62 2.475
      vertex -10.8 -1.62 2.475
    endloop
  endfacet
  facet normal 0 0 1
    outer loop
      vertex -10.56 -1.62 2.475
      vertex -10.8 -5.58 2.475
      vertex -10.2 -5.58 2.475
    endloop
  endfacet
  facet normal -0 0 1
    outer loop
      vertex 10.56 -1.62 2.475
      vertex 10.8 -5.58 2.475
      vertex 10.8 -1.62 2.475
    endloop
  endfacet
  facet normal 0 0 1
    outer loop
      vertex 10.2 -5.58 2.475
      vertex 10.56 -1.62 2.475
      vertex 10.2 -1.62 2.475
    endloop
  endfacet
  facet normal 0 0 1
    outer loop
      vertex 10.56 -1.62 2.475
      vertex 10.2 -5.58 2.475
      vertex 10.8 -5.58 2.475
    endloop
  endfacet
  facet normal 0 0 -1
    outer loop
      vertex -10.2 -5.58 7.425
      vertex -10.56 -1.62 7.425
      vertex -10.2 -1.62 7.425
    endloop
  endfacet
  facet normal 0 0 -1
    outer loop
      vertex -10.8 -5.58 7.425
      vertex -10.56 -1.62 7.425
      vertex -10.2 -5.58 7.425
    endloop
  endfacet
  facet normal -0 0 -1
    outer loop
      vertex -10.56 -1.62 7.425
      vertex -10.8 -5.58 7.425
      vertex -10.8 -1.62 7.425
    endloop
  endfacet
  facet normal 0 0 -1
    outer loop
      vertex 10.8 -5.58 7.425
      vertex 10.56 -1.62 7.425
      vertex 10.8 -1.62 7.425
    endloop
  endfacet
  facet normal 0 0 -1
    outer loop
      vertex 10.2 -5.58 7.425
      vertex 10.56 -1.62 7.425
      vertex 10.8 -5.58 7.425
    endloop
  endfacet
  facet normal 0 0 -1
    outer loop
      vertex 10.2 -1.62 7.425
      vertex 10.56 -1.62 7.425
      vertex 10.2 -5.58 7.425
    endloop
  endfacet
  facet normal 0 -1 0
    outer loop
      vertex -10.56 -1.62 2.475
      vertex -10.2 -1.62 7.425
      vertex -10.56 -1.62 7.425
    endloop
  endfacet
  facet normal 0 -1 -0
    outer loop
      vertex -10.2 -1.62 7.425
      vertex -10.56 -1.62 2.475
      vertex -10.2 -1.62 2.475
    endloop
  endfacet
  facet normal 0 -1 0
    outer loop
      vertex 10.2 -1.62 2.475
      vertex 10.56 -1.62 7.425
      vertex 10.2 -1.62 7.425
    endloop
  endfacet
  facet normal 0 -1 -0
    outer loop
      vertex 10.56 -1.62 7.425
      vertex 10.2 -1.62 2.475
      vertex 10.56 -1.62 2.475
    endloop
  endfacet
  facet normal 0 1 -0
    outer loop
      vertex -10.2 -5.58 2.475
      vertex -10.8 -5.58 7.425
      vertex -10.2 -5.58 7.425
    endloop
  endfacet
  facet normal 0 1 0
    outer loop
      vertex -10.8 -5.58 7.425
      vertex -10.2 -5.58 2.475
      vertex -10.8 -5.58 2.475
    endloop
  endfacet
  facet normal 0 1 -0
    outer loop
      vertex 10.8 -5.58 2.475
      vertex 10.2 -5.58 7.425
      vertex 10.8 -5.58 7.425
    endloop
  endfacet
  facet normal 0 1 0
    outer loop
      vertex 10.2 -5.58 7.425
      vertex 10.8 -5.58 2.475
      vertex 10.2 -5.58 2.475
    endloop
  endfacet
  facet normal 0 0 1
    outer loop
      vertex -10.2 5.58 2.475
      vertex -10.56 1.62 2.475
      vertex -10.2 1.62 2.475
    endloop
  endfacet
  facet normal -0 0 1
    outer loop
      vertex -10.8 5.58 2.475
      vertex -10.56 1.62 2.475
      vertex -10.2 5.58 2.475
    endloop
  endfacet
  facet normal 0 0 1
    outer loop
      vertex -10.56 1.62 2.475
      vertex -10.8 5.58 2.475
      vertex -10.8 1.62 2.475
    endloop
  endfacet
  facet normal 0 0 1
    outer loop
      vertex 10.8 5.58 2.475
      vertex 10.56 1.62 2.475
      vertex 10.8 1.62 2.475
    endloop
  endfacet
  facet normal -0 0 1
    outer loop
      vertex 10.2 5.58 2.475
      vertex 10.56 1.62 2.475
      vertex 10.8 5.58 2.475
    endloop
  endfacet
  facet normal 0 0 1
    outer loop
      vertex 10.2 1.62 2.475
      vertex 10.56 1.62 2.475
      vertex 10.2 5.58 2.475
    endloop
  endfacet
  facet normal 0 0 -1
    outer loop
      vertex -10.2 1.62 7.425
      vertex -10.56 1.62 7.425
      vertex -10.2 5.58 7.425
    endloop
  endfacet
  facet normal 0 0 -1
    outer loop
      vertex -10.8 5.58 7.425
      vertex -10.56 1.62 7.425
      vertex -10.8 1.62 7.425
    endloop
  endfacet
  facet normal 0 0 -1
    outer loop
      vertex -10.56 1.62 7.425
      vertex -10.8 5.58 7.425
      vertex -10.2 5.58 7.425
    endloop
  endfacet
  facet normal 0 0 -1
    outer loop
      vertex 10.56 1.62 7.425
      vertex 10.8 5.58 7.425
      vertex 10.8 1.62 7.425
    endloop
  endfacet
  facet normal 0 0 -1
    outer loop
      vertex 10.2 5.58 7.425
      vertex 10.56 1.62 7.425
      vertex 10.2 1.62 7.425
    endloop
  endfacet
  facet normal 0 0 -1
    outer loop
      vertex 10.56 1.62 7.425
      vertex 10.2 5.58 7.425
      vertex 10.8 5.58 7.425
    endloop
  endfacet
  facet normal 0 -1 0
    outer loop
      vertex -10.8 5.58 2.475
      vertex -10.2 5.58 7.425
      vertex -10.8 5.58 7.425
    endloop
  endfacet
  facet normal 0 -1 -0
    outer loop
      vertex -10.2 5.58 7.425
      vertex -10.8 5.58 2.475
      vertex -10.2 5.58 2.475
    endloop
  endfacet
  facet normal 0 -1 0
    outer loop
      vertex 10.2 5.58 2.475
      vertex 10.8 5.58 7.425
      vertex 10.2 5.58 7.425
    endloop
  endfacet
  facet normal 0 -1 -0
    outer loop
      vertex 10.8 5.58 7.425
      vertex 10.2 5.58 2.475
      vertex 10.8 5.58 2.475
    endloop
  endfacet
  facet normal 0 1 -0
    outer loop
      vertex -10.2 1.62 2.475
      vertex -10.56 1.62 7.425
      vertex -10.2 1.62 7.425
    endloop
  endfacet
  facet normal 0 1 0
    outer loop
      vertex -10.56 1.62 7.425
      vertex -10.2 1.62 2.475
      vertex -10.56 1.62 2.475
    endloop
  endfacet
  facet normal 0 1 -0
    outer loop
      vertex 10.56 1.62 2.475
      vertex 10.2 1.62 7.425
      vertex 10.56 1.62 7.425
    endloop
  endfacet
  facet normal 0 1 0
    outer loop
      vertex 10.2 1.62 7.425
      vertex 10.56 1.62 2.475
      vertex 10.2 1.62 2.475
    endloop
  endfacet
  facet normal -1 0 0
    outer loop
      vertex 4.2 3.3 16.8
      vertex 4.2 1.815 18.63
      vertex 4.2 3.3 22.35
    endloop
  endfacet
  facet normal -1 0 0
    outer loop
      vertex 4.2 3.3 16.8
      vertex 4.2 -1.815 18.63
      vertex 4.2 1.815 18.63
    endloop
  endfacet
  facet normal -1 0 0
    outer loop
      vertex 4.2 -3.3 22.35
      vertex 4.2 -1.815 18.63
      vertex 4.2 -3.3 16.8
    endloop
  endfacet
  facet normal -1 0 0
    outer loop
      vertex 4.2 -3.3 16.8
      vertex 4.2 -1.815 18.63
      vertex 4.2 3.3 16.8
    endloop
  endfacet
  facet normal -1 0 0
    outer loop
      vertex 4.2 1.815 21.27
      vertex 4.2 3.3 22.35
      vertex 4.2 1.815 18.63
    endloop
  endfacet
  facet normal -1 0 0
    outer loop
      vertex 4.2 -1.815 21.27
      vertex 4.2 3.3 22.35
      vertex 4.2 1.815 21.27
    endloop
  endfacet
  facet normal -1 0 0
    outer loop
      vertex 4.2 -1.815 21.27
      vertex 4.2 -3.3 22.35
      vertex 4.2 3.3 22.35
    endloop
  endfacet
  facet normal -1 0 0
    outer loop
      vertex 4.2 -1.815 18.63
      vertex 4.2 -3.3 22.35
      vertex 4.2 -1.815 21.27
    endloop
  endfacet
  facet normal 0 0 -1
    outer loop
      vertex 6.9 -5.4 16.8
      vertex 4.2 -3.3 16.8
      vertex 6.9 5.4 16.8
    endloop
  endfacet
  facet normal 0 0 -1
    outer loop
      vertex 6.9 -5.4 16.8
      vertex -4.2 -3.3 16.8
      vertex 4.2 -3.3 16.8
    endloop
  endfacet
  facet normal -0 0 -1
    outer loop
      vertex -4.2 -3.3 16.8
      vertex -6.9 -5.4 16.8
      vertex -4.2 3.3 16.8
    endloop
  endfacet
  facet normal 0 0 -1
    outer loop
      vertex -6.9 -5.4 16.8
      vertex -4.2 -3.3 16.8
      vertex 6.9 -5.4 16.8
    endloop
  endfacet
  facet normal 0 0 -1
    outer loop
      vertex 4.2 3.3 16.8
      vertex 6.9 5.4 16.8
      vertex 4.2 -3.3 16.8
    endloop
  endfacet
  facet normal 0 0 -1
    outer loop
      vertex -4.2 3.3 16.8
      vertex 6.9 5.4 16.8
      vertex 4.2 3.3 16.8
    endloop
  endfacet
  facet normal 0 0 -1
    outer loop
      vertex -4.2 3.3 16.8
      vertex -6.9 5.4 16.8
      vertex 6.9 5.4 16.8
    endloop
  endfacet
  facet normal 0 0 -1
    outer loop
      vertex -6.9 5.4 16.8
      vertex -4.2 3.3 16.8
      vertex -6.9 -5.4 16.8
    endloop
  endfacet
  facet normal 0 0 -1
    outer loop
      vertex -4.2 -3.3 22.35
      vertex 4.2 3.3 22.35
      vertex 4.2 -3.3 22.35
    endloop
  endfacet
  facet normal -0 0 -1
    outer loop
      vertex 4.2 3.3 22.35
      vertex -4.2 -3.3 22.35
      vertex -4.2 3.3 22.35
    endloop
  endfacet
  facet normal 1 0 0
    outer loop
      vertex -4.2 1.815 18.63
      vertex -4.2 3.3 22.35
      vertex -4.2 1.815 21.27
    endloop
  endfacet
  facet normal 1 0 0
    outer loop
      vertex -4.2 3.3 22.35
      vertex -4.2 -1.815 21.27
      vertex -4.2 1.815 21.27
    endloop
  endfacet
  facet normal 1 0 0
    outer loop
      vertex -4.2 -1.815 21.27
      vertex -4.2 -3.3 22.35
      vertex -4.2 -1.815 18.63
    endloop
  endfacet
  facet normal 1 -0 0
    outer loop
      vertex -4.2 -3.3 22.35
      vertex -4.2 -1.815 21.27
      vertex -4.2 3.3 22.35
    endloop
  endfacet
  facet normal 1 0 0
    outer loop
      vertex -4.2 3.3 22.35
      vertex -4.2 1.815 18.63
      vertex -4.2 3.3 16.8
    endloop
  endfacet
  facet normal 1 -0 0
    outer loop
      vertex -4.2 -1.815 18.63
      vertex -4.2 3.3 16.8
      vertex -4.2 1.815 18.63
    endloop
  endfacet
  facet normal 1 0 0
    outer loop
      vertex -4.2 -1.815 18.63
      vertex -4.2 -3.3 16.8
      vertex -4.2 3.3 16.8
    endloop
  endfacet
  facet normal 1 0 0
    outer loop
      vertex -4.2 -3.3 16.8
      vertex -4.2 -1.815 18.63
      vertex -4.2 -3.3 22.35
    endloop
  endfacet
  facet normal 0 -1 0
    outer loop
      vertex -4.2 3.3 22.35
      vertex -2.31 3.3 21.27
      vertex 4.2 3.3 22.35
    endloop
  endfacet
  facet normal 0 -1 0
    outer loop
      vertex -4.2 3.3 22.35
      vertex -2.31 3.3 18.63
      vertex -2.31 3.3 21.27
    endloop
  endfacet
  facet normal 0 -1 -0
    outer loop
      vertex -2.31 3.3 18.63
      vertex -4.2 3.3 16.8
      vertex 2.31 3.3 18.63
    endloop
  endfacet
  facet normal 0 -1 0
    outer loop
      vertex -4.2 3.3 16.8
      vertex -2.31 3.3 18.63
      vertex -4.2 3.3 22.35
    endloop
  endfacet
  facet normal 0 -1 0
    outer loop
      vertex 2.31 3.3 21.27
      vertex 4.2 3.3 22.35
      vertex -2.31 3.3 21.27
    endloop
  endfacet
  facet normal 0 -1 0
    outer loop
      vertex 2.31 3.3 18.63
      vertex 4.2 3.3 22.35
      vertex 2.31 3.3 21.27
    endloop
  endfacet
  facet normal 0 -1 0
    outer loop
      vertex 2.31 3.3 18.63
      vertex 4.2 3.3 16.8
      vertex 4.2 3.3 22.35
    endloop
  endfacet
  facet normal 0 -1 0
    outer loop
      vertex 4.2 3.3 16.8
      vertex 2.31 3.3 18.63
      vertex -4.2 3.3 16.8
    endloop
  endfacet
  facet normal 0 1 0
    outer loop
      vertex 4.2 -3.3 22.35
      vertex 2.31 -3.3 21.27
      vertex -4.2 -3.3 22.35
    endloop
  endfacet
  facet normal 0 1 0
    outer loop
      vertex 4.2 -3.3 22.35
      vertex 2.31 -3.3 18.63
      vertex 2.31 -3.3 21.27
    endloop
  endfacet
  facet normal 0 1 0
    outer loop
      vertex 2.31 -3.3 18.63
      vertex 4.2 -3.3 16.8
      vertex -2.31 -3.3 18.63
    endloop
  endfacet
  facet normal 0 1 -0
    outer loop
      vertex 4.2 -3.3 16.8
      vertex 2.31 -3.3 18.63
      vertex 4.2 -3.3 22.35
    endloop
  endfacet
  facet normal 0 1 -0
    outer loop
      vertex -2.31 -3.3 21.27
      vertex -4.2 -3.3 22.35
      vertex 2.31 -3.3 21.27
    endloop
  endfacet
  facet normal 0 1 -0
    outer loop
      vertex -2.31 -3.3 18.63
      vertex -4.2 -3.3 22.35
      vertex -2.31 -3.3 21.27
    endloop
  endfacet
  facet normal 0 1 0
    outer loop
      vertex -2.31 -3.3 18.63
      vertex -4.2 -3.3 16.8
      vertex -4.2 -3.3 22.35
    endloop
  endfacet
  facet normal 0 1 0
    outer loop
      vertex -4.2 -3.3 16.8
      vertex -2.31 -3.3 18.63
      vertex 4.2 -3.3 16.8
    endloop
  endfacet
  facet normal -1 0 0
    outer loop
      vertex 6.9 5.4 9.45
      vertex 6.9 2.97 11.685
      vertex 6.9 5.4 16.8
    endloop
  endfacet
  facet normal -1 0 0
    outer loop
      vertex 6.9 5.4 9.45
      vertex 6.9 -2.97 11.685
      vertex 6.9 2.97 11.685
    endloop
  endfacet
  facet normal -1 0 0
    outer loop
      vertex 6.9 -5.4 16.8
      vertex 6.9 -2.97 11.685
      vertex 6.9 -5.4 9.45
    endloop
  endfacet
  facet normal -1 0 0
    outer loop
      vertex 6.9 -5.4 9.45
      vertex 6.9 -2.97 11.685
      vertex 6.9 5.4 9.45
    endloop
  endfacet
  facet normal -1 0 0
    outer loop
      vertex 6.9 2.97 15.315
      vertex 6.9 5.4 16.8
      vertex 6.9 2.97 11.685
    endloop
  endfacet
  facet normal -1 0 0
    outer loop
      vertex 6.9 -2.97 15.315
      vertex 6.9 5.4 16.8
      vertex 6.9 2.97 15.315
    endloop
  endfacet
  facet normal -1 0 0
    outer loop
      vertex 6.9 -2.97 15.315
      vertex 6.9 -5.4 16.8
      vertex 6.9 5.4 16.8
    endloop
  endfacet
  facet normal -1 0 0
    outer loop
      vertex 6.9 -2.97 11.685
      vertex 6.9 -5.4 16.8
      vertex 6.9 -2.97 15.315
    endloop
  endfacet
  facet normal 0 0 -1
    outer loop
      vertex 10.2 -7.2 9.45
      vertex 6.9 -5.4 9.45
      vertex 10.2 7.2 9.45
    endloop
  endfacet
  facet normal 0 0 -1
    outer loop
      vertex 10.2 -7.2 9.45
      vertex -6.9 -5.4 9.45
      vertex 6.9 -5.4 9.45
    endloop
  endfacet
  facet normal -0 0 -1
    outer loop
      vertex -6.9 -5.4 9.45
      vertex -10.2 -7.2 9.45
      vertex -6.9 5.4 9.45
    endloop
  endfacet
  facet normal 0 0 -1
    outer loop
      vertex -10.2 -7.2 9.45
      vertex -6.9 -5.4 9.45
      vertex 10.2 -7.2 9.45
    endloop
  endfacet
  facet normal 0 0 -1
    outer loop
      vertex 6.9 5.4 9.45
      vertex 10.2 7.2 9.45
      vertex 6.9 -5.4 9.45
    endloop
  endfacet
  facet normal 0 0 -1
    outer loop
      vertex -6.9 5.4 9.45
      vertex 10.2 7.2 9.45
      vertex 6.9 5.4 9.45
    endloop
  endfacet
  facet normal 0 0 -1
    outer loop
      vertex -6.9 5.4 9.45
      vertex -10.2 7.2 9.45
      vertex 10.2 7.2 9.45
    endloop
  endfacet
  facet normal 0 0 -1
    outer loop
      vertex -10.2 7.2 9.45
      vertex -6.9 5.4 9.45
      vertex -10.2 -7.2 9.45
    endloop
  endfacet
  facet normal 1 0 0
    outer loop
      vertex -6.9 2.97 11.685
      vertex -6.9 5.4 16.8
      vertex -6.9 2.97 15.315
    endloop
  endfacet
  facet normal 1 0 0
    outer loop
      vertex -6.9 5.4 16.8
      vertex -6.9 -2.97 15.315
      vertex -6.9 2.97 15.315
    endloop
  endfacet
  facet normal 1 0 0
    outer loop
      vertex -6.9 -2.97 15.315
      vertex -6.9 -5.4 16.8
      vertex -6.9 -2.97 11.685
    endloop
  endfacet
  facet normal 1 -0 0
    outer loop
      vertex -6.9 -5.4 16.8
      vertex -6.9 -2.97 15.315
      vertex -6.9 5.4 16.8
    endloop
  endfacet
  facet normal 1 0 0
    outer loop
      vertex -6.9 5.4 16.8
      vertex -6.9 2.97 11.685
      vertex -6.9 5.4 9.45
    endloop
  endfacet
  facet normal 1 -0 0
    outer loop
      vertex -6.9 -2.97 11.685
      vertex -6.9 5.4 9.45
      vertex -6.9 2.97 11.685
    endloop
  endfacet
  facet normal 1 0 0
    outer loop
      vertex -6.9 -2.97 11.685
      vertex -6.9 -5.4 9.45
      vertex -6.9 5.4 9.45
    endloop
  endfacet
  facet normal 1 0 0
    outer loop
      vertex -6.9 -5.4 9.45
      vertex -6.9 -2.97 11.685
      vertex -6.9 -5.4 16.8
    endloop
  endfacet
  facet normal 0 -1 0
    outer loop
      vertex -1.5525 5.4 11.685
      vertex 1.5525 5.4 15.315
      vertex -1.5525 5.4 15.315
    endloop
  endfacet
  facet normal 0 -1 -0
    outer loop
      vertex 1.5525 5.4 15.315
      vertex -1.5525 5.4 11.685
      vertex 1.5525 5.4 11.685
    endloop
  endfacet
  facet normal 0 -1 0
    outer loop
      vertex -1.5525 5.4 15.315
      vertex -6.9 5.4 16.8
      vertex -5.3475 5.4 15.315
    endloop
  endfacet
  facet normal 0 -1 0
    outer loop
      vertex -6.9 5.4 16.8
      vertex -5.3475 5.4 11.685
      vertex -5.3475 5.4 15.315
    endloop
  endfacet
  facet normal 0 -1 0
    outer loop
      vertex -6.9 5.4 9.45
      vertex -1.5525 5.4 11.685
      vertex -5.3475 5.4 11.685
    endloop
  endfacet
  facet normal 0 -1 -0
    outer loop
      vertex -1.5525 5.4 11.685
      vertex -6.9 5.4 9.45
      vertex 1.5525 5.4 11.685
    endloop
  endfacet
  facet normal 0 -1 0
    outer loop
      vertex 6.9 5.4 9.45
      vertex 1.5525 5.4 11.685
      vertex -6.9 5.4 9.45
    endloop
  endfacet
  facet normal 0 -1 0
    outer loop
      vertex -6.9 5.4 9.45
      vertex -5.3475 5.4 11.685
      vertex -6.9 5.4 16.8
    endloop
  endfacet
  facet normal 0 -1 0
    outer loop
      vertex -6.9 5.4 16.8
      vertex -1.5525 5.4 15.315
      vertex 6.9 5.4 16.8
    endloop
  endfacet
  facet normal 0 -1 0
    outer loop
      vertex 1.5525 5.4 15.315
      vertex 6.9 5.4 16.8
      vertex -1.5525 5.4 15.315
    endloop
  endfacet
  facet normal 0 -1 0
    outer loop
      vertex 5.3475 5.4 15.315
      vertex 6.9 5.4 16.8
      vertex 1.5525 5.4 15.315
    endloop
  endfacet
  facet normal 0 -1 0
    outer loop
      vertex 5.3475 5.4 11.685
      vertex 6.9 5.4 16.8
      vertex 5.3475 5.4 15.315
    endloop
  endfacet
  facet normal 0 -1 0
    outer loop
      vertex 5.3475 5.4 11.685
      vertex 6.9 5.4 9.45
      vertex 6.9 5.4 16.8
    endloop
  endfacet
  facet normal 0 -1 0
    outer loop
      vertex 1.5525 5.4 11.685
      vertex 6.9 5.4 9.45
      vertex 5.3475 5.4 11.685
    endloop
  endfacet
  facet normal 0 1 -0
    outer loop
      vertex 1.5525 -5.4 11.685
      vertex -1.5525 -5.4 15.315
      vertex 1.5525 -5.4 15.315
    endloop
  endfacet
  facet normal 0 1 0
    outer loop
      vertex -1.5525 -5.4 15.315
      vertex 1.5525 -5.4 11.685
      vertex -1.5525 -5.4 11.685
    endloop
  endfacet
  facet normal 0 1 0
    outer loop
      vertex 1.5525 -5.4 15.315
      vertex 6.9 -5.4 16.8
      vertex 5.3475 -5.4 15.315
    endloop
  endfacet
  facet normal 0 1 0
    outer loop
      vertex 6.9 -5.4 16.8
      vertex 5.3475 -5.4 11.685
      vertex 5.3475 -5.4 15.315
    endloop
  endfacet
  facet normal 0 1 0
    outer loop
      vertex 6.9 -5.4 9.45
      vertex 1.5525 -5.4 11.685
      vertex 5.3475 -5.4 11.685
    endloop
  endfacet
  facet normal 0 1 0
    outer loop
      vertex 1.5525 -5.4 11.685
      vertex 6.9 -5.4 9.45
      vertex -1.5525 -5.4 11.685
    endloop
  endfacet
  facet normal 0 1 0
    outer loop
      vertex -6.9 -5.4 9.45
      vertex -1.5525 -5.4 11.685
      vertex 6.9 -5.4 9.45
    endloop
  endfacet
  facet normal 0 1 -0
    outer loop
      vertex 6.9 -5.4 9.45
      vertex 5.3475 -5.4 11.685
      vertex 6.9 -5.4 16.8
    endloop
  endfacet
  facet normal 0 1 0
    outer loop
      vertex 6.9 -5.4 16.8
      vertex 1.5525 -5.4 15.315
      vertex -6.9 -5.4 16.8
    endloop
  endfacet
  facet normal 0 1 -0
    outer loop
      vertex -1.5525 -5.4 15.315
      vertex -6.9 -5.4 16.8
      vertex 1.5525 -5.4 15.315
    endloop
  endfacet
  facet normal 0 1 -0
    outer loop
      vertex -5.3475 -5.4 15.315
      vertex -6.9 -5.4 16.8
      vertex -1.5525 -5.4 15.315
    endloop
  endfacet
  facet normal 0 1 -0
    outer loop
      vertex -5.3475 -5.4 11.685
      vertex -6.9 -5.4 16.8
      vertex -5.3475 -5.4 15.315
    endloop
  endfacet
  facet normal 0 1 0
    outer loop
      vertex -5.3475 -5.4 11.685
      vertex -6.9 -5.4 9.45
      vertex -6.9 -5.4 16.8
    endloop
  endfacet
  facet normal 0 1 0
    outer loop
      vertex -1.5525 -5.4 11.685
      vertex -6.9 -5.4 9.45
      vertex -5.3475 -5.4 11.685
    endloop
  endfacet
  facet normal -1 0 0
    outer loop
      vertex 10.2 7.2 0.15
      vertex 10.2 5.58 2.475
      vertex 10.2 7.2 9.45
    endloop
  endfacet
  facet normal -1 0 0
    outer loop
      vertex 10.2 7.2 0.15
      vertex 10.2 1.62 2.475
      vertex 10.2 5.58 2.475
    endloop
  endfacet
  facet normal -1 0 0
    outer loop
      vertex 10.2 1.62 2.475
      vertex 10.2 -1.62 2.475
      vertex 10.2 1.62 7.425
    endloop
  endfacet
  facet normal -1 0 0
    outer loop
      vertex 10.2 7.2 0.15
      vertex 10.2 -1.62 2.475
      vertex 10.2 1.62 2.475
    endloop
  endfacet
  facet normal -1 0 0
    outer loop
      vertex 10.2 -7.2 0.15
      vertex 10.2 -1.62 2.475
      vertex 10.2 7.2 0.15
    endloop
  endfacet
  facet normal -1 0 0
    outer loop
      vertex 10.2 -7.2 9.45
      vertex 10.2 -5.58 2.475
      vertex 10.2 -7.2 0.15
    endloop
  endfacet
  facet normal -1 -0 0
    outer loop
      vertex 10.2 -1.62 2.475
      vertex 10.2 -7.2 0.15
      vertex 10.2 -5.58 2.475
    endloop
  endfacet
  facet normal -1 0 0
    outer loop
      vertex 10.2 5.58 7.425
      vertex 10.2 7.2 9.45
      vertex 10.2 5.58 2.475
    endloop
  endfacet
  facet normal -1 0 0
    outer loop
      vertex 10.2 1.62 7.425
      vertex 10.2 7.2 9.45
      vertex 10.2 5.58 7.425
    endloop
  endfacet
  facet normal -1 0 0
    outer loop
      vertex 10.2 -1.62 7.425
      vertex 10.2 1.62 7.425
      vertex 10.2 -1.62 2.475
    endloop
  endfacet
  facet normal -1 0 0
    outer loop
      vertex 10.2 -1.62 7.425
      vertex 10.2 7.2 9.45
      vertex 10.2 1.62 7.425
    endloop
  endfacet
  facet normal -1 0 0
    outer loop
      vertex 10.2 -7.2 9.45
      vertex 10.2 -1.62 7.425
      vertex 10.2 -5.58 7.425
    endloop
  endfacet
  facet normal -1 0 0
    outer loop
      vertex 10.2 -1.62 7.425
      vertex 10.2 -7.2 9.45
      vertex 10.2 7.2 9.45
    endloop
  endfacet
  facet normal -1 0 0
    outer loop
      vertex 10.2 -5.58 2.475
      vertex 10.2 -7.2 9.45
      vertex 10.2 -5.58 7.425
    endloop
  endfacet
  facet normal 0 0 1
    outer loop
      vertex 10.2 7.2 0.15
      vertex 9.975 6.975 0.15
      vertex 10.2 -7.2 0.15
    endloop
  endfacet
  facet normal 0 0 1
    outer loop
      vertex 10.2 7.2 0.15
      vertex -9.975 6.975 0.15
      vertex 9.975 6.975 0.15
    endloop
  endfacet
  facet normal 0 0 1
    outer loop
      vertex -9.975 6.975 0.15
      vertex -10.2 7.2 0.15
      vertex -9.975 -6.975 0.15
    endloop
  endfacet
  facet normal -0 0 1
    outer loop
      vertex -10.2 7.2 0.15
      vertex -9.975 6.975 0.15
      vertex 10.2 7.2 0.15
    endloop
  endfacet
  facet normal -0 0 1
    outer loop
      vertex 9.975 -6.975 0.15
      vertex 10.2 -7.2 0.15
      vertex 9.975 6.975 0.15
    endloop
  endfacet
  facet normal -0 0 1
    outer loop
      vertex -9.975 -6.975 0.15
      vertex 10.2 -7.2 0.15
      vertex 9.975 -6.975 0.15
    endloop
  endfacet
  facet normal 0 0 1
    outer loop
      vertex -9.975 -6.975 0.15
      vertex -10.2 -7.2 0.15
      vertex 10.2 -7.2 0.15
    endloop
  endfacet
  facet normal 0 0 1
    outer loop
      vertex -10.2 -7.2 0.15
      vertex -9.975 -6.975 0.15
      vertex -10.2 7.2 0.15
    endloop
  endfacet
  facet normal 1 0 0
    outer loop
      vertex -10.2 5.58 2.475
      vertex -10.2 7.2 9.45
      vertex -10.2 5.58 7.425
    endloop
  endfacet
  facet normal 1 0 0
    outer loop
      vertex -10.2 7.2 9.45
      vertex -10.2 1.62 7.425
      vertex -10.2 5.58 7.425
    endloop
  endfacet
  facet normal 1 0 0
    outer loop
      vertex -10.2 1.62 7.425
      vertex -10.2 -1.62 7.425
      vertex -10.2 1.62 2.475
    endloop
  endfacet
  facet normal 1 0 0
    outer loop
      vertex -10.2 7.2 9.45
      vertex -10.2 -1.62 7.425
      vertex -10.2 1.62 7.425
    endloop
  endfacet
  facet normal 1 -0 0
    outer loop
      vertex -10.2 -7.2 9.45
      vertex -10.2 -1.62 7.425
      vertex -10.2 7.2 9.45
    endloop
  endfacet
  facet normal 1 0 0
    outer loop
      vertex -10.2 -5.58 7.425
      vertex -10.2 -7.2 9.45
      vertex -10.2 -5.58 2.475
    endloop
  endfacet
  facet normal 1 0 0
    outer loop
      vertex -10.2 -1.62 7.425
      vertex -10.2 -7.2 9.45
      vertex -10.2 -5.58 7.425
    endloop
  endfacet
  facet normal 1 0 0
    outer loop
      vertex -10.2 7.2 9.45
      vertex -10.2 5.58 2.475
      vertex -10.2 7.2 0.15
    endloop
  endfacet
  facet normal 1 -0 0
    outer loop
      vertex -10.2 1.62 2.475
      vertex -10.2 7.2 0.15
      vertex -10.2 5.58 2.475
    endloop
  endfacet
  facet normal 1 0 0
    outer loop
      vertex -10.2 -1.62 2.475
      vertex -10.2 1.62 2.475
      vertex -10.2 -1.62 7.425
    endloop
  endfacet
  facet normal 1 -0 0
    outer loop
      vertex -10.2 -1.62 2.475
      vertex -10.2 7.2 0.15
      vertex -10.2 1.62 2.475
    endloop
  endfacet
  facet normal 1 0 0
    outer loop
      vertex -10.2 -7.2 0.15
      vertex -10.2 -1.62 2.475
      vertex -10.2 -5.58 2.475
    endloop
  endfacet
  facet normal 1 0 0
    outer loop
      vertex -10.2 -1.62 2.475
      vertex -10.2 -7.2 0.15
      vertex -10.2 7.2 0.15
    endloop
  endfacet
  facet normal 1 0 0
    outer loop
      vertex -10.2 -7.2 0.15
      vertex -10.2 -5.58 2.475
      vertex -10.2 -7.2 9.45
    endloop
  endfacet
  facet normal 0 -1 0
    outer loop
      vertex 1.87 7.2 2.475
      vertex 4.93 7.2 7.425
      vertex 1.87 7.2 7.425
    endloop
  endfacet
  facet normal 0 -1 -0
    outer loop
      vertex 4.93 7.2 7.425
      vertex 1.87 7.2 2.475
      vertex 4.93 7.2 2.475
    endloop
  endfacet
  facet normal 0 -1 0
    outer loop
      vertex -4.93 7.2 2.475
      vertex -1.87 7.2 7.425
      vertex -4.93 7.2 7.425
    endloop
  endfacet
  facet normal 0 -1 -0
    outer loop
      vertex -1.87 7.2 7.425
      vertex -4.93 7.2 2.475
      vertex -1.87 7.2 2.475
    endloop
  endfacet
  facet normal 0 -1 0
    outer loop
      vertex -4.93 7.2 7.425
      vertex -10.2 7.2 9.45
      vertex -8.67 7.2 7.425
    endloop
  endfacet
  facet normal 0 -1 0
    outer loop
      vertex -10.2 7.2 9.45
      vertex -8.67 7.2 2.475
      vertex -8.67 7.2 7.425
    endloop
  endfacet
  facet normal 0 -1 0
    outer loop
      vertex -10.2 7.2 0.15
      vertex -4.93 7.2 2.475
      vertex -8.67 7.2 2.475
    endloop
  endfacet
  facet normal 0 -1 -0
    outer loop
      vertex -4.93 7.2 2.475
      vertex -10.2 7.2 0.15
      vertex -1.87 7.2 2.475
    endloop
  endfacet
  facet normal 0 -1 -0
    outer loop
      vertex -1.87 7.2 2.475
      vertex -10.2 7.2 0.15
      vertex 1.87 7.2 2.475
    endloop
  endfacet
  facet normal 0 -1 0
    outer loop
      vertex 10.2 7.2 0.15
      vertex 1.87 7.2 2.475
      vertex -10.2 7.2 0.15
    endloop
  endfacet
  facet normal 0 -1 0
    outer loop
      vertex 1.87 7.2 2.475
      vertex 10.2 7.2 0.15
      vertex 4.93 7.2 2.475
    endloop
  endfacet
  facet normal 0 -1 0
    outer loop
      vertex -10.2 7.2 0.15
      vertex -8.67 7.2 2.475
      vertex -10.2 7.2 9.45
    endloop
  endfacet
  facet normal 0 -1 0
    outer loop
      vertex -1.87 7.2 7.425
      vertex -10.2 7.2 9.45
      vertex -4.93 7.2 7.425
    endloop
  endfacet
  facet normal 0 -1 0
    outer loop
      vertex -10.2 7.2 9.45
      vertex -1.87 7.2 7.425
      vertex 10.2 7.2 9.45
    endloop
  endfacet
  facet normal 0 -1 0
    outer loop
      vertex 1.87 7.2 7.425
      vertex 10.2 7.2 9.45
      vertex -1.87 7.2 7.425
    endloop
  endfacet
  facet normal 0 -1 0
    outer loop
      vertex 4.93 7.2 7.425
      vertex 10.2 7.2 9.45
      vertex 1.87 7.2 7.425
    endloop
  endfacet
  facet normal 0 -1 0
    outer loop
      vertex 8.67 7.2 7.425
      vertex 10.2 7.2 9.45
      vertex 4.93 7.2 7.425
    endloop
  endfacet
  facet normal 0 -1 0
    outer loop
      vertex 8.67 7.2 2.475
      vertex 10.2 7.2 9.45
      vertex 8.67 7.2 7.425
    endloop
  endfacet
  facet normal 0 -1 0
    outer loop
      vertex 8.67 7.2 2.475
      vertex 10.2 7.2 0.15
      vertex 10.2 7.2 9.45
    endloop
  endfacet
  facet normal 0 -1 0
    outer loop
      vertex 4.93 7.2 2.475
      vertex 10.2 7.2 0.15
      vertex 8.67 7.2 2.475
    endloop
  endfacet
  facet normal 0 1 -0
    outer loop
      vertex -1.87 -7.2 2.475
      vertex -4.93 -7.2 7.425
      vertex -1.87 -7.2 7.425
    endloop
  endfacet
  facet normal 0 1 0
    outer loop
      vertex -4.93 -7.2 7.425
      vertex -1.87 -7.2 2.475
      vertex -4.93 -7.2 2.475
    endloop
  endfacet
  facet normal 0 1 -0
    outer loop
      vertex 4.93 -7.2 2.475
      vertex 1.87 -7.2 7.425
      vertex 4.93 -7.2 7.425
    endloop
  endfacet
  facet normal 0 1 0
    outer loop
      vertex 1.87 -7.2 7.425
      vertex 4.93 -7.2 2.475
      vertex 1.87 -7.2 2.475
    endloop
  endfacet
  facet normal 0 1 0
    outer loop
      vertex 4.93 -7.2 7.425
      vertex 10.2 -7.2 9.45
      vertex 8.67 -7.2 7.425
    endloop
  endfacet
  facet normal 0 1 0
    outer loop
      vertex 10.2 -7.2 9.45
      vertex 8.67 -7.2 2.475
      vertex 8.67 -7.2 7.425
    endloop
  endfacet
  facet normal 0 1 0
    outer loop
      vertex 10.2 -7.2 0.15
      vertex 4.93 -7.2 2.475
      vertex 8.67 -7.2 2.475
    endloop
  endfacet
  facet normal 0 1 0
    outer loop
      vertex 4.93 -7.2 2.475
      vertex 10.2 -7.2 0.15
      vertex 1.87 -7.2 2.475
    endloop
  endfacet
  facet normal 0 1 0
    outer loop
      vertex 1.87 -7.2 2.475
      vertex 10.2 -7.2 0.15
      vertex -1.87 -7.2 2.475
    endloop
  endfacet
  facet normal 0 1 0
    outer loop
      vertex -10.2 -7.2 0.15
      vertex -1.87 -7.2 2.475
      vertex 10.2 -7.2 0.15
    endloop
  endfacet
  facet normal 0 1 0
    outer loop
      vertex -1.87 -7.2 2.475
      vertex -10.2 -7.2 0.15
      vertex -4.93 -7.2 2.475
    endloop
  endfacet
  facet normal 0 1 -0
    outer loop
      vertex 10.2 -7.2 0.15
      vertex 8.67 -7.2 2.475
      vertex 10.2 -7.2 9.45
    endloop
  endfacet
  facet normal 0 1 0
    outer loop
      vertex 1.87 -7.2 7.425
      vertex 10.2 -7.2 9.45
      vertex 4.93 -7.2 7.425
    endloop
  endfacet
  facet normal 0 1 0
    outer loop
      vertex 10.2 -7.2 9.45
      vertex 1.87 -7.2 7.425
      vertex -10.2 -7.2 9.45
    endloop
  endfacet
  facet normal 0 1 -0
    outer loop
      vertex -1.87 -7.2 7.425
      vertex -10.2 -7.2 9.45
      vertex 1.87 -7.2 7.425
    endloop
  endfacet
  facet normal 0 1 -0
    outer loop
      vertex -4.93 -7.2 7.425
      vertex -10.2 -7.2 9.45
      vertex -1.87 -7.2 7.425
    endloop
  endfacet
  facet normal 0 1 -0
    outer loop
      vertex -8.67 -7.2 7.425
      vertex -10.2 -7.2 9.45
      vertex -4.93 -7.2 7.425
    endloop
  endfacet
  facet normal 0 1 -0
    outer loop
      vertex -8.67 -7.2 2.475
      vertex -10.2 -7.2 9.45
      vertex -8.67 -7.2 7.425
    endloop
  endfacet
  facet normal 0 1 0
    outer loop
      vertex -8.67 -7.2 2.475
      vertex -10.2 -7.2 0.15
      vertex -10.2 -7.2 9.45
    endloop
  endfacet
  facet normal 0 1 0
    outer loop
      vertex -4.93 -7.2 2.475
      vertex -10.2 -7.2 0.15
      vertex -8.67 -7.2 2.475
    endloop
  endfacet
  facet normal -1 0 0
    outer loop
      vertex 9.975 -6.975 0
      vertex 9.975 6.975 0.15
      vertex 9.975 6.975 0
    endloop
  endfacet
  facet normal -1 -0 0
    outer loop
      vertex 9.975 6.975 0.15
      vertex 9.975 -6.975 0
      vertex 9.975 -6.975 0.15
    endloop
  endfacet
  facet normal 1 -0 0
    outer loop
      vertex -9.975 -6.975 0.15
      vertex -9.975 6.975 0
      vertex -9.975 6.975 0.15
    endloop
  endfacet
  facet normal 1 0 0
    outer loop
      vertex -9.975 6.975 0
      vertex -9.975 -6.975 0.15
      vertex -9.975 -6.975 0
    endloop
  endfacet
  facet normal 0 -1 0
    outer loop
      vertex -9.975 6.975 0
      vertex 9.975 6.975 0.15
      vertex -9.975 6.975 0.15
    endloop
  endfacet
  facet normal 0 -1 -0
    outer loop
      vertex 9.975 6.975 0.15
      vertex -9.975 6.975 0
      vertex 9.975 6.975 0
    endloop
  endfacet
  facet normal 0 1 -0
    outer loop
      vertex 9.975 -6.975 0
      vertex -9.975 -6.975 0.15
      vertex 9.975 -6.975 0.15
    endloop
  endfacet
  facet normal 0 1 0
    outer loop
      vertex -9.975 -6.975 0.15
      vertex 9.975 -6.975 0
      vertex -9.975 -6.975 0
    endloop
  endfacet
  facet normal -1 0 0
    outer loop
      vertex 2.31 3.9 18.63
      vertex 2.31 3.66 21.27
      vertex 2.31 3.9 21.27
    endloop
  endfacet
  facet normal -1 0 0
    outer loop
      vertex 2.31 3.3 18.63
      vertex 2.31 3.66 21.27
      vertex 2.31 3.9 18.63
    endloop
  endfacet
  facet normal -1 -0 0
    outer loop
      vertex 2.31 3.66 21.27
      vertex 2.31 3.3 18.63
      vertex 2.31 3.3 21.27
    endloop
  endfacet
  facet normal -1 0 0
    outer loop
      vertex 2.31 -3.3 18.63
      vertex 2.31 -3.66 21.27
      vertex 2.31 -3.3 21.27
    endloop
  endfacet
  facet normal -1 0 0
    outer loop
      vertex 2.31 -3.9 18.63
      vertex 2.31 -3.66 21.27
      vertex 2.31 -3.3 18.63
    endloop
  endfacet
  facet normal -1 -0 0
    outer loop
      vertex 2.31 -3.66 21.27
      vertex 2.31 -3.9 18.63
      vertex 2.31 -3.9 21.27
    endloop
  endfacet
  facet normal -0 0 1
    outer loop
      vertex -2.31 3.9 18.63
      vertex 2.31 3.3 18.63
      vertex 2.31 3.9 18.63
    endloop
  endfacet
  facet normal 0 0 1
    outer loop
      vertex 2.31 3.3 18.63
      vertex -2.31 3.9 18.63
      vertex -2.31 3.3 18.63
    endloop
  endfacet
  facet normal -0 0 1
    outer loop
      vertex -2.31 -3.3 18.63
      vertex 2.31 -3.9 18.63
      vertex 2.31 -3.3 18.63
    endloop
  endfacet
  facet normal 0 0 1
    outer loop
      vertex 2.31 -3.9 18.63
      vertex -2.31 -3.3 18.63
      vertex -2.31 -3.9 18.63
    endloop
  endfacet
  facet normal 0 0 -1
    outer loop
      vertex -2.31 3.3 21.27
      vertex 2.31 3.66 21.27
      vertex 2.31 3.3 21.27
    endloop
  endfacet
  facet normal -0 0 -1
    outer loop
      vertex 2.31 3.66 21.27
      vertex -2.31 3.3 21.27
      vertex -2.31 3.66 21.27
    endloop
  endfacet
  facet normal 0 0 -1
    outer loop
      vertex -2.31 -3.66 21.27
      vertex 2.31 -3.3 21.27
      vertex 2.31 -3.66 21.27
    endloop
  endfacet
  facet normal -0 0 -1
    outer loop
      vertex 2.31 -3.3 21.27
      vertex -2.31 -3.66 21.27
      vertex -2.31 -3.3 21.27
    endloop
  endfacet
  facet normal 1 -0 0
    outer loop
      vertex -2.31 3.66 21.27
      vertex -2.31 3.9 18.63
      vertex -2.31 3.9 21.27
    endloop
  endfacet
  facet normal 1 0 0
    outer loop
      vertex -2.31 3.3 18.63
      vertex -2.31 3.66 21.27
      vertex -2.31 3.3 21.27
    endloop
  endfacet
  facet normal 1 0 0
    outer loop
      vertex -2.31 3.66 21.27
      vertex -2.31 3.3 18.63
      vertex -2.31 3.9 18.63
    endloop
  endfacet
  facet normal 1 -0 0
    outer loop
      vertex -2.31 -3.66 21.27
      vertex -2.31 -3.3 18.63
      vertex -2.31 -3.3 21.27
    endloop
  endfacet
  facet normal 1 0 0
    outer loop
      vertex -2.31 -3.9 18.63
      vertex -2.31 -3.66 21.27
      vertex -2.31 -3.9 21.27
    endloop
  endfacet
  facet normal 1 0 0
    outer loop
      vertex -2.31 -3.66 21.27
      vertex -2.31 -3.9 18.63
      vertex -2.31 -3.3 18.63
    endloop
  endfacet
  facet normal -0 0 1
    outer loop
      vertex -4.8 1.815 18.63
      vertex -4.2 -1.815 18.63
      vertex -4.2 1.815 18.63
    endloop
  endfacet
  facet normal 0 0 1
    outer loop
      vertex -4.2 -1.815 18.63
      vertex -4.8 1.815 18.63
      vertex -4.8 -1.815 18.63
    endloop
  endfacet
  facet normal -0 0 1
    outer loop
      vertex 4.2 1.815 18.63
      vertex 4.8 -1.815 18.63
      vertex 4.8 1.815 18.63
    endloop
  endfacet
  facet normal 0 0 1
    outer loop
      vertex 4.8 -1.815 18.63
      vertex 4.2 1.815 18.63
      vertex 4.2 -1.815 18.63
    endloop
  endfacet
  facet normal 0 0 -1
    outer loop
      vertex -4.56 -1.815 21.27
      vertex -4.2 1.815 21.27
      vertex -4.2 -1.815 21.27
    endloop
  endfacet
  facet normal -0 0 -1
    outer loop
      vertex -4.2 1.815 21.27
      vertex -4.56 -1.815 21.27
      vertex -4.56 1.815 21.27
    endloop
  endfacet
  facet normal 0 0 -1
    outer loop
      vertex 4.2 -1.815 21.27
      vertex 4.56 1.815 21.27
      vertex 4.56 -1.815 21.27
    endloop
  endfacet
  facet normal -0 0 -1
    outer loop
      vertex 4.56 1.815 21.27
      vertex 4.2 -1.815 21.27
      vertex 4.2 1.815 21.27
    endloop
  endfacet
  facet normal 0 -1 0
    outer loop
      vertex -4.8 1.815 21.27
      vertex -4.8 1.815 18.63
      vertex -4.56 1.815 21.27
    endloop
  endfacet
  facet normal 0 -1 0
    outer loop
      vertex -4.2 1.815 18.63
      vertex -4.56 1.815 21.27
      vertex -4.8 1.815 18.63
    endloop
  endfacet
  facet normal 0 -1 0
    outer loop
      vertex -4.56 1.815 21.27
      vertex -4.2 1.815 18.63
      vertex -4.2 1.815 21.27
    endloop
  endfacet
  facet normal 0 -1 0
    outer loop
      vertex 4.2 1.815 18.63
      vertex 4.56 1.815 21.27
      vertex 4.2 1.815 21.27
    endloop
  endfacet
  facet normal 0 -1 0
    outer loop
      vertex 4.8 1.815 18.63
      vertex 4.56 1.815 21.27
      vertex 4.2 1.815 18.63
    endloop
  endfacet
  facet normal 0 -1 0
    outer loop
      vertex 4.56 1.815 21.27
      vertex 4.8 1.815 18.63
      vertex 4.8 1.815 21.27
    endloop
  endfacet
  facet normal 0 1 -0
    outer loop
      vertex -4.2 -1.815 18.63
      vertex -4.56 -1.815 21.27
      vertex -4.2 -1.815 21.27
    endloop
  endfacet
  facet normal 0 1 0
    outer loop
      vertex -4.8 -1.815 18.63
      vertex -4.56 -1.815 21.27
      vertex -4.2 -1.815 18.63
    endloop
  endfacet
  facet normal 0 1 0
    outer loop
      vertex -4.56 -1.815 21.27
      vertex -4.8 -1.815 18.63
      vertex -4.8 -1.815 21.27
    endloop
  endfacet
  facet normal 0 1 0
    outer loop
      vertex 4.8 -1.815 21.27
      vertex 4.8 -1.815 18.63
      vertex 4.56 -1.815 21.27
    endloop
  endfacet
  facet normal 0 1 0
    outer loop
      vertex 4.2 -1.815 18.63
      vertex 4.56 -1.815 21.27
      vertex 4.8 -1.815 18.63
    endloop
  endfacet
  facet normal 0 1 0
    outer loop
      vertex 4.56 -1.815 21.27
      vertex 4.2 -1.815 18.63
      vertex 4.2 -1.815 21.27
    endloop
  endfacet
  facet normal -0 0 1
    outer loop
      vertex -7.5 2.97 11.685
      vertex -6.9 -2.97 11.685
      vertex -6.9 2.97 11.685
    endloop
  endfacet
  facet normal 0 0 1
    outer loop
      vertex -6.9 -2.97 11.685
      vertex -7.5 2.97 11.685
      vertex -7.5 -2.97 11.685
    endloop
  endfacet
  facet normal -0 0 1
    outer loop
      vertex 6.9 2.97 11.685
      vertex 7.5 -2.97 11.685
      vertex 7.5 2.97 11.685
    endloop
  endfacet
  facet normal 0 0 1
    outer loop
      vertex 7.5 -2.97 11.685
      vertex 6.9 2.97 11.685
      vertex 6.9 -2.97 11.685
    endloop
  endfacet
  facet normal 0 0 -1
    outer loop
      vertex -7.26 -2.97 15.315
      vertex -6.9 2.97 15.315
      vertex -6.9 -2.97 15.315
    endloop
  endfacet
  facet normal -0 0 -1
    outer loop
      vertex -6.9 2.97 15.315
      vertex -7.26 -2.97 15.315
      vertex -7.26 2.97 15.315
    endloop
  endfacet
  facet normal 0 0 -1
    outer loop
      vertex 6.9 -2.97 15.315
      vertex 7.26 2.97 15.315
      vertex 7.26 -2.97 15.315
    endloop
  endfacet
  facet normal -0 0 -1
    outer loop
      vertex 7.26 2.97 15.315
      vertex 6.9 -2.97 15.315
      vertex 6.9 2.97 15.315
    endloop
  endfacet
  facet normal 0 -1 0
    outer loop
      vertex -7.5 2.97 11.685
      vertex -7.26 2.97 15.315
      vertex -7.5 2.97 15.315
    endloop
  endfacet
  facet normal 0 -1 0
    outer loop
      vertex -6.9 2.97 11.685
      vertex -7.26 2.97 15.315
      vertex -7.5 2.97 11.685
    endloop
  endfacet
  facet normal 0 -1 0
    outer loop
      vertex -7.26 2.97 15.315
      vertex -6.9 2.97 11.685
      vertex -6.9 2.97 15.315
    endloop
  endfacet
  facet normal 0 -1 0
    outer loop
      vertex 6.9 2.97 11.685
      vertex 7.26 2.97 15.315
      vertex 6.9 2.97 15.315
    endloop
  endfacet
  facet normal 0 -1 0
    outer loop
      vertex 7.5 2.97 11.685
      vertex 7.26 2.97 15.315
      vertex 6.9 2.97 11.685
    endloop
  endfacet
  facet normal 0 -1 0
    outer loop
      vertex 7.26 2.97 15.315
      vertex 7.5 2.97 11.685
      vertex 7.5 2.97 15.315
    endloop
  endfacet
  facet normal 0 1 -0
    outer loop
      vertex -6.9 -2.97 11.685
      vertex -7.26 -2.97 15.315
      vertex -6.9 -2.97 15.315
    endloop
  endfacet
  facet normal 0 1 0
    outer loop
      vertex -7.5 -2.97 11.685
      vertex -7.26 -2.97 15.315
      vertex -6.9 -2.97 11.685
    endloop
  endfacet
  facet normal 0 1 0
    outer loop
      vertex -7.26 -2.97 15.315
      vertex -7.5 -2.97 11.685
      vertex -7.5 -2.97 15.315
    endloop
  endfacet
  facet normal 0 1 -0
    outer loop
      vertex 7.5 -2.97 11.685
      vertex 7.26 -2.97 15.315
      vertex 7.5 -2.97 15.315
    endloop
  endfacet
  facet normal 0 1 0
    outer loop
      vertex 6.9 -2.97 11.685
      vertex 7.26 -2.97 15.315
      vertex 7.5 -2.97 11.685
    endloop
  endfacet
  facet normal 0 1 0
    outer loop
      vertex 7.26 -2.97 15.315
      vertex 6.9 -2.97 11.685
      vertex 6.9 -2.97 15.315
    endloop
  endfacet
  facet normal 0 0 -1
    outer loop
      vertex -2.31 -3.9 21.27
      vertex 2.31 -3.66 21.27
      vertex 2.31 -3.9 21.27
    endloop
  endfacet
  facet normal -0 0 -1
    outer loop
      vertex 2.31 -3.66 21.27
      vertex -2.31 -3.9 21.27
      vertex -2.31 -3.66 21.27
    endloop
  endfacet
  facet normal 0 0 -1
    outer loop
      vertex -2.31 3.66 21.27
      vertex 2.31 3.9 21.27
      vertex 2.31 3.66 21.27
    endloop
  endfacet
  facet normal -0 0 -1
    outer loop
      vertex 2.31 3.9 21.27
      vertex -2.31 3.66 21.27
      vertex -2.31 3.9 21.27
    endloop
  endfacet
  facet normal 0 0 -1
    outer loop
      vertex -4.8 -1.815 21.27
      vertex -4.56 1.815 21.27
      vertex -4.56 -1.815 21.27
    endloop
  endfacet
  facet normal -0 0 -1
    outer loop
      vertex -4.56 1.815 21.27
      vertex -4.8 -1.815 21.27
      vertex -4.8 1.815 21.27
    endloop
  endfacet
  facet normal 0 0 -1
    outer loop
      vertex 4.56 -1.815 21.27
      vertex 4.8 1.815 21.27
      vertex 4.8 -1.815 21.27
    endloop
  endfacet
  facet normal -0 0 -1
    outer loop
      vertex 4.8 1.815 21.27
      vertex 4.56 -1.815 21.27
      vertex 4.56 1.815 21.27
    endloop
  endfacet
  facet normal -1 0 0
    outer loop
      vertex -1.5525 -6 11.685
      vertex -1.5525 -5.76 15.315
      vertex -1.5525 -5.76 11.685
    endloop
  endfacet
  facet normal -1 -0 0
    outer loop
      vertex -1.5525 -5.76 15.315
      vertex -1.5525 -6 11.685
      vertex -1.5525 -6 15.315
    endloop
  endfacet
  facet normal 0 0 -1
    outer loop
      vertex -5.3475 -6 15.315
      vertex -1.5525 -5.76 15.315
      vertex -1.5525 -6 15.315
    endloop
  endfacet
  facet normal -0 0 -1
    outer loop
      vertex -1.5525 -5.76 15.315
      vertex -5.3475 -6 15.315
      vertex -5.3475 -5.76 15.315
    endloop
  endfacet
  facet normal 0 0 -1
    outer loop
      vertex 1.5525 -6 15.315
      vertex 5.3475 -5.76 15.315
      vertex 5.3475 -6 15.315
    endloop
  endfacet
  facet normal -0 0 -1
    outer loop
      vertex 5.3475 -5.76 15.315
      vertex 1.5525 -6 15.315
      vertex 1.5525 -5.76 15.315
    endloop
  endfacet
  facet normal 1 -0 0
    outer loop
      vertex 1.5525 -6 15.315
      vertex 1.5525 -5.76 11.685
      vertex 1.5525 -5.76 15.315
    endloop
  endfacet
  facet normal 1 0 0
    outer loop
      vertex 1.5525 -5.76 11.685
      vertex 1.5525 -6 15.315
      vertex 1.5525 -6 11.685
    endloop
  endfacet
  facet normal -1 0 0
    outer loop
      vertex -1.5525 5.76 11.685
      vertex -1.5525 6 15.315
      vertex -1.5525 6 11.685
    endloop
  endfacet
  facet normal -1 -0 0
    outer loop
      vertex -1.5525 6 15.315
      vertex -1.5525 5.76 11.685
      vertex -1.5525 5.76 15.315
    endloop
  endfacet
  facet normal 0 0 -1
    outer loop
      vertex -5.3475 5.76 15.315
      vertex -1.5525 6 15.315
      vertex -1.5525 5.76 15.315
    endloop
  endfacet
  facet normal -0 0 -1
    outer loop
      vertex -1.5525 6 15.315
      vertex -5.3475 5.76 15.315
      vertex -5.3475 6 15.315
    endloop
  endfacet
  facet normal 0 0 -1
    outer loop
      vertex 1.5525 5.76 15.315
      vertex 5.3475 6 15.315
      vertex 5.3475 5.76 15.315
    endloop
  endfacet
  facet normal -0 0 -1
    outer loop
      vertex 5.3475 6 15.315
      vertex 1.5525 5.76 15.315
      vertex 1.5525 6 15.315
    endloop
  endfacet
  facet normal 1 -0 0
    outer loop
      vertex 1.5525 5.76 15.315
      vertex 1.5525 6 11.685
      vertex 1.5525 6 15.315
    endloop
  endfacet
  facet normal 1 0 0
    outer loop
      vertex 1.5525 6 11.685
      vertex 1.5525 5.76 15.315
      vertex 1.5525 5.76 11.685
    endloop
  endfacet
  facet normal 0 0 -1
    outer loop
      vertex -7.5 -2.97 15.315
      vertex -7.26 2.97 15.315
      vertex -7.26 -2.97 15.315
    endloop
  endfacet
  facet normal -0 0 -1
    outer loop
      vertex -7.26 2.97 15.315
      vertex -7.5 -2.97 15.315
      vertex -7.5 2.97 15.315
    endloop
  endfacet
  facet normal 0 0 -1
    outer loop
      vertex 7.26 -2.97 15.315
      vertex 7.5 2.97 15.315
      vertex 7.5 -2.97 15.315
    endloop
  endfacet
  facet normal -0 0 -1
    outer loop
      vertex 7.5 2.97 15.315
      vertex 7.26 -2.97 15.315
      vertex 7.26 2.97 15.315
    endloop
  endfacet
  facet normal -1 0 0
    outer loop
      vertex -4.93 -7.8 2.475
      vertex -4.93 -7.56 7.425
      vertex -4.93 -7.56 2.475
    endloop
  endfacet
  facet normal -1 -0 0
    outer loop
      vertex -4.93 -7.56 7.425
      vertex -4.93 -7.8 2.475
      vertex -4.93 -7.8 7.425
    endloop
  endfacet
  facet normal 1 -0 0
    outer loop
      vertex -8.67 -7.8 7.425
      vertex -8.67 -7.56 2.475
      vertex -8.67 -7.56 7.425
    endloop
  endfacet
  facet normal 1 0 0
    outer loop
      vertex -8.67 -7.56 2.475
      vertex -8.67 -7.8 7.425
      vertex -8.67 -7.8 2.475
    endloop
  endfacet
  facet normal -1 0 0
    outer loop
      vertex 8.67 -7.8 2.475
      vertex 8.67 -7.56 7.425
      vertex 8.67 -7.56 2.475
    endloop
  endfacet
  facet normal -1 -0 0
    outer loop
      vertex 8.67 -7.56 7.425
      vertex 8.67 -7.8 2.475
      vertex 8.67 -7.8 7.425
    endloop
  endfacet
  facet normal 1 -0 0
    outer loop
      vertex 4.93 -7.8 7.425
      vertex 4.93 -7.56 2.475
      vertex 4.93 -7.56 7.425
    endloop
  endfacet
  facet normal 1 0 0
    outer loop
      vertex 4.93 -7.56 2.475
      vertex 4.93 -7.8 7.425
      vertex 4.93 -7.8 2.475
    endloop
  endfacet
  facet normal -1 0 0
    outer loop
      vertex -4.93 7.56 2.475
      vertex -4.93 7.8 7.425
      vertex -4.93 7.8 2.475
    endloop
  endfacet
  facet normal -1 -0 0
    outer loop
      vertex -4.93 7.8 7.425
      vertex -4.93 7.56 2.475
      vertex -4.93 7.56 7.425
    endloop
  endfacet
  facet normal 1 -0 0
    outer loop
      vertex -8.67 7.56 7.425
      vertex -8.67 7.8 2.475
      vertex -8.67 7.8 7.425
    endloop
  endfacet
  facet normal 1 0 0
    outer loop
      vertex -8.67 7.8 2.475
      vertex -8.67 7.56 7.425
      vertex -8.67 7.56 2.475
    endloop
  endfacet
  facet normal -1 0 0
    outer loop
      vertex 8.67 7.56 2.475
      vertex 8.67 7.8 7.425
      vertex 8.67 7.8 2.475
    endloop
  endfacet
  facet normal -1 -0 0
    outer loop
      vertex 8.67 7.8 7.425
      vertex 8.67 7.56 2.475
      vertex 8.67 7.56 7.425
    endloop
  endfacet
  facet normal 1 -0 0
    outer loop
      vertex 4.93 7.56 7.425
      vertex 4.93 7.8 2.475
      vertex 4.93 7.8 7.425
    endloop
  endfacet
  facet normal 1 0 0
    outer loop
      vertex 4.93 7.8 2.475
      vertex 4.93 7.56 7.425
      vertex 4.93 7.56 2.475
    endloop
  endfacet
  facet normal 0 -1 0
    outer loop
      vertex -10.8 -1.62 2.475
      vertex -10.56 -1.62 7.425
      vertex -10.8 -1.62 7.425
    endloop
  endfacet
  facet normal 0 -1 -0
    outer loop
      vertex -10.56 -1.62 7.425
      vertex -10.8 -1.62 2.475
      vertex -10.56 -1.62 2.475
    endloop
  endfacet
  facet normal 0 1 -0
    outer loop
      vertex -10.56 1.62 2.475
      vertex -10.8 1.62 7.425
      vertex -10.56 1.62 7.425
    endloop
  endfacet
  facet normal 0 1 0
    outer loop
      vertex -10.8 1.62 7.425
      vertex -10.56 1.62 2.475
      vertex -10.8 1.62 2.475
    endloop
  endfacet
  facet normal 0 -1 0
    outer loop
      vertex 10.56 -1.62 2.475
      vertex 10.8 -1.62 7.425
      vertex 10.56 -1.62 7.425
    endloop
  endfacet
  facet normal 0 -1 -0
    outer loop
      vertex 10.8 -1.62 7.425
      vertex 10.56 -1.62 2.475
      vertex 10.8 -1.62 2.475
    endloop
  endfacet
  facet normal 0 1 -0
    outer loop
      vertex 10.8 1.62 2.475
      vertex 10.56 1.62 7.425
      vertex 10.8 1.62 7.425
    endloop
  endfacet
  facet normal 0 1 0
    outer loop
      vertex 10.56 1.62 7.425
      vertex 10.8 1.62 2.475
      vertex 10.56 1.62 2.475
    endloop
  endfacet
endsolid OpenSCAD_Model
