solid OpenSCAD_Model
  facet normal 1 0 0
    outer loop
      vertex 16 13 72.5
      vertex 16 6.05 68.9
      vertex 16 13 56.505
    endloop
  endfacet
  facet normal 1 0 0
    outer loop
      vertex 16 13 72.5
      vertex 16 -6.05 68.9
      vertex 16 6.05 68.9
    endloop
  endfacet
  facet normal 1 0 0
    outer loop
      vertex 16 -6.05 68.9
      vertex 16 -13 72.5
      vertex 16 -6.05 60.1
    endloop
  endfacet
  facet normal 1 -0 0
    outer loop
      vertex 16 -13 72.5
      vertex 16 -6.05 68.9
      vertex 16 13 72.5
    endloop
  endfacet
  facet normal 1 -0 0
    outer loop
      vertex 16 6.05 60.1
      vertex 16 13 56.505
      vertex 16 6.05 68.9
    endloop
  endfacet
  facet normal 1 -0 0
    outer loop
      vertex 16 -6.05 60.1
      vertex 16 13 56.505
      vertex 16 6.05 60.1
    endloop
  endfacet
  facet normal 1 0 0
    outer loop
      vertex 16 -6.05 60.1
      vertex 16 -13 56.505
      vertex 16 13 56.505
    endloop
  endfacet
  facet normal 1 0 0
    outer loop
      vertex 16 -13 56.505
      vertex 16 -6.05 60.1
      vertex 16 -13 72.5
    endloop
  endfacet
  facet normal -0 0 1
    outer loop
      vertex -16 13 72.5
      vertex 16 -13 72.5
      vertex 16 13 72.5
    endloop
  endfacet
  facet normal 0 0 1
    outer loop
      vertex 16 -13 72.5
      vertex -16 13 72.5
      vertex -16 -13 72.5
    endloop
  endfacet
  facet normal -1 0 0
    outer loop
      vertex -16 13 56.505
      vertex -16 6.05 60.1
      vertex -16 13 72.5
    endloop
  endfacet
  facet normal -1 0 0
    outer loop
      vertex -16 13 56.505
      vertex -16 -6.05 60.1
      vertex -16 6.05 60.1
    endloop
  endfacet
  facet normal -1 -0 0
    outer loop
      vertex -16 -6.05 60.1
      vertex -16 -13 56.505
      vertex -16 -6.05 68.9
    endloop
  endfacet
  facet normal -1 0 0
    outer loop
      vertex -16 -13 56.505
      vertex -16 -6.05 60.1
      vertex -16 13 56.505
    endloop
  endfacet
  facet normal -1 0 0
    outer loop
      vertex -16 6.05 68.9
      vertex -16 13 72.5
      vertex -16 6.05 60.1
    endloop
  endfacet
  facet normal -1 0 0
    outer loop
      vertex -16 -6.05 68.9
      vertex -16 13 72.5
      vertex -16 6.05 68.9
    endloop
  endfacet
  facet normal -1 0 0
    outer loop
      vertex -16 -6.05 68.9
      vertex -16 -13 72.5
      vertex -16 13 72.5
    endloop
  endfacet
  facet normal -1 0 0
    outer loop
      vertex -16 -13 72.5
      vertex -16 -6.05 68.9
      vertex -16 -13 56.505
    endloop
  endfacet
  facet normal 0 1 0
    outer loop
      vertex 16 13 72.5
      vertex 7.7 13 68.9
      vertex -16 13 72.5
    endloop
  endfacet
  facet normal 0 1 0
    outer loop
      vertex 16 13 72.5
      vertex 7.7 13 60.1
      vertex 7.7 13 68.9
    endloop
  endfacet
  facet normal 0 1 0
    outer loop
      vertex 7.7 13 60.1
      vertex 16 13 56.505
      vertex -7.7 13 60.1
    endloop
  endfacet
  facet normal 0 1 -0
    outer loop
      vertex 16 13 56.505
      vertex 7.7 13 60.1
      vertex 16 13 72.5
    endloop
  endfacet
  facet normal 0 1 -0
    outer loop
      vertex -7.7 13 68.9
      vertex -16 13 72.5
      vertex 7.7 13 68.9
    endloop
  endfacet
  facet normal 0 1 -0
    outer loop
      vertex -7.7 13 60.1
      vertex -16 13 72.5
      vertex -7.7 13 68.9
    endloop
  endfacet
  facet normal 0 1 0
    outer loop
      vertex -7.7 13 60.1
      vertex -16 13 56.505
      vertex -16 13 72.5
    endloop
  endfacet
  facet normal 0 1 0
    outer loop
      vertex -16 13 56.505
      vertex -7.7 13 60.1
      vertex 16 13 56.505
    endloop
  endfacet
  facet normal 0 -1 0
    outer loop
      vertex -16 -13 72.5
      vertex -7.7 -13 68.9
      vertex 16 -13 72.5
    endloop
  endfacet
  facet normal 0 -1 0
    outer loop
      vertex -16 -13 72.5
      vertex -7.7 -13 60.1
      vertex -7.7 -13 68.9
    endloop
  endfacet
  facet normal 0 -1 -0
    outer loop
      vertex -7.7 -13 60.1
      vertex -16 -13 56.505
      vertex 7.7 -13 60.1
    endloop
  endfacet
  facet normal 0 -1 0
    outer loop
      vertex -16 -13 56.505
      vertex -7.7 -13 60.1
      vertex -16 -13 72.5
    endloop
  endfacet
  facet normal 0 -1 0
    outer loop
      vertex 7.7 -13 68.9
      vertex 16 -13 72.5
      vertex -7.7 -13 68.9
    endloop
  endfacet
  facet normal 0 -1 0
    outer loop
      vertex 7.7 -13 60.1
      vertex 16 -13 72.5
      vertex 7.7 -13 68.9
    endloop
  endfacet
  facet normal 0 -1 0
    outer loop
      vertex 7.7 -13 60.1
      vertex 16 -13 56.505
      vertex 16 -13 72.5
    endloop
  endfacet
  facet normal 0 -1 0
    outer loop
      vertex 16 -13 56.505
      vertex 7.7 -13 60.1
      vertex -16 -13 56.505
    endloop
  endfacet
  facet normal -1 0 0
    outer loop
      vertex 14 11 56.505
      vertex 14 6.05 60.1
      vertex 14 11 70.5
    endloop
  endfacet
  facet normal -1 0 0
    outer loop
      vertex 14 11 56.505
      vertex 14 -6.05 60.1
      vertex 14 6.05 60.1
    endloop
  endfacet
  facet normal -1 0 0
    outer loop
      vertex 14 -11 70.5
      vertex 14 -6.05 60.1
      vertex 14 -11 56.505
    endloop
  endfacet
  facet normal -1 0 0
    outer loop
      vertex 14 -11 56.505
      vertex 14 -6.05 60.1
      vertex 14 11 56.505
    endloop
  endfacet
  facet normal -1 0 0
    outer loop
      vertex 14 6.05 68.9
      vertex 14 11 70.5
      vertex 14 6.05 60.1
    endloop
  endfacet
  facet normal -1 0 0
    outer loop
      vertex 14 -6.05 68.9
      vertex 14 11 70.5
      vertex 14 6.05 68.9
    endloop
  endfacet
  facet normal -1 0 0
    outer loop
      vertex 14 -6.05 68.9
      vertex 14 -11 70.5
      vertex 14 11 70.5
    endloop
  endfacet
  facet normal -1 0 0
    outer loop
      vertex 14 -6.05 60.1
      vertex 14 -11 70.5
      vertex 14 -6.05 68.9
    endloop
  endfacet
  facet normal 1 0 0
    outer loop
      vertex -14 6.05 60.1
      vertex -14 11 70.5
      vertex -14 6.05 68.9
    endloop
  endfacet
  facet normal 1 0 0
    outer loop
      vertex -14 11 70.5
      vertex -14 -6.05 68.9
      vertex -14 6.05 68.9
    endloop
  endfacet
  facet normal 1 0 0
    outer loop
      vertex -14 -6.05 68.9
      vertex -14 -11 70.5
      vertex -14 -6.05 60.1
    endloop
  endfacet
  facet normal 1 -0 0
    outer loop
      vertex -14 -11 70.5
      vertex -14 -6.05 68.9
      vertex -14 11 70.5
    endloop
  endfacet
  facet normal 1 0 0
    outer loop
      vertex -14 11 70.5
      vertex -14 6.05 60.1
      vertex -14 11 56.505
    endloop
  endfacet
  facet normal 1 -0 0
    outer loop
      vertex -14 -6.05 60.1
      vertex -14 11 56.505
      vertex -14 6.05 60.1
    endloop
  endfacet
  facet normal 1 0 0
    outer loop
      vertex -14 -6.05 60.1
      vertex -14 -11 56.505
      vertex -14 11 56.505
    endloop
  endfacet
  facet normal 1 0 0
    outer loop
      vertex -14 -11 56.505
      vertex -14 -6.05 60.1
      vertex -14 -11 70.5
    endloop
  endfacet
  facet normal 0 -1 0
    outer loop
      vertex -14 11 70.5
      vertex -7.7 11 68.9
      vertex 14 11 70.5
    endloop
  endfacet
  facet normal 0 -1 0
    outer loop
      vertex -14 11 70.5
      vertex -7.7 11 60.1
      vertex -7.7 11 68.9
    endloop
  endfacet
  facet normal 0 -1 -0
    outer loop
      vertex -7.7 11 60.1
      vertex -14 11 56.505
      vertex 7.7 11 60.1
    endloop
  endfacet
  facet normal 0 -1 0
    outer loop
      vertex -14 11 56.505
      vertex -7.7 11 60.1
      vertex -14 11 70.5
    endloop
  endfacet
  facet normal 0 -1 0
    outer loop
      vertex 7.7 11 68.9
      vertex 14 11 70.5
      vertex -7.7 11 68.9
    endloop
  endfacet
  facet normal 0 -1 0
    outer loop
      vertex 7.7 11 60.1
      vertex 14 11 70.5
      vertex 7.7 11 68.9
    endloop
  endfacet
  facet normal 0 -1 0
    outer loop
      vertex 7.7 11 60.1
      vertex 14 11 56.505
      vertex 14 11 70.5
    endloop
  endfacet
  facet normal 0 -1 0
    outer loop
      vertex 14 11 56.505
      vertex 7.7 11 60.1
      vertex -14 11 56.505
    endloop
  endfacet
  facet normal 0 1 0
    outer loop
      vertex 14 -11 70.5
      vertex 7.7 -11 68.9
      vertex -14 -11 70.5
    endloop
  endfacet
  facet normal 0 1 0
    outer loop
      vertex 14 -11 70.5
      vertex 7.7 -11 60.1
      vertex 7.7 -11 68.9
    endloop
  endfacet
  facet normal 0 1 0
    outer loop
      vertex 7.7 -11 60.1
      vertex 14 -11 56.505
      vertex -7.7 -11 60.1
    endloop
  endfacet
  facet normal 0 1 -0
    outer loop
      vertex 14 -11 56.505
      vertex 7.7 -11 60.1
      vertex 14 -11 70.5
    endloop
  endfacet
  facet normal 0 1 -0
    outer loop
      vertex -7.7 -11 68.9
      vertex -14 -11 70.5
      vertex 7.7 -11 68.9
    endloop
  endfacet
  facet normal 0 1 -0
    outer loop
      vertex -7.7 -11 60.1
      vertex -14 -11 70.5
      vertex -7.7 -11 68.9
    endloop
  endfacet
  facet normal 0 1 0
    outer loop
      vertex -7.7 -11 60.1
      vertex -14 -11 56.505
      vertex -14 -11 70.5
    endloop
  endfacet
  facet normal 0 1 0
    outer loop
      vertex -14 -11 56.505
      vertex -7.7 -11 60.1
      vertex 14 -11 56.505
    endloop
  endfacet
  facet normal -1 0 0
    outer loop
      vertex 7.7 11 60.1
      vertex 7.7 13 68.9
      vertex 7.7 13 60.1
    endloop
  endfacet
  facet normal -1 -0 0
    outer loop
      vertex 7.7 13 68.9
      vertex 7.7 11 60.1
      vertex 7.7 11 68.9
    endloop
  endfacet
  facet normal -1 0 0
    outer loop
      vertex 7.7 -13 60.1
      vertex 7.7 -11 68.9
      vertex 7.7 -11 60.1
    endloop
  endfacet
  facet normal -1 -0 0
    outer loop
      vertex 7.7 -11 68.9
      vertex 7.7 -13 60.1
      vertex 7.7 -13 68.9
    endloop
  endfacet
  facet normal -0 0 1
    outer loop
      vertex -7.7 13 60.1
      vertex 7.7 11 60.1
      vertex 7.7 13 60.1
    endloop
  endfacet
  facet normal 0 0 1
    outer loop
      vertex 7.7 11 60.1
      vertex -7.7 13 60.1
      vertex -7.7 11 60.1
    endloop
  endfacet
  facet normal -0 0 1
    outer loop
      vertex -7.7 -11 60.1
      vertex 7.7 -13 60.1
      vertex 7.7 -11 60.1
    endloop
  endfacet
  facet normal 0 0 1
    outer loop
      vertex 7.7 -13 60.1
      vertex -7.7 -11 60.1
      vertex -7.7 -13 60.1
    endloop
  endfacet
  facet normal 0 0 -1
    outer loop
      vertex -7.7 11 68.9
      vertex 7.7 13 68.9
      vertex 7.7 11 68.9
    endloop
  endfacet
  facet normal -0 0 -1
    outer loop
      vertex 7.7 13 68.9
      vertex -7.7 11 68.9
      vertex -7.7 13 68.9
    endloop
  endfacet
  facet normal 0 0 -1
    outer loop
      vertex -7.7 -13 68.9
      vertex 7.7 -11 68.9
      vertex 7.7 -13 68.9
    endloop
  endfacet
  facet normal -0 0 -1
    outer loop
      vertex 7.7 -11 68.9
      vertex -7.7 -13 68.9
      vertex -7.7 -11 68.9
    endloop
  endfacet
  facet normal 1 -0 0
    outer loop
      vertex -7.7 11 68.9
      vertex -7.7 13 60.1
      vertex -7.7 13 68.9
    endloop
  endfacet
  facet normal 1 0 0
    outer loop
      vertex -7.7 13 60.1
      vertex -7.7 11 68.9
      vertex -7.7 11 60.1
    endloop
  endfacet
  facet normal 1 -0 0
    outer loop
      vertex -7.7 -13 68.9
      vertex -7.7 -11 60.1
      vertex -7.7 -11 68.9
    endloop
  endfacet
  facet normal 1 0 0
    outer loop
      vertex -7.7 -11 60.1
      vertex -7.7 -13 68.9
      vertex -7.7 -13 60.1
    endloop
  endfacet
  facet normal -0 0 1
    outer loop
      vertex -16 6.05 60.1
      vertex -14 -6.05 60.1
      vertex -14 6.05 60.1
    endloop
  endfacet
  facet normal 0 0 1
    outer loop
      vertex -14 -6.05 60.1
      vertex -16 6.05 60.1
      vertex -16 -6.05 60.1
    endloop
  endfacet
  facet normal -0 0 1
    outer loop
      vertex 14 6.05 60.1
      vertex 16 -6.05 60.1
      vertex 16 6.05 60.1
    endloop
  endfacet
  facet normal 0 0 1
    outer loop
      vertex 16 -6.05 60.1
      vertex 14 6.05 60.1
      vertex 14 -6.05 60.1
    endloop
  endfacet
  facet normal 0 0 -1
    outer loop
      vertex -16 -6.05 68.9
      vertex -14 6.05 68.9
      vertex -14 -6.05 68.9
    endloop
  endfacet
  facet normal -0 0 -1
    outer loop
      vertex -14 6.05 68.9
      vertex -16 -6.05 68.9
      vertex -16 6.05 68.9
    endloop
  endfacet
  facet normal 0 0 -1
    outer loop
      vertex 14 -6.05 68.9
      vertex 16 6.05 68.9
      vertex 16 -6.05 68.9
    endloop
  endfacet
  facet normal -0 0 -1
    outer loop
      vertex 16 6.05 68.9
      vertex 14 -6.05 68.9
      vertex 14 6.05 68.9
    endloop
  endfacet
  facet normal 0 -1 0
    outer loop
      vertex -16 6.05 60.1
      vertex -14 6.05 68.9
      vertex -16 6.05 68.9
    endloop
  endfacet
  facet normal 0 -1 -0
    outer loop
      vertex -14 6.05 68.9
      vertex -16 6.05 60.1
      vertex -14 6.05 60.1
    endloop
  endfacet
  facet normal 0 -1 0
    outer loop
      vertex 14 6.05 60.1
      vertex 16 6.05 68.9
      vertex 14 6.05 68.9
    endloop
  endfacet
  facet normal 0 -1 -0
    outer loop
      vertex 16 6.05 68.9
      vertex 14 6.05 60.1
      vertex 16 6.05 60.1
    endloop
  endfacet
  facet normal 0 1 -0
    outer loop
      vertex -14 -6.05 60.1
      vertex -16 -6.05 68.9
      vertex -14 -6.05 68.9
    endloop
  endfacet
  facet normal 0 1 0
    outer loop
      vertex -16 -6.05 68.9
      vertex -14 -6.05 60.1
      vertex -16 -6.05 60.1
    endloop
  endfacet
  facet normal 0 1 -0
    outer loop
      vertex 16 -6.05 60.1
      vertex 14 -6.05 68.9
      vertex 16 -6.05 68.9
    endloop
  endfacet
  facet normal 0 1 0
    outer loop
      vertex 14 -6.05 68.9
      vertex 16 -6.05 60.1
      vertex 14 -6.05 60.1
    endloop
  endfacet
  facet normal -1 0 0
    outer loop
      vertex -5.175 18 37.95
      vertex -5.175 19.2 50.05
      vertex -5.175 19.2 37.95
    endloop
  endfacet
  facet normal -1 -0 0
    outer loop
      vertex -5.175 19.2 50.05
      vertex -5.175 18 37.95
      vertex -5.175 18 50.05
    endloop
  endfacet
  facet normal -1 0 0
    outer loop
      vertex -5.175 -19.2 37.95
      vertex -5.175 -18 50.05
      vertex -5.175 -18 37.95
    endloop
  endfacet
  facet normal -1 -0 0
    outer loop
      vertex -5.175 -18 50.05
      vertex -5.175 -19.2 37.95
      vertex -5.175 -19.2 50.05
    endloop
  endfacet
  facet normal 0 0 1
    outer loop
      vertex -5.175 20 37.95
      vertex -17.825 20 37.95
      vertex -5.175 19.2 37.95
    endloop
  endfacet
  facet normal 0 0 1
    outer loop
      vertex -17.825 18 37.95
      vertex -5.175 19.2 37.95
      vertex -17.825 20 37.95
    endloop
  endfacet
  facet normal 0 0 1
    outer loop
      vertex -5.175 19.2 37.95
      vertex -17.825 18 37.95
      vertex -5.175 18 37.95
    endloop
  endfacet
  facet normal -0 0 1
    outer loop
      vertex -17.825 -18 37.95
      vertex -5.175 -19.2 37.95
      vertex -5.175 -18 37.95
    endloop
  endfacet
  facet normal 0 0 1
    outer loop
      vertex -17.825 -20 37.95
      vertex -5.175 -19.2 37.95
      vertex -17.825 -18 37.95
    endloop
  endfacet
  facet normal 0 0 1
    outer loop
      vertex -5.175 -19.2 37.95
      vertex -17.825 -20 37.95
      vertex -5.175 -20 37.95
    endloop
  endfacet
  facet normal 0 0 -1
    outer loop
      vertex -17.825 18 50.05
      vertex -5.175 19.2 50.05
      vertex -5.175 18 50.05
    endloop
  endfacet
  facet normal 0 0 -1
    outer loop
      vertex -17.825 20 50.05
      vertex -5.175 19.2 50.05
      vertex -17.825 18 50.05
    endloop
  endfacet
  facet normal 0 0 -1
    outer loop
      vertex -5.175 19.2 50.05
      vertex -17.825 20 50.05
      vertex -5.175 20 50.05
    endloop
  endfacet
  facet normal 0 0 -1
    outer loop
      vertex -5.175 -20 50.05
      vertex -17.825 -20 50.05
      vertex -5.175 -19.2 50.05
    endloop
  endfacet
  facet normal 0 0 -1
    outer loop
      vertex -17.825 -18 50.05
      vertex -5.175 -19.2 50.05
      vertex -17.825 -20 50.05
    endloop
  endfacet
  facet normal 0 0 -1
    outer loop
      vertex -5.175 -19.2 50.05
      vertex -17.825 -18 50.05
      vertex -5.175 -18 50.05
    endloop
  endfacet
  facet normal 1 -0 0
    outer loop
      vertex -17.825 18 50.05
      vertex -17.825 20 37.95
      vertex -17.825 20 50.05
    endloop
  endfacet
  facet normal 1 0 0
    outer loop
      vertex -17.825 20 37.95
      vertex -17.825 18 50.05
      vertex -17.825 18 37.95
    endloop
  endfacet
  facet normal 1 -0 0
    outer loop
      vertex -17.825 -20 50.05
      vertex -17.825 -18 37.95
      vertex -17.825 -18 50.05
    endloop
  endfacet
  facet normal 1 0 0
    outer loop
      vertex -17.825 -18 37.95
      vertex -17.825 -20 50.05
      vertex -17.825 -20 37.95
    endloop
  endfacet
  facet normal -1 0 0
    outer loop
      vertex 17.825 18 37.95
      vertex 17.825 20 50.05
      vertex 17.825 20 37.95
    endloop
  endfacet
  facet normal -1 -0 0
    outer loop
      vertex 17.825 20 50.05
      vertex 17.825 18 37.95
      vertex 17.825 18 50.05
    endloop
  endfacet
  facet normal -1 0 0
    outer loop
      vertex 17.825 -20 37.95
      vertex 17.825 -18 50.05
      vertex 17.825 -18 37.95
    endloop
  endfacet
  facet normal -1 -0 0
    outer loop
      vertex 17.825 -18 50.05
      vertex 17.825 -20 37.95
      vertex 17.825 -20 50.05
    endloop
  endfacet
  facet normal 0 0 1
    outer loop
      vertex 5.175 19.2 37.95
      vertex 17.825 20 37.95
      vertex 5.175 20 37.95
    endloop
  endfacet
  facet normal 0 0 1
    outer loop
      vertex 17.825 20 37.95
      vertex 5.175 19.2 37.95
      vertex 17.825 18 37.95
    endloop
  endfacet
  facet normal 0 0 1
    outer loop
      vertex 5.175 19.2 37.95
      vertex 5.175 18 37.95
      vertex 17.825 18 37.95
    endloop
  endfacet
  facet normal 0 0 1
    outer loop
      vertex 17.825 -18 37.95
      vertex 5.175 -19.2 37.95
      vertex 17.825 -20 37.95
    endloop
  endfacet
  facet normal -0 0 1
    outer loop
      vertex 5.175 -18 37.95
      vertex 5.175 -19.2 37.95
      vertex 17.825 -18 37.95
    endloop
  endfacet
  facet normal 0 0 1
    outer loop
      vertex 17.825 -20 37.95
      vertex 5.175 -19.2 37.95
      vertex 5.175 -20 37.95
    endloop
  endfacet
  facet normal 0 0 -1
    outer loop
      vertex 17.825 18 50.05
      vertex 5.175 19.2 50.05
      vertex 17.825 20 50.05
    endloop
  endfacet
  facet normal 0 0 -1
    outer loop
      vertex 5.175 18 50.05
      vertex 5.175 19.2 50.05
      vertex 17.825 18 50.05
    endloop
  endfacet
  facet normal -0 0 -1
    outer loop
      vertex 17.825 20 50.05
      vertex 5.175 19.2 50.05
      vertex 5.175 20 50.05
    endloop
  endfacet
  facet normal 0 0 -1
    outer loop
      vertex 5.175 -19.2 50.05
      vertex 17.825 -20 50.05
      vertex 5.175 -20 50.05
    endloop
  endfacet
  facet normal 0 0 -1
    outer loop
      vertex 17.825 -20 50.05
      vertex 5.175 -19.2 50.05
      vertex 17.825 -18 50.05
    endloop
  endfacet
  facet normal 0 0 -1
    outer loop
      vertex 5.175 -19.2 50.05
      vertex 5.175 -18 50.05
      vertex 17.825 -18 50.05
    endloop
  endfacet
  facet normal 1 -0 0
    outer loop
      vertex 5.175 18 50.05
      vertex 5.175 19.2 37.95
      vertex 5.175 19.2 50.05
    endloop
  endfacet
  facet normal 1 0 0
    outer loop
      vertex 5.175 19.2 37.95
      vertex 5.175 18 50.05
      vertex 5.175 18 37.95
    endloop
  endfacet
  facet normal 1 -0 0
    outer loop
      vertex 5.175 -19.2 50.05
      vertex 5.175 -18 37.95
      vertex 5.175 -18 50.05
    endloop
  endfacet
  facet normal 1 0 0
    outer loop
      vertex 5.175 -18 37.95
      vertex 5.175 -19.2 50.05
      vertex 5.175 -19.2 37.95
    endloop
  endfacet
  facet normal 1 0 0
    outer loop
      vertex 25 20 55.005
      vertex 25 9.9 50.05
      vertex 25 20 33.005
    endloop
  endfacet
  facet normal 1 0 0
    outer loop
      vertex 25 20 55.005
      vertex 25 -9.9 50.05
      vertex 25 9.9 50.05
    endloop
  endfacet
  facet normal 1 0 0
    outer loop
      vertex 25 -9.9 50.05
      vertex 25 -20 55.005
      vertex 25 -9.9 37.95
    endloop
  endfacet
  facet normal 1 -0 0
    outer loop
      vertex 25 -20 55.005
      vertex 25 -9.9 50.05
      vertex 25 20 55.005
    endloop
  endfacet
  facet normal 1 -0 0
    outer loop
      vertex 25 9.9 37.95
      vertex 25 20 33.005
      vertex 25 9.9 50.05
    endloop
  endfacet
  facet normal 1 -0 0
    outer loop
      vertex 25 -9.9 37.95
      vertex 25 20 33.005
      vertex 25 9.9 37.95
    endloop
  endfacet
  facet normal 1 0 0
    outer loop
      vertex 25 -9.9 37.95
      vertex 25 -20 33.005
      vertex 25 20 33.005
    endloop
  endfacet
  facet normal 1 0 0
    outer loop
      vertex 25 -20 33.005
      vertex 25 -9.9 37.95
      vertex 25 -20 55.005
    endloop
  endfacet
  facet normal -1 0 0
    outer loop
      vertex -25 20 33.005
      vertex -25 9.9 37.95
      vertex -25 20 55.005
    endloop
  endfacet
  facet normal -1 0 0
    outer loop
      vertex -25 20 33.005
      vertex -25 -9.9 37.95
      vertex -25 9.9 37.95
    endloop
  endfacet
  facet normal -1 -0 0
    outer loop
      vertex -25 -9.9 37.95
      vertex -25 -20 33.005
      vertex -25 -9.9 50.05
    endloop
  endfacet
  facet normal -1 0 0
    outer loop
      vertex -25 -20 33.005
      vertex -25 -9.9 37.95
      vertex -25 20 33.005
    endloop
  endfacet
  facet normal -1 0 0
    outer loop
      vertex -25 9.9 50.05
      vertex -25 20 55.005
      vertex -25 9.9 37.95
    endloop
  endfacet
  facet normal -1 0 0
    outer loop
      vertex -25 -9.9 50.05
      vertex -25 20 55.005
      vertex -25 9.9 50.05
    endloop
  endfacet
  facet normal -1 0 0
    outer loop
      vertex -25 -9.9 50.05
      vertex -25 -20 55.005
      vertex -25 20 55.005
    endloop
  endfacet
  facet normal -1 0 0
    outer loop
      vertex -25 -20 55.005
      vertex -25 -9.9 50.05
      vertex -25 -20 33.005
    endloop
  endfacet
  facet normal 0 1 -0
    outer loop
      vertex 5.175 20 37.95
      vertex -5.175 20 50.05
      vertex 5.175 20 50.05
    endloop
  endfacet
  facet normal 0 1 0
    outer loop
      vertex -5.175 20 50.05
      vertex 5.175 20 37.95
      vertex -5.175 20 37.95
    endloop
  endfacet
  facet normal 0 1 0
    outer loop
      vertex 5.175 20 50.05
      vertex 25 20 55.005
      vertex 17.825 20 50.05
    endloop
  endfacet
  facet normal 0 1 0
    outer loop
      vertex 25 20 55.005
      vertex 17.825 20 37.95
      vertex 17.825 20 50.05
    endloop
  endfacet
  facet normal 0 1 0
    outer loop
      vertex 25 20 33.005
      vertex 5.175 20 37.95
      vertex 17.825 20 37.95
    endloop
  endfacet
  facet normal 0 1 0
    outer loop
      vertex 5.175 20 37.95
      vertex 25 20 33.005
      vertex -5.175 20 37.95
    endloop
  endfacet
  facet normal 0 1 0
    outer loop
      vertex -25 20 33.005
      vertex -5.175 20 37.95
      vertex 25 20 33.005
    endloop
  endfacet
  facet normal 0 1 -0
    outer loop
      vertex 25 20 33.005
      vertex 17.825 20 37.95
      vertex 25 20 55.005
    endloop
  endfacet
  facet normal 0 1 0
    outer loop
      vertex 25 20 55.005
      vertex 5.175 20 50.05
      vertex -25 20 55.005
    endloop
  endfacet
  facet normal 0 1 -0
    outer loop
      vertex -5.175 20 50.05
      vertex -25 20 55.005
      vertex 5.175 20 50.05
    endloop
  endfacet
  facet normal 0 1 -0
    outer loop
      vertex -17.825 20 50.05
      vertex -25 20 55.005
      vertex -5.175 20 50.05
    endloop
  endfacet
  facet normal 0 1 -0
    outer loop
      vertex -17.825 20 37.95
      vertex -25 20 55.005
      vertex -17.825 20 50.05
    endloop
  endfacet
  facet normal 0 1 0
    outer loop
      vertex -17.825 20 37.95
      vertex -25 20 33.005
      vertex -25 20 55.005
    endloop
  endfacet
  facet normal 0 1 0
    outer loop
      vertex -5.175 20 37.95
      vertex -25 20 33.005
      vertex -17.825 20 37.95
    endloop
  endfacet
  facet normal 0 -1 0
    outer loop
      vertex -5.175 -20 37.95
      vertex 5.175 -20 50.05
      vertex -5.175 -20 50.05
    endloop
  endfacet
  facet normal 0 -1 -0
    outer loop
      vertex 5.175 -20 50.05
      vertex -5.175 -20 37.95
      vertex 5.175 -20 37.95
    endloop
  endfacet
  facet normal 0 -1 0
    outer loop
      vertex -5.175 -20 50.05
      vertex -25 -20 55.005
      vertex -17.825 -20 50.05
    endloop
  endfacet
  facet normal 0 -1 0
    outer loop
      vertex -25 -20 55.005
      vertex -17.825 -20 37.95
      vertex -17.825 -20 50.05
    endloop
  endfacet
  facet normal 0 -1 0
    outer loop
      vertex -25 -20 33.005
      vertex -5.175 -20 37.95
      vertex -17.825 -20 37.95
    endloop
  endfacet
  facet normal 0 -1 -0
    outer loop
      vertex -5.175 -20 37.95
      vertex -25 -20 33.005
      vertex 5.175 -20 37.95
    endloop
  endfacet
  facet normal 0 -1 0
    outer loop
      vertex 25 -20 33.005
      vertex 5.175 -20 37.95
      vertex -25 -20 33.005
    endloop
  endfacet
  facet normal 0 -1 0
    outer loop
      vertex -25 -20 33.005
      vertex -17.825 -20 37.95
      vertex -25 -20 55.005
    endloop
  endfacet
  facet normal 0 -1 0
    outer loop
      vertex -25 -20 55.005
      vertex -5.175 -20 50.05
      vertex 25 -20 55.005
    endloop
  endfacet
  facet normal 0 -1 0
    outer loop
      vertex 5.175 -20 50.05
      vertex 25 -20 55.005
      vertex -5.175 -20 50.05
    endloop
  endfacet
  facet normal 0 -1 0
    outer loop
      vertex 17.825 -20 50.05
      vertex 25 -20 55.005
      vertex 5.175 -20 50.05
    endloop
  endfacet
  facet normal 0 -1 0
    outer loop
      vertex 17.825 -20 37.95
      vertex 25 -20 55.005
      vertex 17.825 -20 50.05
    endloop
  endfacet
  facet normal 0 -1 0
    outer loop
      vertex 17.825 -20 37.95
      vertex 25 -20 33.005
      vertex 25 -20 55.005
    endloop
  endfacet
  facet normal 0 -1 0
    outer loop
      vertex 5.175 -20 37.95
      vertex 25 -20 33.005
      vertex 17.825 -20 37.95
    endloop
  endfacet
  facet normal -1 0 0
    outer loop
      vertex 23 18 33.005
      vertex 23 9.9 37.95
      vertex 23 18 54.995
    endloop
  endfacet
  facet normal -1 0 0
    outer loop
      vertex 23 18 33.005
      vertex 23 -9.9 37.95
      vertex 23 9.9 37.95
    endloop
  endfacet
  facet normal -1 -0 0
    outer loop
      vertex 23 -9.9 37.95
      vertex 23 -18 33.005
      vertex 23 -9.9 50.05
    endloop
  endfacet
  facet normal -1 0 0
    outer loop
      vertex 23 -18 33.005
      vertex 23 -9.9 37.95
      vertex 23 18 33.005
    endloop
  endfacet
  facet normal -1 0 0
    outer loop
      vertex 23 9.9 50.05
      vertex 23 18 54.995
      vertex 23 9.9 37.95
    endloop
  endfacet
  facet normal -1 0 0
    outer loop
      vertex 23 -9.9 50.05
      vertex 23 18 54.995
      vertex 23 9.9 50.05
    endloop
  endfacet
  facet normal -1 0 0
    outer loop
      vertex 23 -9.9 50.05
      vertex 23 -18 54.995
      vertex 23 18 54.995
    endloop
  endfacet
  facet normal -1 0 0
    outer loop
      vertex 23 -18 54.995
      vertex 23 -9.9 50.05
      vertex 23 -18 33.005
    endloop
  endfacet
  facet normal 1 0 0
    outer loop
      vertex -23 18 54.995
      vertex -23 9.9 50.05
      vertex -23 18 33.005
    endloop
  endfacet
  facet normal 1 0 0
    outer loop
      vertex -23 18 54.995
      vertex -23 -9.9 50.05
      vertex -23 9.9 50.05
    endloop
  endfacet
  facet normal 1 0 0
    outer loop
      vertex -23 -9.9 50.05
      vertex -23 -18 54.995
      vertex -23 -9.9 37.95
    endloop
  endfacet
  facet normal 1 -0 0
    outer loop
      vertex -23 -18 54.995
      vertex -23 -9.9 50.05
      vertex -23 18 54.995
    endloop
  endfacet
  facet normal 1 -0 0
    outer loop
      vertex -23 9.9 37.95
      vertex -23 18 33.005
      vertex -23 9.9 50.05
    endloop
  endfacet
  facet normal 1 -0 0
    outer loop
      vertex -23 -9.9 37.95
      vertex -23 18 33.005
      vertex -23 9.9 37.95
    endloop
  endfacet
  facet normal 1 0 0
    outer loop
      vertex -23 -9.9 37.95
      vertex -23 -18 33.005
      vertex -23 18 33.005
    endloop
  endfacet
  facet normal 1 0 0
    outer loop
      vertex -23 -18 33.005
      vertex -23 -9.9 37.95
      vertex -23 -18 54.995
    endloop
  endfacet
  facet normal 0 -1 0
    outer loop
      vertex -5.175 18 37.95
      vertex 5.175 18 50.05
      vertex -5.175 18 50.05
    endloop
  endfacet
  facet normal 0 -1 -0
    outer loop
      vertex 5.175 18 50.05
      vertex -5.175 18 37.95
      vertex 5.175 18 37.95
    endloop
  endfacet
  facet normal 0 -1 0
    outer loop
      vertex -5.175 18 50.05
      vertex -23 18 54.995
      vertex -17.825 18 50.05
    endloop
  endfacet
  facet normal 0 -1 0
    outer loop
      vertex -23 18 54.995
      vertex -17.825 18 37.95
      vertex -17.825 18 50.05
    endloop
  endfacet
  facet normal 0 -1 0
    outer loop
      vertex -23 18 33.005
      vertex -5.175 18 37.95
      vertex -17.825 18 37.95
    endloop
  endfacet
  facet normal 0 -1 -0
    outer loop
      vertex -5.175 18 37.95
      vertex -23 18 33.005
      vertex 5.175 18 37.95
    endloop
  endfacet
  facet normal 0 -1 0
    outer loop
      vertex 23 18 33.005
      vertex 5.175 18 37.95
      vertex -23 18 33.005
    endloop
  endfacet
  facet normal 0 -1 0
    outer loop
      vertex -23 18 33.005
      vertex -17.825 18 37.95
      vertex -23 18 54.995
    endloop
  endfacet
  facet normal 0 -1 0
    outer loop
      vertex -23 18 54.995
      vertex -5.175 18 50.05
      vertex 23 18 54.995
    endloop
  endfacet
  facet normal 0 -1 0
    outer loop
      vertex 5.175 18 50.05
      vertex 23 18 54.995
      vertex -5.175 18 50.05
    endloop
  endfacet
  facet normal 0 -1 0
    outer loop
      vertex 17.825 18 50.05
      vertex 23 18 54.995
      vertex 5.175 18 50.05
    endloop
  endfacet
  facet normal 0 -1 0
    outer loop
      vertex 17.825 18 37.95
      vertex 23 18 54.995
      vertex 17.825 18 50.05
    endloop
  endfacet
  facet normal 0 -1 0
    outer loop
      vertex 17.825 18 37.95
      vertex 23 18 33.005
      vertex 23 18 54.995
    endloop
  endfacet
  facet normal 0 -1 0
    outer loop
      vertex 5.175 18 37.95
      vertex 23 18 33.005
      vertex 17.825 18 37.95
    endloop
  endfacet
  facet normal 0 1 -0
    outer loop
      vertex 5.175 -18 37.95
      vertex -5.175 -18 50.05
      vertex 5.175 -18 50.05
    endloop
  endfacet
  facet normal 0 1 0
    outer loop
      vertex -5.175 -18 50.05
      vertex 5.175 -18 37.95
      vertex -5.175 -18 37.95
    endloop
  endfacet
  facet normal 0 1 0
    outer loop
      vertex 5.175 -18 50.05
      vertex 23 -18 54.995
      vertex 17.825 -18 50.05
    endloop
  endfacet
  facet normal 0 1 0
    outer loop
      vertex 23 -18 54.995
      vertex 17.825 -18 37.95
      vertex 17.825 -18 50.05
    endloop
  endfacet
  facet normal 0 1 0
    outer loop
      vertex 23 -18 33.005
      vertex 5.175 -18 37.95
      vertex 17.825 -18 37.95
    endloop
  endfacet
  facet normal 0 1 0
    outer loop
      vertex 5.175 -18 37.95
      vertex 23 -18 33.005
      vertex -5.175 -18 37.95
    endloop
  endfacet
  facet normal 0 1 0
    outer loop
      vertex -23 -18 33.005
      vertex -5.175 -18 37.95
      vertex 23 -18 33.005
    endloop
  endfacet
  facet normal 0 1 -0
    outer loop
      vertex 23 -18 33.005
      vertex 17.825 -18 37.95
      vertex 23 -18 54.995
    endloop
  endfacet
  facet normal 0 1 0
    outer loop
      vertex 23 -18 54.995
      vertex 5.175 -18 50.05
      vertex -23 -18 54.995
    endloop
  endfacet
  facet normal 0 1 -0
    outer loop
      vertex -5.175 -18 50.05
      vertex -23 -18 54.995
      vertex 5.175 -18 50.05
    endloop
  endfacet
  facet normal 0 1 -0
    outer loop
      vertex -17.825 -18 50.05
      vertex -23 -18 54.995
      vertex -5.175 -18 50.05
    endloop
  endfacet
  facet normal 0 1 -0
    outer loop
      vertex -17.825 -18 37.95
      vertex -23 -18 54.995
      vertex -17.825 -18 50.05
    endloop
  endfacet
  facet normal 0 1 0
    outer loop
      vertex -17.825 -18 37.95
      vertex -23 -18 33.005
      vertex -23 -18 54.995
    endloop
  endfacet
  facet normal 0 1 0
    outer loop
      vertex -5.175 -18 37.95
      vertex -23 -18 33.005
      vertex -17.825 -18 37.95
    endloop
  endfacet
  facet normal -0 0 1
    outer loop
      vertex -25 9.9 37.95
      vertex -23 -9.9 37.95
      vertex -23 9.9 37.95
    endloop
  endfacet
  facet normal 0 0 1
    outer loop
      vertex -23 -9.9 37.95
      vertex -25 9.9 37.95
      vertex -25 -9.9 37.95
    endloop
  endfacet
  facet normal -0 0 1
    outer loop
      vertex 23 9.9 37.95
      vertex 25 -9.9 37.95
      vertex 25 9.9 37.95
    endloop
  endfacet
  facet normal 0 0 1
    outer loop
      vertex 25 -9.9 37.95
      vertex 23 9.9 37.95
      vertex 23 -9.9 37.95
    endloop
  endfacet
  facet normal 0 0 -1
    outer loop
      vertex -25 -9.9 50.05
      vertex -23 9.9 50.05
      vertex -23 -9.9 50.05
    endloop
  endfacet
  facet normal -0 0 -1
    outer loop
      vertex -23 9.9 50.05
      vertex -25 -9.9 50.05
      vertex -25 9.9 50.05
    endloop
  endfacet
  facet normal 0 0 -1
    outer loop
      vertex 23 -9.9 50.05
      vertex 25 9.9 50.05
      vertex 25 -9.9 50.05
    endloop
  endfacet
  facet normal -0 0 -1
    outer loop
      vertex 25 9.9 50.05
      vertex 23 -9.9 50.05
      vertex 23 9.9 50.05
    endloop
  endfacet
  facet normal 0 -1 0
    outer loop
      vertex -25 9.9 37.95
      vertex -23 9.9 50.05
      vertex -25 9.9 50.05
    endloop
  endfacet
  facet normal 0 -1 -0
    outer loop
      vertex -23 9.9 50.05
      vertex -25 9.9 37.95
      vertex -23 9.9 37.95
    endloop
  endfacet
  facet normal 0 -1 0
    outer loop
      vertex 23 9.9 37.95
      vertex 25 9.9 50.05
      vertex 23 9.9 50.05
    endloop
  endfacet
  facet normal 0 -1 -0
    outer loop
      vertex 25 9.9 50.05
      vertex 23 9.9 37.95
      vertex 25 9.9 37.95
    endloop
  endfacet
  facet normal 0 1 -0
    outer loop
      vertex -23 -9.9 37.95
      vertex -25 -9.9 50.05
      vertex -23 -9.9 50.05
    endloop
  endfacet
  facet normal 0 1 0
    outer loop
      vertex -25 -9.9 50.05
      vertex -23 -9.9 37.95
      vertex -25 -9.9 37.95
    endloop
  endfacet
  facet normal 0 1 -0
    outer loop
      vertex 25 -9.9 37.95
      vertex 23 -9.9 50.05
      vertex 25 -9.9 50.05
    endloop
  endfacet
  facet normal 0 1 0
    outer loop
      vertex 23 -9.9 50.05
      vertex 25 -9.9 37.95
      vertex 23 -9.9 37.95
    endloop
  endfacet
  facet normal -1 0 0
    outer loop
      vertex -5.175 -20 37.95
      vertex -5.175 -19.2 50.05
      vertex -5.175 -19.2 37.95
    endloop
  endfacet
  facet normal -1 -0 0
    outer loop
      vertex -5.175 -19.2 50.05
      vertex -5.175 -20 37.95
      vertex -5.175 -20 50.05
    endloop
  endfacet
  facet normal 1 -0 0
    outer loop
      vertex 5.175 -20 50.05
      vertex 5.175 -19.2 37.95
      vertex 5.175 -19.2 50.05
    endloop
  endfacet
  facet normal 1 0 0
    outer loop
      vertex 5.175 -19.2 37.95
      vertex 5.175 -20 50.05
      vertex 5.175 -20 37.95
    endloop
  endfacet
  facet normal -1 0 0
    outer loop
      vertex -5.175 19.2 37.95
      vertex -5.175 20 50.05
      vertex -5.175 20 37.95
    endloop
  endfacet
  facet normal -1 -0 0
    outer loop
      vertex -5.175 20 50.05
      vertex -5.175 19.2 37.95
      vertex -5.175 19.2 50.05
    endloop
  endfacet
  facet normal 1 -0 0
    outer loop
      vertex 5.175 19.2 50.05
      vertex 5.175 20 37.95
      vertex 5.175 20 50.05
    endloop
  endfacet
  facet normal 1 0 0
    outer loop
      vertex 5.175 20 37.95
      vertex 5.175 19.2 50.05
      vertex 5.175 19.2 37.95
    endloop
  endfacet
  facet normal -1 0 0
    outer loop
      vertex -16.4333 24 8.25
      vertex -16.4333 25.2 24.75
      vertex -16.4333 25.2 8.25
    endloop
  endfacet
  facet normal -1 -0 0
    outer loop
      vertex -16.4333 25.2 24.75
      vertex -16.4333 24 8.25
      vertex -16.4333 24 24.75
    endloop
  endfacet
  facet normal -1 0 0
    outer loop
      vertex -16.4333 -25.2 8.25
      vertex -16.4333 -24 24.75
      vertex -16.4333 -24 8.25
    endloop
  endfacet
  facet normal -1 -0 0
    outer loop
      vertex -16.4333 -24 24.75
      vertex -16.4333 -25.2 8.25
      vertex -16.4333 -25.2 24.75
    endloop
  endfacet
  facet normal -0 0 1
    outer loop
      vertex -28.9 -24 8.25
      vertex -16.4333 -25.2 8.25
      vertex -16.4333 -24 8.25
    endloop
  endfacet
  facet normal 0 0 1
    outer loop
      vertex -28.9 -25.2 8.25
      vertex -16.4333 -25.2 8.25
      vertex -28.9 -24 8.25
    endloop
  endfacet
  facet normal 0 0 1
    outer loop
      vertex -16.4333 -25.2 8.25
      vertex -28.9 -25.2 8.25
      vertex -16.4333 -26 8.25
    endloop
  endfacet
  facet normal 0 0 1
    outer loop
      vertex -16.4333 -26 8.25
      vertex -28.9 -25.2 8.25
      vertex -28.9 -26 8.25
    endloop
  endfacet
  facet normal 0 0 1
    outer loop
      vertex -16.4333 26 8.25
      vertex -28.9 26 8.25
      vertex -16.4333 25.2 8.25
    endloop
  endfacet
  facet normal 0 0 1
    outer loop
      vertex -28.9 25.2 8.25
      vertex -16.4333 25.2 8.25
      vertex -28.9 26 8.25
    endloop
  endfacet
  facet normal 0 0 1
    outer loop
      vertex -16.4333 25.2 8.25
      vertex -28.9 25.2 8.25
      vertex -16.4333 24 8.25
    endloop
  endfacet
  facet normal 0 0 1
    outer loop
      vertex -16.4333 24 8.25
      vertex -28.9 25.2 8.25
      vertex -28.9 24 8.25
    endloop
  endfacet
  facet normal 0 0 -1
    outer loop
      vertex -16.4333 -26 24.75
      vertex -28.9 -26 24.75
      vertex -16.4333 -25.2 24.75
    endloop
  endfacet
  facet normal 0 0 -1
    outer loop
      vertex -28.9 -25.2 24.75
      vertex -16.4333 -25.2 24.75
      vertex -28.9 -26 24.75
    endloop
  endfacet
  facet normal 0 0 -1
    outer loop
      vertex -16.4333 -25.2 24.75
      vertex -28.9 -25.2 24.75
      vertex -16.4333 -24 24.75
    endloop
  endfacet
  facet normal -0 0 -1
    outer loop
      vertex -16.4333 -24 24.75
      vertex -28.9 -25.2 24.75
      vertex -28.9 -24 24.75
    endloop
  endfacet
  facet normal 0 0 -1
    outer loop
      vertex -28.9 24 24.75
      vertex -16.4333 25.2 24.75
      vertex -16.4333 24 24.75
    endloop
  endfacet
  facet normal 0 0 -1
    outer loop
      vertex -28.9 25.2 24.75
      vertex -16.4333 25.2 24.75
      vertex -28.9 24 24.75
    endloop
  endfacet
  facet normal 0 0 -1
    outer loop
      vertex -16.4333 25.2 24.75
      vertex -28.9 25.2 24.75
      vertex -16.4333 26 24.75
    endloop
  endfacet
  facet normal -0 0 -1
    outer loop
      vertex -16.4333 26 24.75
      vertex -28.9 25.2 24.75
      vertex -28.9 26 24.75
    endloop
  endfacet
  facet normal 1 -0 0
    outer loop
      vertex -28.9 24 24.75
      vertex -28.9 25.2 8.25
      vertex -28.9 25.2 24.75
    endloop
  endfacet
  facet normal 1 0 0
    outer loop
      vertex -28.9 25.2 8.25
      vertex -28.9 24 24.75
      vertex -28.9 24 8.25
    endloop
  endfacet
  facet normal 1 -0 0
    outer loop
      vertex -28.9 -25.2 24.75
      vertex -28.9 -24 8.25
      vertex -28.9 -24 24.75
    endloop
  endfacet
  facet normal 1 0 0
    outer loop
      vertex -28.9 -24 8.25
      vertex -28.9 -25.2 24.75
      vertex -28.9 -25.2 8.25
    endloop
  endfacet
  facet normal -1 0 0
    outer loop
      vertex 6.23333 24 8.25
      vertex 6.23333 26 24.75
      vertex 6.23333 26 8.25
    endloop
  endfacet
  facet normal -1 -0 0
    outer loop
      vertex 6.23333 26 24.75
      vertex 6.23333 24 8.25
      vertex 6.23333 24 24.75
    endloop
  endfacet
  facet normal -1 0 0
    outer loop
      vertex 6.23333 -26 8.25
      vertex 6.23333 -24 24.75
      vertex 6.23333 -24 8.25
    endloop
  endfacet
  facet normal -1 -0 0
    outer loop
      vertex 6.23333 -24 24.75
      vertex 6.23333 -26 8.25
      vertex 6.23333 -26 24.75
    endloop
  endfacet
  facet normal -0 0 1
    outer loop
      vertex -6.23333 26 8.25
      vertex 6.23333 24 8.25
      vertex 6.23333 26 8.25
    endloop
  endfacet
  facet normal 0 0 1
    outer loop
      vertex 6.23333 24 8.25
      vertex -6.23333 26 8.25
      vertex -6.23333 24 8.25
    endloop
  endfacet
  facet normal -0 0 1
    outer loop
      vertex -6.23333 -24 8.25
      vertex 6.23333 -26 8.25
      vertex 6.23333 -24 8.25
    endloop
  endfacet
  facet normal 0 0 1
    outer loop
      vertex 6.23333 -26 8.25
      vertex -6.23333 -24 8.25
      vertex -6.23333 -26 8.25
    endloop
  endfacet
  facet normal 0 0 -1
    outer loop
      vertex -6.23333 24 24.75
      vertex 6.23333 26 24.75
      vertex 6.23333 24 24.75
    endloop
  endfacet
  facet normal -0 0 -1
    outer loop
      vertex 6.23333 26 24.75
      vertex -6.23333 24 24.75
      vertex -6.23333 26 24.75
    endloop
  endfacet
  facet normal 0 0 -1
    outer loop
      vertex -6.23333 -26 24.75
      vertex 6.23333 -24 24.75
      vertex 6.23333 -26 24.75
    endloop
  endfacet
  facet normal -0 0 -1
    outer loop
      vertex 6.23333 -24 24.75
      vertex -6.23333 -26 24.75
      vertex -6.23333 -24 24.75
    endloop
  endfacet
  facet normal 1 -0 0
    outer loop
      vertex -6.23333 24 24.75
      vertex -6.23333 26 8.25
      vertex -6.23333 26 24.75
    endloop
  endfacet
  facet normal 1 0 0
    outer loop
      vertex -6.23333 26 8.25
      vertex -6.23333 24 24.75
      vertex -6.23333 24 8.25
    endloop
  endfacet
  facet normal 1 -0 0
    outer loop
      vertex -6.23333 -26 24.75
      vertex -6.23333 -24 8.25
      vertex -6.23333 -24 24.75
    endloop
  endfacet
  facet normal 1 0 0
    outer loop
      vertex -6.23333 -24 8.25
      vertex -6.23333 -26 24.75
      vertex -6.23333 -26 8.25
    endloop
  endfacet
  facet normal -1 0 0
    outer loop
      vertex 28.9 24 8.25
      vertex 28.9 25.2 24.75
      vertex 28.9 25.2 8.25
    endloop
  endfacet
  facet normal -1 -0 0
    outer loop
      vertex 28.9 25.2 24.75
      vertex 28.9 24 8.25
      vertex 28.9 24 24.75
    endloop
  endfacet
  facet normal -1 0 0
    outer loop
      vertex 28.9 -25.2 8.25
      vertex 28.9 -24 24.75
      vertex 28.9 -24 8.25
    endloop
  endfacet
  facet normal -1 -0 0
    outer loop
      vertex 28.9 -24 24.75
      vertex 28.9 -25.2 8.25
      vertex 28.9 -25.2 24.75
    endloop
  endfacet
  facet normal 0 0 1
    outer loop
      vertex 16.4333 -25.2 8.25
      vertex 28.9 -25.2 8.25
      vertex 28.9 -24 8.25
    endloop
  endfacet
  facet normal 0 0 1
    outer loop
      vertex 28.9 -25.2 8.25
      vertex 16.4333 -25.2 8.25
      vertex 28.9 -26 8.25
    endloop
  endfacet
  facet normal -0 0 1
    outer loop
      vertex 16.4333 -24 8.25
      vertex 16.4333 -25.2 8.25
      vertex 28.9 -24 8.25
    endloop
  endfacet
  facet normal 0 0 1
    outer loop
      vertex 28.9 -26 8.25
      vertex 16.4333 -25.2 8.25
      vertex 16.4333 -26 8.25
    endloop
  endfacet
  facet normal 0 0 1
    outer loop
      vertex 16.4333 25.2 8.25
      vertex 28.9 25.2 8.25
      vertex 28.9 26 8.25
    endloop
  endfacet
  facet normal 0 0 1
    outer loop
      vertex 16.4333 25.2 8.25
      vertex 28.9 26 8.25
      vertex 16.4333 26 8.25
    endloop
  endfacet
  facet normal 0 0 1
    outer loop
      vertex 28.9 25.2 8.25
      vertex 16.4333 25.2 8.25
      vertex 28.9 24 8.25
    endloop
  endfacet
  facet normal 0 0 1
    outer loop
      vertex 16.4333 25.2 8.25
      vertex 16.4333 24 8.25
      vertex 28.9 24 8.25
    endloop
  endfacet
  facet normal 0 0 -1
    outer loop
      vertex 16.4333 -25.2 24.75
      vertex 28.9 -25.2 24.75
      vertex 28.9 -26 24.75
    endloop
  endfacet
  facet normal 0 0 -1
    outer loop
      vertex 16.4333 -25.2 24.75
      vertex 28.9 -26 24.75
      vertex 16.4333 -26 24.75
    endloop
  endfacet
  facet normal 0 0 -1
    outer loop
      vertex 28.9 -25.2 24.75
      vertex 16.4333 -25.2 24.75
      vertex 28.9 -24 24.75
    endloop
  endfacet
  facet normal 0 0 -1
    outer loop
      vertex 16.4333 -25.2 24.75
      vertex 16.4333 -24 24.75
      vertex 28.9 -24 24.75
    endloop
  endfacet
  facet normal 0 0 -1
    outer loop
      vertex 16.4333 25.2 24.75
      vertex 28.9 25.2 24.75
      vertex 28.9 24 24.75
    endloop
  endfacet
  facet normal 0 0 -1
    outer loop
      vertex 28.9 25.2 24.75
      vertex 16.4333 25.2 24.75
      vertex 28.9 26 24.75
    endloop
  endfacet
  facet normal 0 0 -1
    outer loop
      vertex 16.4333 24 24.75
      vertex 16.4333 25.2 24.75
      vertex 28.9 24 24.75
    endloop
  endfacet
  facet normal -0 0 -1
    outer loop
      vertex 28.9 26 24.75
      vertex 16.4333 25.2 24.75
      vertex 16.4333 26 24.75
    endloop
  endfacet
  facet normal 1 -0 0
    outer loop
      vertex 16.4333 24 24.75
      vertex 16.4333 25.2 8.25
      vertex 16.4333 25.2 24.75
    endloop
  endfacet
  facet normal 1 0 0
    outer loop
      vertex 16.4333 25.2 8.25
      vertex 16.4333 24 24.75
      vertex 16.4333 24 8.25
    endloop
  endfacet
  facet normal 1 -0 0
    outer loop
      vertex 16.4333 -25.2 24.75
      vertex 16.4333 -24 8.25
      vertex 16.4333 -24 24.75
    endloop
  endfacet
  facet normal 1 0 0
    outer loop
      vertex 16.4333 -24 8.25
      vertex 16.4333 -25.2 24.75
      vertex 16.4333 -25.2 8.25
    endloop
  endfacet
  facet normal 0 0 1
    outer loop
      vertex -34 -5.4 8.25
      vertex -35.2 -5.4 8.25
      vertex -34 -18.6 8.25
    endloop
  endfacet
  facet normal 0 0 1
    outer loop
      vertex -36 -18.6 8.25
      vertex -35.2 -5.4 8.25
      vertex -36 -5.4 8.25
    endloop
  endfacet
  facet normal 0 0 1
    outer loop
      vertex -35.2 -5.4 8.25
      vertex -36 -18.6 8.25
      vertex -34 -18.6 8.25
    endloop
  endfacet
  facet normal -0 0 1
    outer loop
      vertex 35.2 -5.4 8.25
      vertex 36 -18.6 8.25
      vertex 36 -5.4 8.25
    endloop
  endfacet
  facet normal 0 0 1
    outer loop
      vertex 34 -18.6 8.25
      vertex 35.2 -5.4 8.25
      vertex 34 -5.4 8.25
    endloop
  endfacet
  facet normal 0 0 1
    outer loop
      vertex 35.2 -5.4 8.25
      vertex 34 -18.6 8.25
      vertex 36 -18.6 8.25
    endloop
  endfacet
  facet normal 0 0 -1
    outer loop
      vertex -34 -18.6 24.75
      vertex -35.2 -5.4 24.75
      vertex -34 -5.4 24.75
    endloop
  endfacet
  facet normal 0 0 -1
    outer loop
      vertex -36 -18.6 24.75
      vertex -35.2 -5.4 24.75
      vertex -34 -18.6 24.75
    endloop
  endfacet
  facet normal -0 0 -1
    outer loop
      vertex -35.2 -5.4 24.75
      vertex -36 -18.6 24.75
      vertex -36 -5.4 24.75
    endloop
  endfacet
  facet normal 0 0 -1
    outer loop
      vertex 36 -18.6 24.75
      vertex 35.2 -5.4 24.75
      vertex 36 -5.4 24.75
    endloop
  endfacet
  facet normal 0 0 -1
    outer loop
      vertex 34 -18.6 24.75
      vertex 35.2 -5.4 24.75
      vertex 36 -18.6 24.75
    endloop
  endfacet
  facet normal 0 0 -1
    outer loop
      vertex 34 -5.4 24.75
      vertex 35.2 -5.4 24.75
      vertex 34 -18.6 24.75
    endloop
  endfacet
  facet normal 0 -1 0
    outer loop
      vertex -35.2 -5.4 8.25
      vertex -34 -5.4 24.75
      vertex -35.2 -5.4 24.75
    endloop
  endfacet
  facet normal 0 -1 -0
    outer loop
      vertex -34 -5.4 24.75
      vertex -35.2 -5.4 8.25
      vertex -34 -5.4 8.25
    endloop
  endfacet
  facet normal 0 -1 0
    outer loop
      vertex 34 -5.4 8.25
      vertex 35.2 -5.4 24.75
      vertex 34 -5.4 24.75
    endloop
  endfacet
  facet normal 0 -1 -0
    outer loop
      vertex 35.2 -5.4 24.75
      vertex 34 -5.4 8.25
      vertex 35.2 -5.4 8.25
    endloop
  endfacet
  facet normal 0 1 -0
    outer loop
      vertex -34 -18.6 8.25
      vertex -36 -18.6 24.75
      vertex -34 -18.6 24.75
    endloop
  endfacet
  facet normal 0 1 0
    outer loop
      vertex -36 -18.6 24.75
      vertex -34 -18.6 8.25
      vertex -36 -18.6 8.25
    endloop
  endfacet
  facet normal 0 1 -0
    outer loop
      vertex 36 -18.6 8.25
      vertex 34 -18.6 24.75
      vertex 36 -18.6 24.75
    endloop
  endfacet
  facet normal 0 1 0
    outer loop
      vertex 34 -18.6 24.75
      vertex 36 -18.6 8.25
      vertex 34 -18.6 8.25
    endloop
  endfacet
  facet normal 0 0 1
    outer loop
      vertex -34 18.6 8.25
      vertex -35.2 5.4 8.25
      vertex -34 5.4 8.25
    endloop
  endfacet
  facet normal -0 0 1
    outer loop
      vertex -36 18.6 8.25
      vertex -35.2 5.4 8.25
      vertex -34 18.6 8.25
    endloop
  endfacet
  facet normal 0 0 1
    outer loop
      vertex -35.2 5.4 8.25
      vertex -36 18.6 8.25
      vertex -36 5.4 8.25
    endloop
  endfacet
  facet normal 0 0 1
    outer loop
      vertex 36 18.6 8.25
      vertex 35.2 5.4 8.25
      vertex 36 5.4 8.25
    endloop
  endfacet
  facet normal -0 0 1
    outer loop
      vertex 34 18.6 8.25
      vertex 35.2 5.4 8.25
      vertex 36 18.6 8.25
    endloop
  endfacet
  facet normal 0 0 1
    outer loop
      vertex 34 5.4 8.25
      vertex 35.2 5.4 8.25
      vertex 34 18.6 8.25
    endloop
  endfacet
  facet normal 0 0 -1
    outer loop
      vertex -34 5.4 24.75
      vertex -35.2 5.4 24.75
      vertex -34 18.6 24.75
    endloop
  endfacet
  facet normal 0 0 -1
    outer loop
      vertex -36 18.6 24.75
      vertex -35.2 5.4 24.75
      vertex -36 5.4 24.75
    endloop
  endfacet
  facet normal 0 0 -1
    outer loop
      vertex -35.2 5.4 24.75
      vertex -36 18.6 24.75
      vertex -34 18.6 24.75
    endloop
  endfacet
  facet normal 0 0 -1
    outer loop
      vertex 35.2 5.4 24.75
      vertex 36 18.6 24.75
      vertex 36 5.4 24.75
    endloop
  endfacet
  facet normal 0 0 -1
    outer loop
      vertex 34 18.6 24.75
      vertex 35.2 5.4 24.75
      vertex 34 5.4 24.75
    endloop
  endfacet
  facet normal 0 0 -1
    outer loop
      vertex 35.2 5.4 24.75
      vertex 34 18.6 24.75
      vertex 36 18.6 24.75
    endloop
  endfacet
  facet normal 0 -1 0
    outer loop
      vertex -36 18.6 8.25
      vertex -34 18.6 24.75
      vertex -36 18.6 24.75
    endloop
  endfacet
  facet normal 0 -1 -0
    outer loop
      vertex -34 18.6 24.75
      vertex -36 18.6 8.25
      vertex -34 18.6 8.25
    endloop
  endfacet
  facet normal 0 -1 0
    outer loop
      vertex 34 18.6 8.25
      vertex 36 18.6 24.75
      vertex 34 18.6 24.75
    endloop
  endfacet
  facet normal 0 -1 -0
    outer loop
      vertex 36 18.6 24.75
      vertex 34 18.6 8.25
      vertex 36 18.6 8.25
    endloop
  endfacet
  facet normal 0 1 -0
    outer loop
      vertex -34 5.4 8.25
      vertex -35.2 5.4 24.75
      vertex -34 5.4 24.75
    endloop
  endfacet
  facet normal 0 1 0
    outer loop
      vertex -35.2 5.4 24.75
      vertex -34 5.4 8.25
      vertex -35.2 5.4 8.25
    endloop
  endfacet
  facet normal 0 1 -0
    outer loop
      vertex 35.2 5.4 8.25
      vertex 34 5.4 24.75
      vertex 35.2 5.4 24.75
    endloop
  endfacet
  facet normal 0 1 0
    outer loop
      vertex 34 5.4 24.75
      vertex 35.2 5.4 8.25
      vertex 34 5.4 8.25
    endloop
  endfacet
  facet normal 1 0 0
    outer loop
      vertex 36 26 31.505
      vertex 36 18.6 24.75
      vertex 36 26 1.5
    endloop
  endfacet
  facet normal 1 0 0
    outer loop
      vertex 36 26 31.505
      vertex 36 5.4 24.75
      vertex 36 18.6 24.75
    endloop
  endfacet
  facet normal 1 0 0
    outer loop
      vertex 36 5.4 24.75
      vertex 36 -5.4 24.75
      vertex 36 5.4 8.25
    endloop
  endfacet
  facet normal 1 0 0
    outer loop
      vertex 36 26 31.505
      vertex 36 -5.4 24.75
      vertex 36 5.4 24.75
    endloop
  endfacet
  facet normal 1 -0 0
    outer loop
      vertex 36 -26 31.505
      vertex 36 -5.4 24.75
      vertex 36 26 31.505
    endloop
  endfacet
  facet normal 1 0 0
    outer loop
      vertex 36 -18.6 24.75
      vertex 36 -26 31.505
      vertex 36 -18.6 8.25
    endloop
  endfacet
  facet normal 1 0 0
    outer loop
      vertex 36 -5.4 24.75
      vertex 36 -26 31.505
      vertex 36 -18.6 24.75
    endloop
  endfacet
  facet normal 1 -0 0
    outer loop
      vertex 36 18.6 8.25
      vertex 36 26 1.5
      vertex 36 18.6 24.75
    endloop
  endfacet
  facet normal 1 -0 0
    outer loop
      vertex 36 5.4 8.25
      vertex 36 26 1.5
      vertex 36 18.6 8.25
    endloop
  endfacet
  facet normal 1 0 0
    outer loop
      vertex 36 -5.4 8.25
      vertex 36 5.4 8.25
      vertex 36 -5.4 24.75
    endloop
  endfacet
  facet normal 1 -0 0
    outer loop
      vertex 36 -5.4 8.25
      vertex 36 26 1.5
      vertex 36 5.4 8.25
    endloop
  endfacet
  facet normal 1 0 0
    outer loop
      vertex 36 -26 1.5
      vertex 36 -5.4 8.25
      vertex 36 -18.6 8.25
    endloop
  endfacet
  facet normal 1 0 0
    outer loop
      vertex 36 -5.4 8.25
      vertex 36 -26 1.5
      vertex 36 26 1.5
    endloop
  endfacet
  facet normal 1 0 0
    outer loop
      vertex 36 -26 1.5
      vertex 36 -18.6 8.25
      vertex 36 -26 31.505
    endloop
  endfacet
  facet normal 0 0 -1
    outer loop
      vertex 36 -26 1.5
      vertex 35.25 -25.25 1.5
      vertex 36 26 1.5
    endloop
  endfacet
  facet normal 0 0 -1
    outer loop
      vertex 36 -26 1.5
      vertex -35.25 -25.25 1.5
      vertex 35.25 -25.25 1.5
    endloop
  endfacet
  facet normal -0 0 -1
    outer loop
      vertex -35.25 -25.25 1.5
      vertex -36 -26 1.5
      vertex -35.25 25.25 1.5
    endloop
  endfacet
  facet normal 0 0 -1
    outer loop
      vertex -36 -26 1.5
      vertex -35.25 -25.25 1.5
      vertex 36 -26 1.5
    endloop
  endfacet
  facet normal 0 0 -1
    outer loop
      vertex 35.25 25.25 1.5
      vertex 36 26 1.5
      vertex 35.25 -25.25 1.5
    endloop
  endfacet
  facet normal 0 0 -1
    outer loop
      vertex -35.25 25.25 1.5
      vertex 36 26 1.5
      vertex 35.25 25.25 1.5
    endloop
  endfacet
  facet normal 0 0 -1
    outer loop
      vertex -35.25 25.25 1.5
      vertex -36 26 1.5
      vertex 36 26 1.5
    endloop
  endfacet
  facet normal 0 0 -1
    outer loop
      vertex -36 26 1.5
      vertex -35.25 25.25 1.5
      vertex -36 -26 1.5
    endloop
  endfacet
  facet normal 0 0 1
    outer loop
      vertex 34 24 1.5
      vertex 33.25 23.25 1.5
      vertex 34 -24 1.5
    endloop
  endfacet
  facet normal 0 0 1
    outer loop
      vertex 34 24 1.5
      vertex -33.25 23.25 1.5
      vertex 33.25 23.25 1.5
    endloop
  endfacet
  facet normal 0 0 1
    outer loop
      vertex -33.25 23.25 1.5
      vertex -34 24 1.5
      vertex -33.25 -23.25 1.5
    endloop
  endfacet
  facet normal -0 0 1
    outer loop
      vertex -34 24 1.5
      vertex -33.25 23.25 1.5
      vertex 34 24 1.5
    endloop
  endfacet
  facet normal -0 0 1
    outer loop
      vertex 33.25 -23.25 1.5
      vertex 34 -24 1.5
      vertex 33.25 23.25 1.5
    endloop
  endfacet
  facet normal -0 0 1
    outer loop
      vertex -33.25 -23.25 1.5
      vertex 34 -24 1.5
      vertex 33.25 -23.25 1.5
    endloop
  endfacet
  facet normal 0 0 1
    outer loop
      vertex -33.25 -23.25 1.5
      vertex -34 -24 1.5
      vertex 34 -24 1.5
    endloop
  endfacet
  facet normal 0 0 1
    outer loop
      vertex -34 -24 1.5
      vertex -33.25 -23.25 1.5
      vertex -34 24 1.5
    endloop
  endfacet
  facet normal -1 0 0
    outer loop
      vertex -36 26 1.5
      vertex -36 18.6 8.25
      vertex -36 26 31.505
    endloop
  endfacet
  facet normal -1 0 0
    outer loop
      vertex -36 26 1.5
      vertex -36 5.4 8.25
      vertex -36 18.6 8.25
    endloop
  endfacet
  facet normal -1 0 0
    outer loop
      vertex -36 5.4 8.25
      vertex -36 -5.4 8.25
      vertex -36 5.4 24.75
    endloop
  endfacet
  facet normal -1 0 0
    outer loop
      vertex -36 26 1.5
      vertex -36 -5.4 8.25
      vertex -36 5.4 8.25
    endloop
  endfacet
  facet normal -1 0 0
    outer loop
      vertex -36 -26 1.5
      vertex -36 -5.4 8.25
      vertex -36 26 1.5
    endloop
  endfacet
  facet normal -1 -0 0
    outer loop
      vertex -36 -18.6 8.25
      vertex -36 -26 1.5
      vertex -36 -18.6 24.75
    endloop
  endfacet
  facet normal -1 -0 0
    outer loop
      vertex -36 -5.4 8.25
      vertex -36 -26 1.5
      vertex -36 -18.6 8.25
    endloop
  endfacet
  facet normal -1 0 0
    outer loop
      vertex -36 18.6 24.75
      vertex -36 26 31.505
      vertex -36 18.6 8.25
    endloop
  endfacet
  facet normal -1 0 0
    outer loop
      vertex -36 5.4 24.75
      vertex -36 26 31.505
      vertex -36 18.6 24.75
    endloop
  endfacet
  facet normal -1 0 0
    outer loop
      vertex -36 -5.4 24.75
      vertex -36 5.4 24.75
      vertex -36 -5.4 8.25
    endloop
  endfacet
  facet normal -1 0 0
    outer loop
      vertex -36 -5.4 24.75
      vertex -36 26 31.505
      vertex -36 5.4 24.75
    endloop
  endfacet
  facet normal -1 0 0
    outer loop
      vertex -36 -26 31.505
      vertex -36 -5.4 24.75
      vertex -36 -18.6 24.75
    endloop
  endfacet
  facet normal -1 0 0
    outer loop
      vertex -36 -5.4 24.75
      vertex -36 -26 31.505
      vertex -36 26 31.505
    endloop
  endfacet
  facet normal -1 0 0
    outer loop
      vertex -36 -26 31.505
      vertex -36 -18.6 24.75
      vertex -36 -26 1.5
    endloop
  endfacet
  facet normal 0 1 -0
    outer loop
      vertex -6.23333 26 8.25
      vertex -16.4333 26 24.75
      vertex -6.23333 26 24.75
    endloop
  endfacet
  facet normal 0 1 0
    outer loop
      vertex -16.4333 26 24.75
      vertex -6.23333 26 8.25
      vertex -16.4333 26 8.25
    endloop
  endfacet
  facet normal 0 1 -0
    outer loop
      vertex 16.4333 26 8.25
      vertex 6.23333 26 24.75
      vertex 16.4333 26 24.75
    endloop
  endfacet
  facet normal 0 1 0
    outer loop
      vertex 6.23333 26 24.75
      vertex 16.4333 26 8.25
      vertex 6.23333 26 8.25
    endloop
  endfacet
  facet normal 0 1 0
    outer loop
      vertex 16.4333 26 24.75
      vertex 36 26 31.505
      vertex 28.9 26 24.75
    endloop
  endfacet
  facet normal 0 1 0
    outer loop
      vertex 36 26 31.505
      vertex 28.9 26 8.25
      vertex 28.9 26 24.75
    endloop
  endfacet
  facet normal 0 1 0
    outer loop
      vertex 36 26 1.5
      vertex 16.4333 26 8.25
      vertex 28.9 26 8.25
    endloop
  endfacet
  facet normal 0 1 0
    outer loop
      vertex 16.4333 26 8.25
      vertex 36 26 1.5
      vertex 6.23333 26 8.25
    endloop
  endfacet
  facet normal 0 1 0
    outer loop
      vertex 6.23333 26 8.25
      vertex 36 26 1.5
      vertex -6.23333 26 8.25
    endloop
  endfacet
  facet normal 0 1 0
    outer loop
      vertex -36 26 1.5
      vertex -6.23333 26 8.25
      vertex 36 26 1.5
    endloop
  endfacet
  facet normal 0 1 0
    outer loop
      vertex -6.23333 26 8.25
      vertex -36 26 1.5
      vertex -16.4333 26 8.25
    endloop
  endfacet
  facet normal 0 1 -0
    outer loop
      vertex 36 26 1.5
      vertex 28.9 26 8.25
      vertex 36 26 31.505
    endloop
  endfacet
  facet normal 0 1 0
    outer loop
      vertex 6.23333 26 24.75
      vertex 36 26 31.505
      vertex 16.4333 26 24.75
    endloop
  endfacet
  facet normal 0 1 0
    outer loop
      vertex 36 26 31.505
      vertex 6.23333 26 24.75
      vertex -36 26 31.505
    endloop
  endfacet
  facet normal 0 1 -0
    outer loop
      vertex -6.23333 26 24.75
      vertex -36 26 31.505
      vertex 6.23333 26 24.75
    endloop
  endfacet
  facet normal 0 1 -0
    outer loop
      vertex -16.4333 26 24.75
      vertex -36 26 31.505
      vertex -6.23333 26 24.75
    endloop
  endfacet
  facet normal 0 1 -0
    outer loop
      vertex -28.9 26 24.75
      vertex -36 26 31.505
      vertex -16.4333 26 24.75
    endloop
  endfacet
  facet normal 0 1 -0
    outer loop
      vertex -28.9 26 8.25
      vertex -36 26 31.505
      vertex -28.9 26 24.75
    endloop
  endfacet
  facet normal 0 1 0
    outer loop
      vertex -28.9 26 8.25
      vertex -36 26 1.5
      vertex -36 26 31.505
    endloop
  endfacet
  facet normal 0 1 0
    outer loop
      vertex -16.4333 26 8.25
      vertex -36 26 1.5
      vertex -28.9 26 8.25
    endloop
  endfacet
  facet normal 0 -1 0
    outer loop
      vertex 6.23333 -26 8.25
      vertex 16.4333 -26 24.75
      vertex 6.23333 -26 24.75
    endloop
  endfacet
  facet normal 0 -1 -0
    outer loop
      vertex 16.4333 -26 24.75
      vertex 6.23333 -26 8.25
      vertex 16.4333 -26 8.25
    endloop
  endfacet
  facet normal 0 -1 0
    outer loop
      vertex -16.4333 -26 8.25
      vertex -6.23333 -26 24.75
      vertex -16.4333 -26 24.75
    endloop
  endfacet
  facet normal 0 -1 -0
    outer loop
      vertex -6.23333 -26 24.75
      vertex -16.4333 -26 8.25
      vertex -6.23333 -26 8.25
    endloop
  endfacet
  facet normal 0 -1 0
    outer loop
      vertex -16.4333 -26 24.75
      vertex -36 -26 31.505
      vertex -28.9 -26 24.75
    endloop
  endfacet
  facet normal 0 -1 0
    outer loop
      vertex -36 -26 31.505
      vertex -28.9 -26 8.25
      vertex -28.9 -26 24.75
    endloop
  endfacet
  facet normal 0 -1 0
    outer loop
      vertex -36 -26 1.5
      vertex -16.4333 -26 8.25
      vertex -28.9 -26 8.25
    endloop
  endfacet
  facet normal 0 -1 -0
    outer loop
      vertex -16.4333 -26 8.25
      vertex -36 -26 1.5
      vertex -6.23333 -26 8.25
    endloop
  endfacet
  facet normal 0 -1 -0
    outer loop
      vertex -6.23333 -26 8.25
      vertex -36 -26 1.5
      vertex 6.23333 -26 8.25
    endloop
  endfacet
  facet normal 0 -1 0
    outer loop
      vertex 36 -26 1.5
      vertex 6.23333 -26 8.25
      vertex -36 -26 1.5
    endloop
  endfacet
  facet normal 0 -1 0
    outer loop
      vertex 6.23333 -26 8.25
      vertex 36 -26 1.5
      vertex 16.4333 -26 8.25
    endloop
  endfacet
  facet normal 0 -1 0
    outer loop
      vertex -36 -26 1.5
      vertex -28.9 -26 8.25
      vertex -36 -26 31.505
    endloop
  endfacet
  facet normal 0 -1 0
    outer loop
      vertex -6.23333 -26 24.75
      vertex -36 -26 31.505
      vertex -16.4333 -26 24.75
    endloop
  endfacet
  facet normal 0 -1 0
    outer loop
      vertex -36 -26 31.505
      vertex -6.23333 -26 24.75
      vertex 36 -26 31.505
    endloop
  endfacet
  facet normal 0 -1 0
    outer loop
      vertex 6.23333 -26 24.75
      vertex 36 -26 31.505
      vertex -6.23333 -26 24.75
    endloop
  endfacet
  facet normal 0 -1 0
    outer loop
      vertex 16.4333 -26 24.75
      vertex 36 -26 31.505
      vertex 6.23333 -26 24.75
    endloop
  endfacet
  facet normal 0 -1 0
    outer loop
      vertex 28.9 -26 24.75
      vertex 36 -26 31.505
      vertex 16.4333 -26 24.75
    endloop
  endfacet
  facet normal 0 -1 0
    outer loop
      vertex 28.9 -26 8.25
      vertex 36 -26 31.505
      vertex 28.9 -26 24.75
    endloop
  endfacet
  facet normal 0 -1 0
    outer loop
      vertex 28.9 -26 8.25
      vertex 36 -26 1.5
      vertex 36 -26 31.505
    endloop
  endfacet
  facet normal 0 -1 0
    outer loop
      vertex 16.4333 -26 8.25
      vertex 36 -26 1.5
      vertex 28.9 -26 8.25
    endloop
  endfacet
  facet normal -1 0 0
    outer loop
      vertex 34 24 1.5
      vertex 34 18.6 8.25
      vertex 34 24 31.495
    endloop
  endfacet
  facet normal -1 0 0
    outer loop
      vertex 34 24 1.5
      vertex 34 5.4 8.25
      vertex 34 18.6 8.25
    endloop
  endfacet
  facet normal -1 0 0
    outer loop
      vertex 34 5.4 8.25
      vertex 34 -5.4 8.25
      vertex 34 5.4 24.75
    endloop
  endfacet
  facet normal -1 0 0
    outer loop
      vertex 34 24 1.5
      vertex 34 -5.4 8.25
      vertex 34 5.4 8.25
    endloop
  endfacet
  facet normal -1 0 0
    outer loop
      vertex 34 -24 1.5
      vertex 34 -5.4 8.25
      vertex 34 24 1.5
    endloop
  endfacet
  facet normal -1 -0 0
    outer loop
      vertex 34 -18.6 8.25
      vertex 34 -24 1.5
      vertex 34 -18.6 24.75
    endloop
  endfacet
  facet normal -1 -0 0
    outer loop
      vertex 34 -5.4 8.25
      vertex 34 -24 1.5
      vertex 34 -18.6 8.25
    endloop
  endfacet
  facet normal -1 0 0
    outer loop
      vertex 34 18.6 24.75
      vertex 34 24 31.495
      vertex 34 18.6 8.25
    endloop
  endfacet
  facet normal -1 0 0
    outer loop
      vertex 34 5.4 24.75
      vertex 34 24 31.495
      vertex 34 18.6 24.75
    endloop
  endfacet
  facet normal -1 0 0
    outer loop
      vertex 34 -5.4 24.75
      vertex 34 5.4 24.75
      vertex 34 -5.4 8.25
    endloop
  endfacet
  facet normal -1 0 0
    outer loop
      vertex 34 -5.4 24.75
      vertex 34 24 31.495
      vertex 34 5.4 24.75
    endloop
  endfacet
  facet normal -1 0 0
    outer loop
      vertex 34 -24 31.495
      vertex 34 -5.4 24.75
      vertex 34 -18.6 24.75
    endloop
  endfacet
  facet normal -1 0 0
    outer loop
      vertex 34 -5.4 24.75
      vertex 34 -24 31.495
      vertex 34 24 31.495
    endloop
  endfacet
  facet normal -1 0 0
    outer loop
      vertex 34 -24 31.495
      vertex 34 -18.6 24.75
      vertex 34 -24 1.5
    endloop
  endfacet
  facet normal 1 0 0
    outer loop
      vertex -34 24 31.495
      vertex -34 18.6 24.75
      vertex -34 24 1.5
    endloop
  endfacet
  facet normal 1 0 0
    outer loop
      vertex -34 24 31.495
      vertex -34 5.4 24.75
      vertex -34 18.6 24.75
    endloop
  endfacet
  facet normal 1 0 0
    outer loop
      vertex -34 5.4 24.75
      vertex -34 -5.4 24.75
      vertex -34 5.4 8.25
    endloop
  endfacet
  facet normal 1 0 0
    outer loop
      vertex -34 24 31.495
      vertex -34 -5.4 24.75
      vertex -34 5.4 24.75
    endloop
  endfacet
  facet normal 1 -0 0
    outer loop
      vertex -34 -24 31.495
      vertex -34 -5.4 24.75
      vertex -34 24 31.495
    endloop
  endfacet
  facet normal 1 0 0
    outer loop
      vertex -34 -18.6 24.75
      vertex -34 -24 31.495
      vertex -34 -18.6 8.25
    endloop
  endfacet
  facet normal 1 0 0
    outer loop
      vertex -34 -5.4 24.75
      vertex -34 -24 31.495
      vertex -34 -18.6 24.75
    endloop
  endfacet
  facet normal 1 -0 0
    outer loop
      vertex -34 18.6 8.25
      vertex -34 24 1.5
      vertex -34 18.6 24.75
    endloop
  endfacet
  facet normal 1 -0 0
    outer loop
      vertex -34 5.4 8.25
      vertex -34 24 1.5
      vertex -34 18.6 8.25
    endloop
  endfacet
  facet normal 1 0 0
    outer loop
      vertex -34 -5.4 8.25
      vertex -34 5.4 8.25
      vertex -34 -5.4 24.75
    endloop
  endfacet
  facet normal 1 -0 0
    outer loop
      vertex -34 -5.4 8.25
      vertex -34 24 1.5
      vertex -34 5.4 8.25
    endloop
  endfacet
  facet normal 1 0 0
    outer loop
      vertex -34 -24 1.5
      vertex -34 -5.4 8.25
      vertex -34 -18.6 8.25
    endloop
  endfacet
  facet normal 1 0 0
    outer loop
      vertex -34 -5.4 8.25
      vertex -34 -24 1.5
      vertex -34 24 1.5
    endloop
  endfacet
  facet normal 1 0 0
    outer loop
      vertex -34 -24 1.5
      vertex -34 -18.6 8.25
      vertex -34 -24 31.495
    endloop
  endfacet
  facet normal 0 -1 0
    outer loop
      vertex 6.23333 24 8.25
      vertex 16.4333 24 24.75
      vertex 6.23333 24 24.75
    endloop
  endfacet
  facet normal 0 -1 -0
    outer loop
      vertex 16.4333 24 24.75
      vertex 6.23333 24 8.25
      vertex 16.4333 24 8.25
    endloop
  endfacet
  facet normal 0 -1 0
    outer loop
      vertex -16.4333 24 8.25
      vertex -6.23333 24 24.75
      vertex -16.4333 24 24.75
    endloop
  endfacet
  facet normal 0 -1 -0
    outer loop
      vertex -6.23333 24 24.75
      vertex -16.4333 24 8.25
      vertex -6.23333 24 8.25
    endloop
  endfacet
  facet normal 0 -1 0
    outer loop
      vertex -16.4333 24 24.75
      vertex -34 24 31.495
      vertex -28.9 24 24.75
    endloop
  endfacet
  facet normal 0 -1 0
    outer loop
      vertex -34 24 31.495
      vertex -28.9 24 8.25
      vertex -28.9 24 24.75
    endloop
  endfacet
  facet normal 0 -1 0
    outer loop
      vertex -34 24 1.5
      vertex -16.4333 24 8.25
      vertex -28.9 24 8.25
    endloop
  endfacet
  facet normal 0 -1 -0
    outer loop
      vertex -16.4333 24 8.25
      vertex -34 24 1.5
      vertex -6.23333 24 8.25
    endloop
  endfacet
  facet normal 0 -1 -0
    outer loop
      vertex -6.23333 24 8.25
      vertex -34 24 1.5
      vertex 6.23333 24 8.25
    endloop
  endfacet
  facet normal 0 -1 0
    outer loop
      vertex 34 24 1.5
      vertex 6.23333 24 8.25
      vertex -34 24 1.5
    endloop
  endfacet
  facet normal 0 -1 0
    outer loop
      vertex 6.23333 24 8.25
      vertex 34 24 1.5
      vertex 16.4333 24 8.25
    endloop
  endfacet
  facet normal 0 -1 0
    outer loop
      vertex -34 24 1.5
      vertex -28.9 24 8.25
      vertex -34 24 31.495
    endloop
  endfacet
  facet normal 0 -1 0
    outer loop
      vertex -6.23333 24 24.75
      vertex -34 24 31.495
      vertex -16.4333 24 24.75
    endloop
  endfacet
  facet normal 0 -1 0
    outer loop
      vertex -34 24 31.495
      vertex -6.23333 24 24.75
      vertex 34 24 31.495
    endloop
  endfacet
  facet normal 0 -1 0
    outer loop
      vertex 6.23333 24 24.75
      vertex 34 24 31.495
      vertex -6.23333 24 24.75
    endloop
  endfacet
  facet normal 0 -1 0
    outer loop
      vertex 16.4333 24 24.75
      vertex 34 24 31.495
      vertex 6.23333 24 24.75
    endloop
  endfacet
  facet normal 0 -1 0
    outer loop
      vertex 28.9 24 24.75
      vertex 34 24 31.495
      vertex 16.4333 24 24.75
    endloop
  endfacet
  facet normal 0 -1 0
    outer loop
      vertex 28.9 24 8.25
      vertex 34 24 31.495
      vertex 28.9 24 24.75
    endloop
  endfacet
  facet normal 0 -1 0
    outer loop
      vertex 28.9 24 8.25
      vertex 34 24 1.5
      vertex 34 24 31.495
    endloop
  endfacet
  facet normal 0 -1 0
    outer loop
      vertex 16.4333 24 8.25
      vertex 34 24 1.5
      vertex 28.9 24 8.25
    endloop
  endfacet
  facet normal 0 1 -0
    outer loop
      vertex -6.23333 -24 8.25
      vertex -16.4333 -24 24.75
      vertex -6.23333 -24 24.75
    endloop
  endfacet
  facet normal 0 1 0
    outer loop
      vertex -16.4333 -24 24.75
      vertex -6.23333 -24 8.25
      vertex -16.4333 -24 8.25
    endloop
  endfacet
  facet normal 0 1 -0
    outer loop
      vertex 16.4333 -24 8.25
      vertex 6.23333 -24 24.75
      vertex 16.4333 -24 24.75
    endloop
  endfacet
  facet normal 0 1 0
    outer loop
      vertex 6.23333 -24 24.75
      vertex 16.4333 -24 8.25
      vertex 6.23333 -24 8.25
    endloop
  endfacet
  facet normal 0 1 0
    outer loop
      vertex 16.4333 -24 24.75
      vertex 34 -24 31.495
      vertex 28.9 -24 24.75
    endloop
  endfacet
  facet normal 0 1 0
    outer loop
      vertex 34 -24 31.495
      vertex 28.9 -24 8.25
      vertex 28.9 -24 24.75
    endloop
  endfacet
  facet normal 0 1 0
    outer loop
      vertex 34 -24 1.5
      vertex 16.4333 -24 8.25
      vertex 28.9 -24 8.25
    endloop
  endfacet
  facet normal 0 1 0
    outer loop
      vertex 16.4333 -24 8.25
      vertex 34 -24 1.5
      vertex 6.23333 -24 8.25
    endloop
  endfacet
  facet normal 0 1 0
    outer loop
      vertex 6.23333 -24 8.25
      vertex 34 -24 1.5
      vertex -6.23333 -24 8.25
    endloop
  endfacet
  facet normal 0 1 0
    outer loop
      vertex -34 -24 1.5
      vertex -6.23333 -24 8.25
      vertex 34 -24 1.5
    endloop
  endfacet
  facet normal 0 1 0
    outer loop
      vertex -6.23333 -24 8.25
      vertex -34 -24 1.5
      vertex -16.4333 -24 8.25
    endloop
  endfacet
  facet normal 0 1 -0
    outer loop
      vertex 34 -24 1.5
      vertex 28.9 -24 8.25
      vertex 34 -24 31.495
    endloop
  endfacet
  facet normal 0 1 0
    outer loop
      vertex 6.23333 -24 24.75
      vertex 34 -24 31.495
      vertex 16.4333 -24 24.75
    endloop
  endfacet
  facet normal 0 1 0
    outer loop
      vertex 34 -24 31.495
      vertex 6.23333 -24 24.75
      vertex -34 -24 31.495
    endloop
  endfacet
  facet normal 0 1 -0
    outer loop
      vertex -6.23333 -24 24.75
      vertex -34 -24 31.495
      vertex 6.23333 -24 24.75
    endloop
  endfacet
  facet normal 0 1 -0
    outer loop
      vertex -16.4333 -24 24.75
      vertex -34 -24 31.495
      vertex -6.23333 -24 24.75
    endloop
  endfacet
  facet normal 0 1 -0
    outer loop
      vertex -28.9 -24 24.75
      vertex -34 -24 31.495
      vertex -16.4333 -24 24.75
    endloop
  endfacet
  facet normal 0 1 -0
    outer loop
      vertex -28.9 -24 8.25
      vertex -34 -24 31.495
      vertex -28.9 -24 24.75
    endloop
  endfacet
  facet normal 0 1 0
    outer loop
      vertex -28.9 -24 8.25
      vertex -34 -24 1.5
      vertex -34 -24 31.495
    endloop
  endfacet
  facet normal 0 1 0
    outer loop
      vertex -16.4333 -24 8.25
      vertex -34 -24 1.5
      vertex -28.9 -24 8.25
    endloop
  endfacet
  facet normal -1 0 0
    outer loop
      vertex -16.4333 -26 8.25
      vertex -16.4333 -25.2 24.75
      vertex -16.4333 -25.2 8.25
    endloop
  endfacet
  facet normal -1 -0 0
    outer loop
      vertex -16.4333 -25.2 24.75
      vertex -16.4333 -26 8.25
      vertex -16.4333 -26 24.75
    endloop
  endfacet
  facet normal 1 -0 0
    outer loop
      vertex -28.9 -26 24.75
      vertex -28.9 -25.2 8.25
      vertex -28.9 -25.2 24.75
    endloop
  endfacet
  facet normal 1 0 0
    outer loop
      vertex -28.9 -25.2 8.25
      vertex -28.9 -26 24.75
      vertex -28.9 -26 8.25
    endloop
  endfacet
  facet normal -1 0 0
    outer loop
      vertex 28.9 -26 8.25
      vertex 28.9 -25.2 24.75
      vertex 28.9 -25.2 8.25
    endloop
  endfacet
  facet normal -1 -0 0
    outer loop
      vertex 28.9 -25.2 24.75
      vertex 28.9 -26 8.25
      vertex 28.9 -26 24.75
    endloop
  endfacet
  facet normal 1 -0 0
    outer loop
      vertex 16.4333 -26 24.75
      vertex 16.4333 -25.2 8.25
      vertex 16.4333 -25.2 24.75
    endloop
  endfacet
  facet normal 1 0 0
    outer loop
      vertex 16.4333 -25.2 8.25
      vertex 16.4333 -26 24.75
      vertex 16.4333 -26 8.25
    endloop
  endfacet
  facet normal -1 0 0
    outer loop
      vertex -16.4333 25.2 8.25
      vertex -16.4333 26 24.75
      vertex -16.4333 26 8.25
    endloop
  endfacet
  facet normal -1 -0 0
    outer loop
      vertex -16.4333 26 24.75
      vertex -16.4333 25.2 8.25
      vertex -16.4333 25.2 24.75
    endloop
  endfacet
  facet normal 1 -0 0
    outer loop
      vertex -28.9 25.2 24.75
      vertex -28.9 26 8.25
      vertex -28.9 26 24.75
    endloop
  endfacet
  facet normal 1 0 0
    outer loop
      vertex -28.9 26 8.25
      vertex -28.9 25.2 24.75
      vertex -28.9 25.2 8.25
    endloop
  endfacet
  facet normal -1 0 0
    outer loop
      vertex 28.9 25.2 8.25
      vertex 28.9 26 24.75
      vertex 28.9 26 8.25
    endloop
  endfacet
  facet normal -1 -0 0
    outer loop
      vertex 28.9 26 24.75
      vertex 28.9 25.2 8.25
      vertex 28.9 25.2 24.75
    endloop
  endfacet
  facet normal 1 -0 0
    outer loop
      vertex 16.4333 25.2 24.75
      vertex 16.4333 26 8.25
      vertex 16.4333 26 24.75
    endloop
  endfacet
  facet normal 1 0 0
    outer loop
      vertex 16.4333 26 8.25
      vertex 16.4333 25.2 24.75
      vertex 16.4333 25.2 8.25
    endloop
  endfacet
  facet normal 0 -1 0
    outer loop
      vertex -36 -5.4 8.25
      vertex -35.2 -5.4 24.75
      vertex -36 -5.4 24.75
    endloop
  endfacet
  facet normal 0 -1 -0
    outer loop
      vertex -35.2 -5.4 24.75
      vertex -36 -5.4 8.25
      vertex -35.2 -5.4 8.25
    endloop
  endfacet
  facet normal 0 1 -0
    outer loop
      vertex -35.2 5.4 8.25
      vertex -36 5.4 24.75
      vertex -35.2 5.4 24.75
    endloop
  endfacet
  facet normal 0 1 0
    outer loop
      vertex -36 5.4 24.75
      vertex -35.2 5.4 8.25
      vertex -36 5.4 8.25
    endloop
  endfacet
  facet normal 0 -1 0
    outer loop
      vertex 35.2 -5.4 8.25
      vertex 36 -5.4 24.75
      vertex 35.2 -5.4 24.75
    endloop
  endfacet
  facet normal 0 -1 -0
    outer loop
      vertex 36 -5.4 24.75
      vertex 35.2 -5.4 8.25
      vertex 36 -5.4 8.25
    endloop
  endfacet
  facet normal 0 1 -0
    outer loop
      vertex 36 5.4 8.25
      vertex 35.2 5.4 24.75
      vertex 36 5.4 24.75
    endloop
  endfacet
  facet normal 0 1 0
    outer loop
      vertex 35.2 5.4 24.75
      vertex 36 5.4 8.25
      vertex 35.2 5.4 8.25
    endloop
  endfacet
  facet normal 1 -0 0
    outer loop
      vertex 35.25 -25.25 1.5
      vertex 35.25 25.25 0
      vertex 35.25 25.25 1.5
    endloop
  endfacet
  facet normal 1 0 0
    outer loop
      vertex 35.25 25.25 0
      vertex 35.25 -25.25 1.5
      vertex 35.25 -25.25 0
    endloop
  endfacet
  facet normal 0 0 -1
    outer loop
      vertex 35.25 -25.25 0
      vertex 33.25 -23.25 0
      vertex 35.25 25.25 0
    endloop
  endfacet
  facet normal 0 0 -1
    outer loop
      vertex 35.25 -25.25 0
      vertex -33.25 -23.25 0
      vertex 33.25 -23.25 0
    endloop
  endfacet
  facet normal -0 0 -1
    outer loop
      vertex -33.25 -23.25 0
      vertex -35.25 -25.25 0
      vertex -33.25 23.25 0
    endloop
  endfacet
  facet normal 0 0 -1
    outer loop
      vertex -35.25 -25.25 0
      vertex -33.25 -23.25 0
      vertex 35.25 -25.25 0
    endloop
  endfacet
  facet normal 0 0 -1
    outer loop
      vertex 33.25 23.25 0
      vertex 35.25 25.25 0
      vertex 33.25 -23.25 0
    endloop
  endfacet
  facet normal 0 0 -1
    outer loop
      vertex -33.25 23.25 0
      vertex 35.25 25.25 0
      vertex 33.25 23.25 0
    endloop
  endfacet
  facet normal 0 0 -1
    outer loop
      vertex -33.25 23.25 0
      vertex -35.25 25.25 0
      vertex 35.25 25.25 0
    endloop
  endfacet
  facet normal 0 0 -1
    outer loop
      vertex -35.25 25.25 0
      vertex -33.25 23.25 0
      vertex -35.25 -25.25 0
    endloop
  endfacet
  facet normal -1 0 0
    outer loop
      vertex -35.25 -25.25 0
      vertex -35.25 25.25 1.5
      vertex -35.25 25.25 0
    endloop
  endfacet
  facet normal -1 -0 0
    outer loop
      vertex -35.25 25.25 1.5
      vertex -35.25 -25.25 0
      vertex -35.25 -25.25 1.5
    endloop
  endfacet
  facet normal 0 1 -0
    outer loop
      vertex 35.25 25.25 0
      vertex -35.25 25.25 1.5
      vertex 35.25 25.25 1.5
    endloop
  endfacet
  facet normal 0 1 0
    outer loop
      vertex -35.25 25.25 1.5
      vertex 35.25 25.25 0
      vertex -35.25 25.25 0
    endloop
  endfacet
  facet normal 0 -1 0
    outer loop
      vertex -35.25 -25.25 0
      vertex 35.25 -25.25 1.5
      vertex -35.25 -25.25 1.5
    endloop
  endfacet
  facet normal 0 -1 -0
    outer loop
      vertex 35.25 -25.25 1.5
      vertex -35.25 -25.25 0
      vertex 35.25 -25.25 0
    endloop
  endfacet
  facet normal -1 0 0
    outer loop
      vertex 33.25 -23.25 0
      vertex 33.25 23.25 1.5
      vertex 33.25 23.25 0
    endloop
  endfacet
  facet normal -1 -0 0
    outer loop
      vertex 33.25 23.25 1.5
      vertex 33.25 -23.25 0
      vertex 33.25 -23.25 1.5
    endloop
  endfacet
  facet normal 1 -0 0
    outer loop
      vertex -33.25 -23.25 1.5
      vertex -33.25 23.25 0
      vertex -33.25 23.25 1.5
    endloop
  endfacet
  facet normal 1 0 0
    outer loop
      vertex -33.25 23.25 0
      vertex -33.25 -23.25 1.5
      vertex -33.25 -23.25 0
    endloop
  endfacet
  facet normal 0 -1 0
    outer loop
      vertex -33.25 23.25 0
      vertex 33.25 23.25 1.5
      vertex -33.25 23.25 1.5
    endloop
  endfacet
  facet normal 0 -1 -0
    outer loop
      vertex 33.25 23.25 1.5
      vertex -33.25 23.25 0
      vertex 33.25 23.25 0
    endloop
  endfacet
  facet normal 0 1 -0
    outer loop
      vertex 33.25 -23.25 0
      vertex -33.25 -23.25 1.5
      vertex 33.25 -23.25 1.5
    endloop
  endfacet
  facet normal 0 1 0
    outer loop
      vertex -33.25 -23.25 1.5
      vertex 33.25 -23.25 0
      vertex -33.25 -23.25 0
    endloop
  endfacet
  facet normal 0 0 -1
    outer loop
      vertex -14 -11 70.5
      vertex 14 11 70.5
      vertex 14 -11 70.5
    endloop
  endfacet
  facet normal -0 0 -1
    outer loop
      vertex 14 11 70.5
      vertex -14 -11 70.5
      vertex -14 11 70.5
    endloop
  endfacet
  facet normal 0 0.209529 0.977802
    outer loop
      vertex 25 20 55.005
      vertex -16 13 56.505
      vertex 16 13 56.505
    endloop
  endfacet
  facet normal 0 0.209529 0.977802
    outer loop
      vertex -16 13 56.505
      vertex 25 20 55.005
      vertex -25 20 55.005
    endloop
  endfacet
  facet normal -0.164399 0 0.986394
    outer loop
      vertex -25 20 55.005
      vertex -16 -13 56.505
      vertex -16 13 56.505
    endloop
  endfacet
  facet normal -0.164399 0 0.986394
    outer loop
      vertex -16 -13 56.505
      vertex -25 20 55.005
      vertex -25 -20 55.005
    endloop
  endfacet
  facet normal 0 0 -1
    outer loop
      vertex -23 -18 54.995
      vertex 23 18 54.995
      vertex 23 -18 54.995
    endloop
  endfacet
  facet normal -0 0 -1
    outer loop
      vertex 23 18 54.995
      vertex -23 -18 54.995
      vertex -23 18 54.995
    endloop
  endfacet
  facet normal 0.164399 0 0.986394
    outer loop
      vertex 16 13 56.505
      vertex 25 -20 55.005
      vertex 25 20 55.005
    endloop
  endfacet
  facet normal 0.164399 0 0.986394
    outer loop
      vertex 25 -20 55.005
      vertex 16 13 56.505
      vertex 16 -13 56.505
    endloop
  endfacet
  facet normal 0 -0.209529 0.977802
    outer loop
      vertex -16 -13 56.505
      vertex 25 -20 55.005
      vertex 16 -13 56.505
    endloop
  endfacet
  facet normal 0 -0.209529 0.977802
    outer loop
      vertex 25 -20 55.005
      vertex -16 -13 56.505
      vertex -25 -20 55.005
    endloop
  endfacet
  facet normal -0 0 1
    outer loop
      vertex -14 11 56.505
      vertex 14 -11 56.505
      vertex 14 11 56.505
    endloop
  endfacet
  facet normal 0 0 1
    outer loop
      vertex 14 -11 56.505
      vertex -14 11 56.505
      vertex -14 -11 56.505
    endloop
  endfacet
  facet normal 0 -0.242536 0.970143
    outer loop
      vertex -25 -20 33.005
      vertex 36 -26 31.505
      vertex 25 -20 33.005
    endloop
  endfacet
  facet normal 0 -0.242536 0.970143
    outer loop
      vertex 36 -26 31.505
      vertex -25 -20 33.005
      vertex -36 -26 31.505
    endloop
  endfacet
  facet normal 0 0.242536 0.970143
    outer loop
      vertex 36 26 31.505
      vertex -25 20 33.005
      vertex 25 20 33.005
    endloop
  endfacet
  facet normal 0 0.242536 0.970143
    outer loop
      vertex -25 20 33.005
      vertex 36 26 31.505
      vertex -36 26 31.505
    endloop
  endfacet
  facet normal -0.135113 0 0.99083
    outer loop
      vertex -36 26 31.505
      vertex -25 -20 33.005
      vertex -25 20 33.005
    endloop
  endfacet
  facet normal -0.135113 0 0.99083
    outer loop
      vertex -25 -20 33.005
      vertex -36 26 31.505
      vertex -36 -26 31.505
    endloop
  endfacet
  facet normal 0 0 -1
    outer loop
      vertex -34 -24 31.495
      vertex 34 24 31.495
      vertex 34 -24 31.495
    endloop
  endfacet
  facet normal -0 0 -1
    outer loop
      vertex 34 24 31.495
      vertex -34 -24 31.495
      vertex -34 24 31.495
    endloop
  endfacet
  facet normal 0.135113 0 0.99083
    outer loop
      vertex 25 20 33.005
      vertex 36 -26 31.505
      vertex 36 26 31.505
    endloop
  endfacet
  facet normal 0.135113 0 0.99083
    outer loop
      vertex 36 -26 31.505
      vertex 25 20 33.005
      vertex 25 -20 33.005
    endloop
  endfacet
  facet normal -0 0 1
    outer loop
      vertex -23 18 33.005
      vertex 23 -18 33.005
      vertex 23 18 33.005
    endloop
  endfacet
  facet normal 0 0 1
    outer loop
      vertex 23 -18 33.005
      vertex -23 18 33.005
      vertex -23 -18 33.005
    endloop
  endfacet
endsolid OpenSCAD_Model
