solid OpenSCAD_Model
  facet normal 1 0 0
    outer loop
      vertex 38 -28 2.5
      vertex 38 -38 2.5
      vertex 38 -28 2.005
    endloop
  endfacet
  facet normal 1 0 0
    outer loop
      vertex 38 28 2.005
      vertex 38 38 2.5
      vertex 38 28 2.5
    endloop
  endfacet
  facet normal 1 0 0
    outer loop
      vertex 38 38 2.5
      vertex 38 28 2.005
      vertex 38 38 0
    endloop
  endfacet
  facet normal 1 -0 0
    outer loop
      vertex 38 -28 2.005
      vertex 38 38 0
      vertex 38 28 2.005
    endloop
  endfacet
  facet normal 1 0 0
    outer loop
      vertex 38 -28 2.005
      vertex 38 -38 0
      vertex 38 38 0
    endloop
  endfacet
  facet normal 1 0 0
    outer loop
      vertex 38 -38 0
      vertex 38 -28 2.005
      vertex 38 -38 2.5
    endloop
  endfacet
  facet normal -1 0 0
    outer loop
      vertex -38 38 0
      vertex -38 28 2.005
      vertex -38 38 2.5
    endloop
  endfacet
  facet normal -1 0 0
    outer loop
      vertex -38 38 0
      vertex -38 -28 2.005
      vertex -38 28 2.005
    endloop
  endfacet
  facet normal -1 0 0
    outer loop
      vertex -38 -38 0
      vertex -38 -28 2.005
      vertex -38 38 0
    endloop
  endfacet
  facet normal -1 0 0
    outer loop
      vertex -38 -38 2.5
      vertex -38 -28 2.005
      vertex -38 -38 0
    endloop
  endfacet
  facet normal -1 0 0
    outer loop
      vertex -38 -28 2.005
      vertex -38 -38 2.5
      vertex -38 -28 2.5
    endloop
  endfacet
  facet normal -1 -0 0
    outer loop
      vertex -38 38 2.5
      vertex -38 28 2.005
      vertex -38 28 2.5
    endloop
  endfacet
  facet normal -0.731055 0 0.682318
    outer loop
      vertex -38 28 2.005
      vertex -10 -0.00499916 32.005
      vertex -10 0.00499916 32.005
    endloop
  endfacet
  facet normal -0.731055 0 0.682318
    outer loop
      vertex -10 -0.00499916 32.005
      vertex -38 28 2.005
      vertex -38 -28 2.005
    endloop
  endfacet
  facet normal 0 -1 0
    outer loop
      vertex -38 28 2.005
      vertex 38 28 2.5
      vertex -38 28 2.5
    endloop
  endfacet
  facet normal 0 -1 -0
    outer loop
      vertex 38 28 2.5
      vertex -38 28 2.005
      vertex 38 28 2.005
    endloop
  endfacet
  facet normal -0 0 1
    outer loop
      vertex -10 0.00499916 32.005
      vertex -5 -0.00499916 32.005
      vertex -5 0.00499916 32.005
    endloop
  endfacet
  facet normal 0 0 1
    outer loop
      vertex -5 -0.00499916 32.005
      vertex -10 0.00499916 32.005
      vertex -10 -0.00499916 32.005
    endloop
  endfacet
  facet normal -0 0 1
    outer loop
      vertex 5 0.00499916 32.005
      vertex 10 -0.00499916 32.005
      vertex 10 0.00499916 32.005
    endloop
  endfacet
  facet normal 0 0 1
    outer loop
      vertex 10 -0.00499916 32.005
      vertex 5 0.00499916 32.005
      vertex 5 -0.00499916 32.005
    endloop
  endfacet
  facet normal 0 -0.731173 0.682192
    outer loop
      vertex -10 -0.00499916 32.005
      vertex -5 -0.00966421 32
      vertex -5 -0.00499916 32.005
    endloop
  endfacet
  facet normal 0 -0.731116 0.682253
    outer loop
      vertex -5 -0.00966421 32
      vertex -38 -28 2.005
      vertex 5 -0.00966421 32
    endloop
  endfacet
  facet normal 1.14455e-07 -0.731116 0.682253
    outer loop
      vertex -38 -28 2.005
      vertex -5 -0.00966421 32
      vertex -10 -0.00499916 32.005
    endloop
  endfacet
  facet normal 0 -0.731173 0.682192
    outer loop
      vertex 5 -0.00966421 32
      vertex 10 -0.00499916 32.005
      vertex 5 -0.00499916 32.005
    endloop
  endfacet
  facet normal 0 -0.731116 0.682253
    outer loop
      vertex 38 -28 2.005
      vertex 5 -0.00966421 32
      vertex -38 -28 2.005
    endloop
  endfacet
  facet normal -1.14455e-07 -0.731116 0.682253
    outer loop
      vertex 5 -0.00966421 32
      vertex 38 -28 2.005
      vertex 10 -0.00499916 32.005
    endloop
  endfacet
  facet normal 0 1 -0
    outer loop
      vertex 38 -28 2.005
      vertex -38 -28 2.5
      vertex 38 -28 2.5
    endloop
  endfacet
  facet normal 0 1 0
    outer loop
      vertex -38 -28 2.5
      vertex 38 -28 2.005
      vertex -38 -28 2.005
    endloop
  endfacet
  facet normal 0 0.731173 0.682192
    outer loop
      vertex 10 0.00499916 32.005
      vertex 5 0.00966421 32
      vertex 5 0.00499916 32.005
    endloop
  endfacet
  facet normal 0 0.731116 0.682253
    outer loop
      vertex 5 0.00966421 32
      vertex 38 28 2.005
      vertex -5 0.00966421 32
    endloop
  endfacet
  facet normal -1.14455e-07 0.731116 0.682253
    outer loop
      vertex 38 28 2.005
      vertex 5 0.00966421 32
      vertex 10 0.00499916 32.005
    endloop
  endfacet
  facet normal 0 0.731173 0.682192
    outer loop
      vertex -5 0.00966421 32
      vertex -10 0.00499916 32.005
      vertex -5 0.00499916 32.005
    endloop
  endfacet
  facet normal -0 0.731116 0.682253
    outer loop
      vertex -38 28 2.005
      vertex -5 0.00966421 32
      vertex 38 28 2.005
    endloop
  endfacet
  facet normal 1.14455e-07 0.731116 0.682253
    outer loop
      vertex -5 0.00966421 32
      vertex -38 28 2.005
      vertex -10 0.00499916 32.005
    endloop
  endfacet
  facet normal 0.731055 -0 0.682318
    outer loop
      vertex 10 -0.00499916 32.005
      vertex 38 28 2.005
      vertex 10 0.00499916 32.005
    endloop
  endfacet
  facet normal 0.731055 0 0.682318
    outer loop
      vertex 38 28 2.005
      vertex 10 -0.00499916 32.005
      vertex 38 -28 2.005
    endloop
  endfacet
  facet normal -1 0 0
    outer loop
      vertex 36 -26 2
      vertex 36 26 2.005
      vertex 36 26 2
    endloop
  endfacet
  facet normal -1 -0 0
    outer loop
      vertex 36 26 2.005
      vertex 36 -26 2
      vertex 36 -26 2.005
    endloop
  endfacet
  facet normal 1 -0 0
    outer loop
      vertex -36 -26 2.005
      vertex -36 26 2
      vertex -36 26 2.005
    endloop
  endfacet
  facet normal 1 0 0
    outer loop
      vertex -36 26 2
      vertex -36 -26 2.005
      vertex -36 -26 2
    endloop
  endfacet
  facet normal 0.707107 0 -0.707107
    outer loop
      vertex -8 -0.00499916 30.005
      vertex -36 26 2.005
      vertex -8 0.00499916 30.005
    endloop
  endfacet
  facet normal 0.707107 0 -0.707107
    outer loop
      vertex -36 26 2.005
      vertex -8 -0.00499916 30.005
      vertex -36 -26 2.005
    endloop
  endfacet
  facet normal 0 -1 0
    outer loop
      vertex -36 26 2
      vertex 36 26 2.005
      vertex -36 26 2.005
    endloop
  endfacet
  facet normal 0 -1 -0
    outer loop
      vertex 36 26 2.005
      vertex -36 26 2
      vertex 36 26 2
    endloop
  endfacet
  facet normal 0 0 -1
    outer loop
      vertex -8 -0.00499916 30.005
      vertex 8 0.00499916 30.005
      vertex 8 -0.00499916 30.005
    endloop
  endfacet
  facet normal -0 0 -1
    outer loop
      vertex 8 0.00499916 30.005
      vertex -8 -0.00499916 30.005
      vertex -8 0.00499916 30.005
    endloop
  endfacet
  facet normal 0 0.732859 -0.680381
    outer loop
      vertex 36 -26 2.005
      vertex -8 -0.00499916 30.005
      vertex 8 -0.00499916 30.005
    endloop
  endfacet
  facet normal 0 0.732859 -0.680381
    outer loop
      vertex -8 -0.00499916 30.005
      vertex 36 -26 2.005
      vertex -36 -26 2.005
    endloop
  endfacet
  facet normal 0 1 -0
    outer loop
      vertex 36 -26 2
      vertex -36 -26 2.005
      vertex 36 -26 2.005
    endloop
  endfacet
  facet normal 0 1 0
    outer loop
      vertex -36 -26 2.005
      vertex 36 -26 2
      vertex -36 -26 2
    endloop
  endfacet
  facet normal 0 -0.732859 -0.680381
    outer loop
      vertex -36 26 2.005
      vertex 8 0.00499916 30.005
      vertex -8 0.00499916 30.005
    endloop
  endfacet
  facet normal 0 -0.732859 -0.680381
    outer loop
      vertex 8 0.00499916 30.005
      vertex -36 26 2.005
      vertex 36 26 2.005
    endloop
  endfacet
  facet normal -0.707107 0 -0.707107
    outer loop
      vertex 36 26 2.005
      vertex 8 -0.00499916 30.005
      vertex 8 0.00499916 30.005
    endloop
  endfacet
  facet normal -0.707107 0 -0.707107
    outer loop
      vertex 8 -0.00499916 30.005
      vertex 36 26 2.005
      vertex 36 -26 2.005
    endloop
  endfacet
  facet normal -0 0 1
    outer loop
      vertex -38 -28 2.5
      vertex 38 -38 2.5
      vertex 38 -28 2.5
    endloop
  endfacet
  facet normal 0 0 1
    outer loop
      vertex 38 -38 2.5
      vertex -38 -28 2.5
      vertex -38 -38 2.5
    endloop
  endfacet
  facet normal 0 0 -1
    outer loop
      vertex 38 -38 0
      vertex 35.5 -25.5 0
      vertex 38 38 0
    endloop
  endfacet
  facet normal 0 0 -1
    outer loop
      vertex 38 -38 0
      vertex -35.5 -25.5 0
      vertex 35.5 -25.5 0
    endloop
  endfacet
  facet normal -0 0 -1
    outer loop
      vertex -35.5 -25.5 0
      vertex -38 -38 0
      vertex -35.5 25.5 0
    endloop
  endfacet
  facet normal 0 0 -1
    outer loop
      vertex -38 -38 0
      vertex -35.5 -25.5 0
      vertex 38 -38 0
    endloop
  endfacet
  facet normal 0 0 -1
    outer loop
      vertex 35.5 25.5 0
      vertex 38 38 0
      vertex 35.5 -25.5 0
    endloop
  endfacet
  facet normal 0 0 -1
    outer loop
      vertex -35.5 25.5 0
      vertex 38 38 0
      vertex 35.5 25.5 0
    endloop
  endfacet
  facet normal 0 0 -1
    outer loop
      vertex -35.5 25.5 0
      vertex -38 38 0
      vertex 38 38 0
    endloop
  endfacet
  facet normal 0 0 -1
    outer loop
      vertex -38 38 0
      vertex -35.5 25.5 0
      vertex -38 -38 0
    endloop
  endfacet
  facet normal 0 0 -1
    outer loop
      vertex -33 -23 0
      vertex 33 23 0
      vertex 33 -23 0
    endloop
  endfacet
  facet normal -0 0 -1
    outer loop
      vertex 33 23 0
      vertex -33 -23 0
      vertex -33 23 0
    endloop
  endfacet
  facet normal 0 -1 0
    outer loop
      vertex -38 -38 0
      vertex 38 -38 2.5
      vertex -38 -38 2.5
    endloop
  endfacet
  facet normal 0 -1 -0
    outer loop
      vertex 38 -38 2.5
      vertex -38 -38 0
      vertex 38 -38 0
    endloop
  endfacet
  facet normal -0 0 1
    outer loop
      vertex -38 38 2.5
      vertex 38 28 2.5
      vertex 38 38 2.5
    endloop
  endfacet
  facet normal 0 0 1
    outer loop
      vertex 38 28 2.5
      vertex -38 38 2.5
      vertex -38 28 2.5
    endloop
  endfacet
  facet normal 0 1 -0
    outer loop
      vertex 38 38 0
      vertex -38 38 2.5
      vertex 38 38 2.5
    endloop
  endfacet
  facet normal 0 1 0
    outer loop
      vertex -38 38 2.5
      vertex 38 38 0
      vertex -38 38 0
    endloop
  endfacet
  facet normal 1 -0 0
    outer loop
      vertex 5 0.00499916 32.005
      vertex 5 2 32
      vertex 5 2 46
    endloop
  endfacet
  facet normal 1 0 0
    outer loop
      vertex 5 2 32
      vertex 5 0.00499916 32.005
      vertex 5 0.00966421 32
    endloop
  endfacet
  facet normal 1 0 0
    outer loop
      vertex 5 2 46
      vertex 5 -0.00499916 32.005
      vertex 5 0.00499916 32.005
    endloop
  endfacet
  facet normal 1 -0 0
    outer loop
      vertex 5 -2 46
      vertex 5 -0.00499916 32.005
      vertex 5 2 46
    endloop
  endfacet
  facet normal 1 0 0
    outer loop
      vertex 5 -2 32
      vertex 5 -0.00499916 32.005
      vertex 5 -2 46
    endloop
  endfacet
  facet normal 1 0 0
    outer loop
      vertex 5 -0.00499916 32.005
      vertex 5 -2 32
      vertex 5 -0.00966421 32
    endloop
  endfacet
  facet normal -0 0 1
    outer loop
      vertex -5 2 46
      vertex 5 -2 46
      vertex 5 2 46
    endloop
  endfacet
  facet normal 0 0 1
    outer loop
      vertex 5 -2 46
      vertex -5 2 46
      vertex -5 -2 46
    endloop
  endfacet
  facet normal 0 0 -1
    outer loop
      vertex -5 0.00966421 32
      vertex 5 2 32
      vertex 5 0.00966421 32
    endloop
  endfacet
  facet normal -0 0 -1
    outer loop
      vertex 5 2 32
      vertex -5 0.00966421 32
      vertex -5 2 32
    endloop
  endfacet
  facet normal 0 0 -1
    outer loop
      vertex -5 -2 32
      vertex 5 -0.00966421 32
      vertex 5 -2 32
    endloop
  endfacet
  facet normal -0 0 -1
    outer loop
      vertex 5 -0.00966421 32
      vertex -5 -2 32
      vertex -5 -0.00966421 32
    endloop
  endfacet
  facet normal -1 0 0
    outer loop
      vertex -5 0.00499916 32.005
      vertex -5 2 32
      vertex -5 0.00966421 32
    endloop
  endfacet
  facet normal -1 0 0
    outer loop
      vertex -5 2 32
      vertex -5 0.00499916 32.005
      vertex -5 2 46
    endloop
  endfacet
  facet normal -1 0 0
    outer loop
      vertex -5 -0.00499916 32.005
      vertex -5 2 46
      vertex -5 0.00499916 32.005
    endloop
  endfacet
  facet normal -1 0 0
    outer loop
      vertex -5 -2 32
      vertex -5 -0.00499916 32.005
      vertex -5 -0.00966421 32
    endloop
  endfacet
  facet normal -1 -0 0
    outer loop
      vertex -5 -0.00499916 32.005
      vertex -5 -2 32
      vertex -5 -2 46
    endloop
  endfacet
  facet normal -1 0 0
    outer loop
      vertex -5 -0.00499916 32.005
      vertex -5 -2 46
      vertex -5 2 46
    endloop
  endfacet
  facet normal 0 1 0
    outer loop
      vertex 5 2 46
      vertex 0 2 43
      vertex -5 2 46
    endloop
  endfacet
  facet normal 0 1 0
    outer loop
      vertex 5 2 46
      vertex 0.313585 2 42.9836
      vertex 0 2 43
    endloop
  endfacet
  facet normal 0 1 0
    outer loop
      vertex 5 2 46
      vertex 0.623734 2 42.9344
      vertex 0.313585 2 42.9836
    endloop
  endfacet
  facet normal 0 1 0
    outer loop
      vertex 5 2 46
      vertex 0.927051 2 42.8532
      vertex 0.623734 2 42.9344
    endloop
  endfacet
  facet normal 0 1 0
    outer loop
      vertex 5 2 46
      vertex 1.22021 2 42.7406
      vertex 0.927051 2 42.8532
    endloop
  endfacet
  facet normal 0 1 0
    outer loop
      vertex 5 2 46
      vertex 1.5 2 42.5981
      vertex 1.22021 2 42.7406
    endloop
  endfacet
  facet normal 0 1 0
    outer loop
      vertex 5 2 46
      vertex 1.76336 2 42.4271
      vertex 1.5 2 42.5981
    endloop
  endfacet
  facet normal 0 1 0
    outer loop
      vertex 5 2 46
      vertex 2.00739 2 42.2294
      vertex 1.76336 2 42.4271
    endloop
  endfacet
  facet normal 0 1 0
    outer loop
      vertex 5 2 46
      vertex 2.22943 2 42.0074
      vertex 2.00739 2 42.2294
    endloop
  endfacet
  facet normal 0 1 0
    outer loop
      vertex 5 2 46
      vertex 2.42705 2 41.7634
      vertex 2.22943 2 42.0074
    endloop
  endfacet
  facet normal 0 1 0
    outer loop
      vertex 5 2 46
      vertex 2.59808 2 41.5
      vertex 2.42705 2 41.7634
    endloop
  endfacet
  facet normal 0 1 0
    outer loop
      vertex 5 2 46
      vertex 2.74064 2 41.2202
      vertex 2.59808 2 41.5
    endloop
  endfacet
  facet normal 0 1 0
    outer loop
      vertex 5 2 46
      vertex 2.85317 2 40.9271
      vertex 2.74064 2 41.2202
    endloop
  endfacet
  facet normal 0 1 0
    outer loop
      vertex 5 2 46
      vertex 2.93444 2 40.6237
      vertex 2.85317 2 40.9271
    endloop
  endfacet
  facet normal 0 1 0
    outer loop
      vertex 5 2 46
      vertex 2.98357 2 40.3136
      vertex 2.93444 2 40.6237
    endloop
  endfacet
  facet normal 0 1 0
    outer loop
      vertex 5 2 46
      vertex 3 2 40
      vertex 2.98357 2 40.3136
    endloop
  endfacet
  facet normal 0 1 0
    outer loop
      vertex 5 2 46
      vertex 2.98357 2 39.6864
      vertex 3 2 40
    endloop
  endfacet
  facet normal 0 1 -0
    outer loop
      vertex 5 2 32
      vertex 2.98357 2 39.6864
      vertex 5 2 46
    endloop
  endfacet
  facet normal 0 1 0
    outer loop
      vertex 2.98357 2 39.6864
      vertex 5 2 32
      vertex 2.93444 2 39.3763
    endloop
  endfacet
  facet normal 0 1 0
    outer loop
      vertex 0.313585 2 37.0164
      vertex 5 2 32
      vertex 0 2 37
    endloop
  endfacet
  facet normal 0 1 0
    outer loop
      vertex 0.623734 2 37.0656
      vertex 5 2 32
      vertex 0.313585 2 37.0164
    endloop
  endfacet
  facet normal 0 1 0
    outer loop
      vertex 0.927051 2 37.1468
      vertex 5 2 32
      vertex 0.623734 2 37.0656
    endloop
  endfacet
  facet normal 0 1 0
    outer loop
      vertex 1.22021 2 37.2594
      vertex 5 2 32
      vertex 0.927051 2 37.1468
    endloop
  endfacet
  facet normal 0 1 0
    outer loop
      vertex 1.5 2 37.4019
      vertex 5 2 32
      vertex 1.22021 2 37.2594
    endloop
  endfacet
  facet normal 0 1 0
    outer loop
      vertex 1.76336 2 37.5729
      vertex 5 2 32
      vertex 1.5 2 37.4019
    endloop
  endfacet
  facet normal 0 1 0
    outer loop
      vertex 2.00739 2 37.7706
      vertex 5 2 32
      vertex 1.76336 2 37.5729
    endloop
  endfacet
  facet normal 0 1 0
    outer loop
      vertex 2.22943 2 37.9926
      vertex 5 2 32
      vertex 2.00739 2 37.7706
    endloop
  endfacet
  facet normal 0 1 0
    outer loop
      vertex 2.42705 2 38.2366
      vertex 5 2 32
      vertex 2.22943 2 37.9926
    endloop
  endfacet
  facet normal 0 1 0
    outer loop
      vertex 2.59808 2 38.5
      vertex 5 2 32
      vertex 2.42705 2 38.2366
    endloop
  endfacet
  facet normal 0 1 0
    outer loop
      vertex 2.74064 2 38.7798
      vertex 5 2 32
      vertex 2.59808 2 38.5
    endloop
  endfacet
  facet normal 0 1 0
    outer loop
      vertex 2.85317 2 39.0729
      vertex 5 2 32
      vertex 2.74064 2 38.7798
    endloop
  endfacet
  facet normal 0 1 0
    outer loop
      vertex 2.93444 2 39.3763
      vertex 5 2 32
      vertex 2.85317 2 39.0729
    endloop
  endfacet
  facet normal 0 1 -0
    outer loop
      vertex -0.313585 2 42.9836
      vertex -5 2 46
      vertex 0 2 43
    endloop
  endfacet
  facet normal 0 1 -0
    outer loop
      vertex -0.623734 2 42.9344
      vertex -5 2 46
      vertex -0.313585 2 42.9836
    endloop
  endfacet
  facet normal 0 1 -0
    outer loop
      vertex -0.927051 2 42.8532
      vertex -5 2 46
      vertex -0.623734 2 42.9344
    endloop
  endfacet
  facet normal 0 1 -0
    outer loop
      vertex -1.22021 2 42.7406
      vertex -5 2 46
      vertex -0.927051 2 42.8532
    endloop
  endfacet
  facet normal 0 1 -0
    outer loop
      vertex -1.5 2 42.5981
      vertex -5 2 46
      vertex -1.22021 2 42.7406
    endloop
  endfacet
  facet normal 0 1 -0
    outer loop
      vertex -1.76336 2 42.4271
      vertex -5 2 46
      vertex -1.5 2 42.5981
    endloop
  endfacet
  facet normal 0 1 -0
    outer loop
      vertex -2.00739 2 42.2294
      vertex -5 2 46
      vertex -1.76336 2 42.4271
    endloop
  endfacet
  facet normal 0 1 -0
    outer loop
      vertex -2.22943 2 42.0074
      vertex -5 2 46
      vertex -2.00739 2 42.2294
    endloop
  endfacet
  facet normal 0 1 -0
    outer loop
      vertex -2.42705 2 41.7634
      vertex -5 2 46
      vertex -2.22943 2 42.0074
    endloop
  endfacet
  facet normal 0 1 -0
    outer loop
      vertex -2.59808 2 41.5
      vertex -5 2 46
      vertex -2.42705 2 41.7634
    endloop
  endfacet
  facet normal 0 1 -0
    outer loop
      vertex -2.74064 2 41.2202
      vertex -5 2 46
      vertex -2.59808 2 41.5
    endloop
  endfacet
  facet normal 0 1 -0
    outer loop
      vertex -2.85317 2 40.9271
      vertex -5 2 46
      vertex -2.74064 2 41.2202
    endloop
  endfacet
  facet normal 0 1 -0
    outer loop
      vertex -2.93444 2 40.6237
      vertex -5 2 46
      vertex -2.85317 2 40.9271
    endloop
  endfacet
  facet normal 0 1 -0
    outer loop
      vertex -2.98357 2 40.3136
      vertex -5 2 46
      vertex -2.93444 2 40.6237
    endloop
  endfacet
  facet normal 0 1 -0
    outer loop
      vertex -3 2 40
      vertex -5 2 46
      vertex -2.98357 2 40.3136
    endloop
  endfacet
  facet normal 0 1 0
    outer loop
      vertex -2.98357 2 39.6864
      vertex -5 2 46
      vertex -3 2 40
    endloop
  endfacet
  facet normal 0 1 0
    outer loop
      vertex -5 2 32
      vertex -2.98357 2 39.6864
      vertex -2.93444 2 39.3763
    endloop
  endfacet
  facet normal 0 1 0
    outer loop
      vertex -5 2 32
      vertex -2.93444 2 39.3763
      vertex -2.85317 2 39.0729
    endloop
  endfacet
  facet normal 0 1 0
    outer loop
      vertex -5 2 32
      vertex 0 2 37
      vertex 5 2 32
    endloop
  endfacet
  facet normal 0 1 0
    outer loop
      vertex 0 2 37
      vertex -5 2 32
      vertex -0.313585 2 37.0164
    endloop
  endfacet
  facet normal 0 1 0
    outer loop
      vertex -0.313585 2 37.0164
      vertex -5 2 32
      vertex -0.623734 2 37.0656
    endloop
  endfacet
  facet normal 0 1 0
    outer loop
      vertex -0.623734 2 37.0656
      vertex -5 2 32
      vertex -0.927051 2 37.1468
    endloop
  endfacet
  facet normal 0 1 0
    outer loop
      vertex -0.927051 2 37.1468
      vertex -5 2 32
      vertex -1.22021 2 37.2594
    endloop
  endfacet
  facet normal 0 1 0
    outer loop
      vertex -1.22021 2 37.2594
      vertex -5 2 32
      vertex -1.5 2 37.4019
    endloop
  endfacet
  facet normal 0 1 0
    outer loop
      vertex -1.5 2 37.4019
      vertex -5 2 32
      vertex -1.76336 2 37.5729
    endloop
  endfacet
  facet normal 0 1 0
    outer loop
      vertex -2.98357 2 39.6864
      vertex -5 2 32
      vertex -5 2 46
    endloop
  endfacet
  facet normal 0 1 0
    outer loop
      vertex -2.74064 2 38.7798
      vertex -5 2 32
      vertex -2.85317 2 39.0729
    endloop
  endfacet
  facet normal 0 1 0
    outer loop
      vertex -2.59808 2 38.5
      vertex -5 2 32
      vertex -2.74064 2 38.7798
    endloop
  endfacet
  facet normal 0 1 0
    outer loop
      vertex -2.42705 2 38.2366
      vertex -5 2 32
      vertex -2.59808 2 38.5
    endloop
  endfacet
  facet normal 0 1 0
    outer loop
      vertex -2.22943 2 37.9926
      vertex -5 2 32
      vertex -2.42705 2 38.2366
    endloop
  endfacet
  facet normal 0 1 0
    outer loop
      vertex -2.00739 2 37.7706
      vertex -5 2 32
      vertex -2.22943 2 37.9926
    endloop
  endfacet
  facet normal 0 1 0
    outer loop
      vertex -1.76336 2 37.5729
      vertex -5 2 32
      vertex -2.00739 2 37.7706
    endloop
  endfacet
  facet normal 0 -1 0
    outer loop
      vertex -5 -2 46
      vertex 0 -2 43
      vertex 5 -2 46
    endloop
  endfacet
  facet normal 0 -1 0
    outer loop
      vertex -5 -2 46
      vertex -0.313585 -2 42.9836
      vertex 0 -2 43
    endloop
  endfacet
  facet normal 0 -1 0
    outer loop
      vertex -5 -2 46
      vertex -0.623734 -2 42.9344
      vertex -0.313585 -2 42.9836
    endloop
  endfacet
  facet normal 0 -1 0
    outer loop
      vertex -5 -2 46
      vertex -0.927051 -2 42.8532
      vertex -0.623734 -2 42.9344
    endloop
  endfacet
  facet normal 0 -1 0
    outer loop
      vertex -5 -2 46
      vertex -1.22021 -2 42.7406
      vertex -0.927051 -2 42.8532
    endloop
  endfacet
  facet normal 0 -1 0
    outer loop
      vertex -5 -2 46
      vertex -1.5 -2 42.5981
      vertex -1.22021 -2 42.7406
    endloop
  endfacet
  facet normal 0 -1 0
    outer loop
      vertex -5 -2 46
      vertex -1.76336 -2 42.4271
      vertex -1.5 -2 42.5981
    endloop
  endfacet
  facet normal 0 -1 0
    outer loop
      vertex -5 -2 46
      vertex -2.00739 -2 42.2294
      vertex -1.76336 -2 42.4271
    endloop
  endfacet
  facet normal 0 -1 0
    outer loop
      vertex -5 -2 46
      vertex -2.22943 -2 42.0074
      vertex -2.00739 -2 42.2294
    endloop
  endfacet
  facet normal 0 -1 0
    outer loop
      vertex -5 -2 46
      vertex -2.42705 -2 41.7634
      vertex -2.22943 -2 42.0074
    endloop
  endfacet
  facet normal 0 -1 0
    outer loop
      vertex -5 -2 46
      vertex -2.59808 -2 41.5
      vertex -2.42705 -2 41.7634
    endloop
  endfacet
  facet normal 0 -1 0
    outer loop
      vertex -5 -2 46
      vertex -2.74064 -2 41.2202
      vertex -2.59808 -2 41.5
    endloop
  endfacet
  facet normal 0 -1 0
    outer loop
      vertex -5 -2 46
      vertex -2.85317 -2 40.9271
      vertex -2.74064 -2 41.2202
    endloop
  endfacet
  facet normal 0 -1 0
    outer loop
      vertex -5 -2 46
      vertex -2.93444 -2 40.6237
      vertex -2.85317 -2 40.9271
    endloop
  endfacet
  facet normal 0 -1 0
    outer loop
      vertex -5 -2 46
      vertex -2.98357 -2 40.3136
      vertex -2.93444 -2 40.6237
    endloop
  endfacet
  facet normal 0 -1 0
    outer loop
      vertex -5 -2 46
      vertex -3 -2 40
      vertex -2.98357 -2 40.3136
    endloop
  endfacet
  facet normal 0 -1 0
    outer loop
      vertex -5 -2 46
      vertex -2.98357 -2 39.6864
      vertex -3 -2 40
    endloop
  endfacet
  facet normal 0 -1 0
    outer loop
      vertex -5 -2 32
      vertex -2.98357 -2 39.6864
      vertex -5 -2 46
    endloop
  endfacet
  facet normal 0 -1 -0
    outer loop
      vertex -2.98357 -2 39.6864
      vertex -5 -2 32
      vertex -2.93444 -2 39.3763
    endloop
  endfacet
  facet normal 0 -1 -0
    outer loop
      vertex -0.313585 -2 37.0164
      vertex -5 -2 32
      vertex 0 -2 37
    endloop
  endfacet
  facet normal 0 -1 -0
    outer loop
      vertex -0.623734 -2 37.0656
      vertex -5 -2 32
      vertex -0.313585 -2 37.0164
    endloop
  endfacet
  facet normal 0 -1 -0
    outer loop
      vertex -0.927051 -2 37.1468
      vertex -5 -2 32
      vertex -0.623734 -2 37.0656
    endloop
  endfacet
  facet normal 0 -1 -0
    outer loop
      vertex -1.22021 -2 37.2594
      vertex -5 -2 32
      vertex -0.927051 -2 37.1468
    endloop
  endfacet
  facet normal 0 -1 -0
    outer loop
      vertex -1.5 -2 37.4019
      vertex -5 -2 32
      vertex -1.22021 -2 37.2594
    endloop
  endfacet
  facet normal 0 -1 -0
    outer loop
      vertex -1.76336 -2 37.5729
      vertex -5 -2 32
      vertex -1.5 -2 37.4019
    endloop
  endfacet
  facet normal 0 -1 -0
    outer loop
      vertex -2.00739 -2 37.7706
      vertex -5 -2 32
      vertex -1.76336 -2 37.5729
    endloop
  endfacet
  facet normal 0 -1 -0
    outer loop
      vertex -2.22943 -2 37.9926
      vertex -5 -2 32
      vertex -2.00739 -2 37.7706
    endloop
  endfacet
  facet normal 0 -1 -0
    outer loop
      vertex -2.42705 -2 38.2366
      vertex -5 -2 32
      vertex -2.22943 -2 37.9926
    endloop
  endfacet
  facet normal 0 -1 -0
    outer loop
      vertex -2.59808 -2 38.5
      vertex -5 -2 32
      vertex -2.42705 -2 38.2366
    endloop
  endfacet
  facet normal 0 -1 -0
    outer loop
      vertex -2.74064 -2 38.7798
      vertex -5 -2 32
      vertex -2.59808 -2 38.5
    endloop
  endfacet
  facet normal 0 -1 -0
    outer loop
      vertex -2.85317 -2 39.0729
      vertex -5 -2 32
      vertex -2.74064 -2 38.7798
    endloop
  endfacet
  facet normal 0 -1 -0
    outer loop
      vertex -2.93444 -2 39.3763
      vertex -5 -2 32
      vertex -2.85317 -2 39.0729
    endloop
  endfacet
  facet normal 0 -1 0
    outer loop
      vertex 0.313585 -2 42.9836
      vertex 5 -2 46
      vertex 0 -2 43
    endloop
  endfacet
  facet normal 0 -1 0
    outer loop
      vertex 0.623734 -2 42.9344
      vertex 5 -2 46
      vertex 0.313585 -2 42.9836
    endloop
  endfacet
  facet normal 0 -1 0
    outer loop
      vertex 0.927051 -2 42.8532
      vertex 5 -2 46
      vertex 0.623734 -2 42.9344
    endloop
  endfacet
  facet normal 0 -1 0
    outer loop
      vertex 1.22021 -2 42.7406
      vertex 5 -2 46
      vertex 0.927051 -2 42.8532
    endloop
  endfacet
  facet normal 0 -1 0
    outer loop
      vertex 1.5 -2 42.5981
      vertex 5 -2 46
      vertex 1.22021 -2 42.7406
    endloop
  endfacet
  facet normal 0 -1 0
    outer loop
      vertex 1.76336 -2 42.4271
      vertex 5 -2 46
      vertex 1.5 -2 42.5981
    endloop
  endfacet
  facet normal 0 -1 0
    outer loop
      vertex 2.00739 -2 42.2294
      vertex 5 -2 46
      vertex 1.76336 -2 42.4271
    endloop
  endfacet
  facet normal 0 -1 0
    outer loop
      vertex 2.22943 -2 42.0074
      vertex 5 -2 46
      vertex 2.00739 -2 42.2294
    endloop
  endfacet
  facet normal 0 -1 0
    outer loop
      vertex 2.42705 -2 41.7634
      vertex 5 -2 46
      vertex 2.22943 -2 42.0074
    endloop
  endfacet
  facet normal 0 -1 0
    outer loop
      vertex 2.59808 -2 41.5
      vertex 5 -2 46
      vertex 2.42705 -2 41.7634
    endloop
  endfacet
  facet normal 0 -1 0
    outer loop
      vertex 2.74064 -2 41.2202
      vertex 5 -2 46
      vertex 2.59808 -2 41.5
    endloop
  endfacet
  facet normal 0 -1 0
    outer loop
      vertex 2.85317 -2 40.9271
      vertex 5 -2 46
      vertex 2.74064 -2 41.2202
    endloop
  endfacet
  facet normal 0 -1 0
    outer loop
      vertex 2.93444 -2 40.6237
      vertex 5 -2 46
      vertex 2.85317 -2 40.9271
    endloop
  endfacet
  facet normal 0 -1 0
    outer loop
      vertex 2.98357 -2 40.3136
      vertex 5 -2 46
      vertex 2.93444 -2 40.6237
    endloop
  endfacet
  facet normal 0 -1 0
    outer loop
      vertex 3 -2 40
      vertex 5 -2 46
      vertex 2.98357 -2 40.3136
    endloop
  endfacet
  facet normal 0 -1 0
    outer loop
      vertex 2.98357 -2 39.6864
      vertex 5 -2 46
      vertex 3 -2 40
    endloop
  endfacet
  facet normal 0 -1 0
    outer loop
      vertex 5 -2 32
      vertex 2.98357 -2 39.6864
      vertex 2.93444 -2 39.3763
    endloop
  endfacet
  facet normal 0 -1 0
    outer loop
      vertex 5 -2 32
      vertex 2.93444 -2 39.3763
      vertex 2.85317 -2 39.0729
    endloop
  endfacet
  facet normal 0 -1 0
    outer loop
      vertex 5 -2 32
      vertex 0 -2 37
      vertex -5 -2 32
    endloop
  endfacet
  facet normal 0 -1 0
    outer loop
      vertex 0 -2 37
      vertex 5 -2 32
      vertex 0.313585 -2 37.0164
    endloop
  endfacet
  facet normal 0 -1 0
    outer loop
      vertex 0.313585 -2 37.0164
      vertex 5 -2 32
      vertex 0.623734 -2 37.0656
    endloop
  endfacet
  facet normal 0 -1 0
    outer loop
      vertex 0.623734 -2 37.0656
      vertex 5 -2 32
      vertex 0.927051 -2 37.1468
    endloop
  endfacet
  facet normal 0 -1 0
    outer loop
      vertex 0.927051 -2 37.1468
      vertex 5 -2 32
      vertex 1.22021 -2 37.2594
    endloop
  endfacet
  facet normal 0 -1 0
    outer loop
      vertex 1.22021 -2 37.2594
      vertex 5 -2 32
      vertex 1.5 -2 37.4019
    endloop
  endfacet
  facet normal 0 -1 0
    outer loop
      vertex 1.5 -2 37.4019
      vertex 5 -2 32
      vertex 1.76336 -2 37.5729
    endloop
  endfacet
  facet normal 0 -1 0
    outer loop
      vertex 2.98357 -2 39.6864
      vertex 5 -2 32
      vertex 5 -2 46
    endloop
  endfacet
  facet normal 0 -1 0
    outer loop
      vertex 2.74064 -2 38.7798
      vertex 5 -2 32
      vertex 2.85317 -2 39.0729
    endloop
  endfacet
  facet normal 0 -1 0
    outer loop
      vertex 2.59808 -2 38.5
      vertex 5 -2 32
      vertex 2.74064 -2 38.7798
    endloop
  endfacet
  facet normal 0 -1 0
    outer loop
      vertex 2.42705 -2 38.2366
      vertex 5 -2 32
      vertex 2.59808 -2 38.5
    endloop
  endfacet
  facet normal 0 -1 0
    outer loop
      vertex 2.22943 -2 37.9926
      vertex 5 -2 32
      vertex 2.42705 -2 38.2366
    endloop
  endfacet
  facet normal 0 -1 0
    outer loop
      vertex 2.00739 -2 37.7706
      vertex 5 -2 32
      vertex 2.22943 -2 37.9926
    endloop
  endfacet
  facet normal 0 -1 0
    outer loop
      vertex 1.76336 -2 37.5729
      vertex 5 -2 32
      vertex 2.00739 -2 37.7706
    endloop
  endfacet
  facet normal 0.156674 0 -0.98765
    outer loop
      vertex -0.623734 -2 42.9344
      vertex -0.313585 2 42.9836
      vertex -0.313585 -2 42.9836
    endloop
  endfacet
  facet normal 0.156674 0 -0.98765
    outer loop
      vertex -0.313585 2 42.9836
      vertex -0.623734 -2 42.9344
      vertex -0.623734 2 42.9344
    endloop
  endfacet
  facet normal -0.987681 0 -0.156481
    outer loop
      vertex 2.98357 -2 40.3136
      vertex 2.93444 2 40.6237
      vertex 2.98357 2 40.3136
    endloop
  endfacet
  facet normal -0.987681 -0 -0.156481
    outer loop
      vertex 2.93444 2 40.6237
      vertex 2.98357 -2 40.3136
      vertex 2.93444 -2 40.6237
    endloop
  endfacet
  facet normal -0.99863 0 -0.0523198
    outer loop
      vertex 3 -2 40
      vertex 2.98357 2 40.3136
      vertex 3 2 40
    endloop
  endfacet
  facet normal -0.99863 -0 -0.0523198
    outer loop
      vertex 2.98357 2 40.3136
      vertex 3 -2 40
      vertex 2.98357 -2 40.3136
    endloop
  endfacet
  facet normal 0.453838 0 -0.891084
    outer loop
      vertex -1.5 -2 42.5981
      vertex -1.22021 2 42.7406
      vertex -1.22021 -2 42.7406
    endloop
  endfacet
  facet normal 0.453838 0 -0.891084
    outer loop
      vertex -1.22021 2 42.7406
      vertex -1.5 -2 42.5981
      vertex -1.5 2 42.5981
    endloop
  endfacet
  facet normal 0.707043 0 -0.70717
    outer loop
      vertex -2.22943 -2 42.0074
      vertex -2.00739 2 42.2294
      vertex -2.00739 -2 42.2294
    endloop
  endfacet
  facet normal 0.707043 0 -0.70717
    outer loop
      vertex -2.00739 2 42.2294
      vertex -2.22943 -2 42.0074
      vertex -2.22943 2 42.0074
    endloop
  endfacet
  facet normal -0.891013 0 0.453977
    outer loop
      vertex 2.59808 -2 38.5
      vertex 2.74064 2 38.7798
      vertex 2.59808 2 38.5
    endloop
  endfacet
  facet normal -0.891013 0 0.453977
    outer loop
      vertex 2.74064 2 38.7798
      vertex 2.59808 -2 38.5
      vertex 2.74064 -2 38.7798
    endloop
  endfacet
  facet normal 0.258601 0 0.965984
    outer loop
      vertex -0.927051 2 37.1468
      vertex -0.623734 -2 37.0656
      vertex -0.623734 2 37.0656
    endloop
  endfacet
  facet normal 0.258601 0 0.965984
    outer loop
      vertex -0.623734 -2 37.0656
      vertex -0.927051 2 37.1468
      vertex -0.927051 -2 37.1468
    endloop
  endfacet
  facet normal 0.93356 -0 0.358422
    outer loop
      vertex -2.85317 -2 39.0729
      vertex -2.74064 2 38.7798
      vertex -2.85317 2 39.0729
    endloop
  endfacet
  facet normal 0.93356 0 0.358422
    outer loop
      vertex -2.74064 2 38.7798
      vertex -2.85317 -2 39.0729
      vertex -2.74064 -2 38.7798
    endloop
  endfacet
  facet normal 0.258601 0 -0.965984
    outer loop
      vertex -0.927051 -2 42.8532
      vertex -0.623734 2 42.9344
      vertex -0.623734 -2 42.9344
    endloop
  endfacet
  facet normal 0.258601 0 -0.965984
    outer loop
      vertex -0.623734 2 42.9344
      vertex -0.927051 -2 42.8532
      vertex -0.927051 2 42.8532
    endloop
  endfacet
  facet normal 0.052227 0 -0.998635
    outer loop
      vertex -0.313585 -2 42.9836
      vertex 0 2 43
      vertex 0 -2 43
    endloop
  endfacet
  facet normal 0.052227 0 -0.998635
    outer loop
      vertex 0 2 43
      vertex -0.313585 -2 42.9836
      vertex -0.313585 2 42.9836
    endloop
  endfacet
  facet normal -0.358553 0 0.933509
    outer loop
      vertex 0.927051 2 37.1468
      vertex 1.22021 -2 37.2594
      vertex 1.22021 2 37.2594
    endloop
  endfacet
  facet normal -0.358553 0 0.933509
    outer loop
      vertex 1.22021 -2 37.2594
      vertex 0.927051 2 37.1468
      vertex 0.927051 -2 37.1468
    endloop
  endfacet
  facet normal -0.052227 0 -0.998635
    outer loop
      vertex 0 -2 43
      vertex 0.313585 2 42.9836
      vertex 0.313585 -2 42.9836
    endloop
  endfacet
  facet normal -0.052227 0 -0.998635
    outer loop
      vertex 0.313585 2 42.9836
      vertex 0 -2 43
      vertex 0 2 43
    endloop
  endfacet
  facet normal -0.258601 0 0.965984
    outer loop
      vertex 0.623734 2 37.0656
      vertex 0.927051 -2 37.1468
      vertex 0.927051 2 37.1468
    endloop
  endfacet
  facet normal -0.258601 0 0.965984
    outer loop
      vertex 0.927051 -2 37.1468
      vertex 0.623734 2 37.0656
      vertex 0.623734 -2 37.0656
    endloop
  endfacet
  facet normal -0.987681 0 0.156481
    outer loop
      vertex 2.93444 -2 39.3763
      vertex 2.98357 2 39.6864
      vertex 2.93444 2 39.3763
    endloop
  endfacet
  facet normal -0.987681 0 0.156481
    outer loop
      vertex 2.98357 2 39.6864
      vertex 2.93444 -2 39.3763
      vertex 2.98357 -2 39.6864
    endloop
  endfacet
  facet normal -0.965946 0 -0.258742
    outer loop
      vertex 2.93444 -2 40.6237
      vertex 2.85317 2 40.9271
      vertex 2.93444 2 40.6237
    endloop
  endfacet
  facet normal -0.965946 -0 -0.258742
    outer loop
      vertex 2.85317 2 40.9271
      vertex 2.93444 -2 40.6237
      vertex 2.85317 -2 40.9271
    endloop
  endfacet
  facet normal -0.358553 0 -0.933509
    outer loop
      vertex 0.927051 -2 42.8532
      vertex 1.22021 2 42.7406
      vertex 1.22021 -2 42.7406
    endloop
  endfacet
  facet normal -0.358553 0 -0.933509
    outer loop
      vertex 1.22021 2 42.7406
      vertex 0.927051 -2 42.8532
      vertex 0.927051 2 42.8532
    endloop
  endfacet
  facet normal 0.987681 -0 0.156481
    outer loop
      vertex -2.98357 -2 39.6864
      vertex -2.93444 2 39.3763
      vertex -2.98357 2 39.6864
    endloop
  endfacet
  facet normal 0.987681 0 0.156481
    outer loop
      vertex -2.93444 2 39.3763
      vertex -2.98357 -2 39.6864
      vertex -2.93444 -2 39.3763
    endloop
  endfacet
  facet normal 0.62949 0 -0.777008
    outer loop
      vertex -2.00739 -2 42.2294
      vertex -1.76336 2 42.4271
      vertex -1.76336 -2 42.4271
    endloop
  endfacet
  facet normal 0.62949 0 -0.777008
    outer loop
      vertex -1.76336 2 42.4271
      vertex -2.00739 -2 42.2294
      vertex -2.00739 2 42.2294
    endloop
  endfacet
  facet normal -0.838705 0 0.544585
    outer loop
      vertex 2.42705 -2 38.2366
      vertex 2.59808 2 38.5
      vertex 2.42705 2 38.2366
    endloop
  endfacet
  facet normal -0.838705 0 0.544585
    outer loop
      vertex 2.59808 2 38.5
      vertex 2.42705 -2 38.2366
      vertex 2.59808 -2 38.5
    endloop
  endfacet
  facet normal 0.544576 0 0.838711
    outer loop
      vertex -1.76336 2 37.5729
      vertex -1.5 -2 37.4019
      vertex -1.5 2 37.4019
    endloop
  endfacet
  facet normal 0.544576 0 0.838711
    outer loop
      vertex -1.5 -2 37.4019
      vertex -1.76336 2 37.5729
      vertex -1.76336 -2 37.5729
    endloop
  endfacet
  facet normal 0.891013 0 -0.453977
    outer loop
      vertex -2.59808 -2 41.5
      vertex -2.74064 2 41.2202
      vertex -2.59808 2 41.5
    endloop
  endfacet
  facet normal 0.891013 0 -0.453977
    outer loop
      vertex -2.74064 2 41.2202
      vertex -2.59808 -2 41.5
      vertex -2.74064 -2 41.2202
    endloop
  endfacet
  facet normal -0.93356 0 -0.358422
    outer loop
      vertex 2.85317 -2 40.9271
      vertex 2.74064 2 41.2202
      vertex 2.85317 2 40.9271
    endloop
  endfacet
  facet normal -0.93356 -0 -0.358422
    outer loop
      vertex 2.74064 2 41.2202
      vertex 2.85317 -2 40.9271
      vertex 2.74064 -2 41.2202
    endloop
  endfacet
  facet normal 0.965946 -0 0.258742
    outer loop
      vertex -2.93444 -2 39.3763
      vertex -2.85317 2 39.0729
      vertex -2.93444 2 39.3763
    endloop
  endfacet
  facet normal 0.965946 0 0.258742
    outer loop
      vertex -2.85317 2 39.0729
      vertex -2.93444 -2 39.3763
      vertex -2.85317 -2 39.0729
    endloop
  endfacet
  facet normal -0.93356 0 0.358422
    outer loop
      vertex 2.74064 -2 38.7798
      vertex 2.85317 2 39.0729
      vertex 2.74064 2 38.7798
    endloop
  endfacet
  facet normal -0.93356 0 0.358422
    outer loop
      vertex 2.85317 2 39.0729
      vertex 2.74064 -2 38.7798
      vertex 2.85317 -2 39.0729
    endloop
  endfacet
  facet normal -0.838705 0 -0.544585
    outer loop
      vertex 2.59808 -2 41.5
      vertex 2.42705 2 41.7634
      vertex 2.59808 2 41.5
    endloop
  endfacet
  facet normal -0.838705 -0 -0.544585
    outer loop
      vertex 2.42705 2 41.7634
      vertex 2.59808 -2 41.5
      vertex 2.42705 -2 41.7634
    endloop
  endfacet
  facet normal -0.777095 0 -0.629383
    outer loop
      vertex 2.42705 -2 41.7634
      vertex 2.22943 2 42.0074
      vertex 2.42705 2 41.7634
    endloop
  endfacet
  facet normal -0.777095 -0 -0.629383
    outer loop
      vertex 2.22943 2 42.0074
      vertex 2.42705 -2 41.7634
      vertex 2.22943 -2 42.0074
    endloop
  endfacet
  facet normal 0.358553 0 0.933509
    outer loop
      vertex -1.22021 2 37.2594
      vertex -0.927051 -2 37.1468
      vertex -0.927051 2 37.1468
    endloop
  endfacet
  facet normal 0.358553 0 0.933509
    outer loop
      vertex -0.927051 -2 37.1468
      vertex -1.22021 2 37.2594
      vertex -1.22021 -2 37.2594
    endloop
  endfacet
  facet normal -0.99863 0 0.0523198
    outer loop
      vertex 2.98357 -2 39.6864
      vertex 3 2 40
      vertex 2.98357 2 39.6864
    endloop
  endfacet
  facet normal -0.99863 0 0.0523198
    outer loop
      vertex 3 2 40
      vertex 2.98357 -2 39.6864
      vertex 3 -2 40
    endloop
  endfacet
  facet normal -0.62949 0 0.777008
    outer loop
      vertex 1.76336 2 37.5729
      vertex 2.00739 -2 37.7706
      vertex 2.00739 2 37.7706
    endloop
  endfacet
  facet normal -0.62949 0 0.777008
    outer loop
      vertex 2.00739 -2 37.7706
      vertex 1.76336 2 37.5729
      vertex 1.76336 -2 37.5729
    endloop
  endfacet
  facet normal 0.777095 -0 0.629383
    outer loop
      vertex -2.42705 -2 38.2366
      vertex -2.22943 2 37.9926
      vertex -2.42705 2 38.2366
    endloop
  endfacet
  facet normal 0.777095 0 0.629383
    outer loop
      vertex -2.22943 2 37.9926
      vertex -2.42705 -2 38.2366
      vertex -2.22943 -2 37.9926
    endloop
  endfacet
  facet normal -0.965946 0 0.258742
    outer loop
      vertex 2.85317 -2 39.0729
      vertex 2.93444 2 39.3763
      vertex 2.85317 2 39.0729
    endloop
  endfacet
  facet normal -0.965946 0 0.258742
    outer loop
      vertex 2.93444 2 39.3763
      vertex 2.85317 -2 39.0729
      vertex 2.93444 -2 39.3763
    endloop
  endfacet
  facet normal 0.544576 0 -0.838711
    outer loop
      vertex -1.76336 -2 42.4271
      vertex -1.5 2 42.5981
      vertex -1.5 -2 42.5981
    endloop
  endfacet
  facet normal 0.544576 0 -0.838711
    outer loop
      vertex -1.5 2 42.5981
      vertex -1.76336 -2 42.4271
      vertex -1.76336 2 42.4271
    endloop
  endfacet
  facet normal 0.99863 0 -0.0523198
    outer loop
      vertex -2.98357 -2 40.3136
      vertex -3 2 40
      vertex -2.98357 2 40.3136
    endloop
  endfacet
  facet normal 0.99863 0 -0.0523198
    outer loop
      vertex -3 2 40
      vertex -2.98357 -2 40.3136
      vertex -3 -2 40
    endloop
  endfacet
  facet normal -0.258601 0 -0.965984
    outer loop
      vertex 0.623734 -2 42.9344
      vertex 0.927051 2 42.8532
      vertex 0.927051 -2 42.8532
    endloop
  endfacet
  facet normal -0.258601 0 -0.965984
    outer loop
      vertex 0.927051 2 42.8532
      vertex 0.623734 -2 42.9344
      vertex 0.623734 2 42.9344
    endloop
  endfacet
  facet normal -0.544576 0 -0.838711
    outer loop
      vertex 1.5 -2 42.5981
      vertex 1.76336 2 42.4271
      vertex 1.76336 -2 42.4271
    endloop
  endfacet
  facet normal -0.544576 0 -0.838711
    outer loop
      vertex 1.76336 2 42.4271
      vertex 1.5 -2 42.5981
      vertex 1.5 2 42.5981
    endloop
  endfacet
  facet normal 0.052227 0 0.998635
    outer loop
      vertex -0.313585 2 37.0164
      vertex 0 -2 37
      vertex 0 2 37
    endloop
  endfacet
  facet normal 0.052227 0 0.998635
    outer loop
      vertex 0 -2 37
      vertex -0.313585 2 37.0164
      vertex -0.313585 -2 37.0164
    endloop
  endfacet
  facet normal 0.93356 0 -0.358422
    outer loop
      vertex -2.74064 -2 41.2202
      vertex -2.85317 2 40.9271
      vertex -2.74064 2 41.2202
    endloop
  endfacet
  facet normal 0.93356 0 -0.358422
    outer loop
      vertex -2.85317 2 40.9271
      vertex -2.74064 -2 41.2202
      vertex -2.85317 -2 40.9271
    endloop
  endfacet
  facet normal -0.62949 0 -0.777008
    outer loop
      vertex 1.76336 -2 42.4271
      vertex 2.00739 2 42.2294
      vertex 2.00739 -2 42.2294
    endloop
  endfacet
  facet normal -0.62949 0 -0.777008
    outer loop
      vertex 2.00739 2 42.2294
      vertex 1.76336 -2 42.4271
      vertex 1.76336 2 42.4271
    endloop
  endfacet
  facet normal -0.891013 0 -0.453977
    outer loop
      vertex 2.74064 -2 41.2202
      vertex 2.59808 2 41.5
      vertex 2.74064 2 41.2202
    endloop
  endfacet
  facet normal -0.891013 -0 -0.453977
    outer loop
      vertex 2.59808 2 41.5
      vertex 2.74064 -2 41.2202
      vertex 2.59808 -2 41.5
    endloop
  endfacet
  facet normal 0.777095 0 -0.629383
    outer loop
      vertex -2.22943 -2 42.0074
      vertex -2.42705 2 41.7634
      vertex -2.22943 2 42.0074
    endloop
  endfacet
  facet normal 0.777095 0 -0.629383
    outer loop
      vertex -2.42705 2 41.7634
      vertex -2.22943 -2 42.0074
      vertex -2.42705 -2 41.7634
    endloop
  endfacet
  facet normal -0.453838 0 -0.891084
    outer loop
      vertex 1.22021 -2 42.7406
      vertex 1.5 2 42.5981
      vertex 1.5 -2 42.5981
    endloop
  endfacet
  facet normal -0.453838 0 -0.891084
    outer loop
      vertex 1.5 2 42.5981
      vertex 1.22021 -2 42.7406
      vertex 1.22021 2 42.7406
    endloop
  endfacet
  facet normal 0.453838 0 0.891084
    outer loop
      vertex -1.5 2 37.4019
      vertex -1.22021 -2 37.2594
      vertex -1.22021 2 37.2594
    endloop
  endfacet
  facet normal 0.453838 0 0.891084
    outer loop
      vertex -1.22021 -2 37.2594
      vertex -1.5 2 37.4019
      vertex -1.5 -2 37.4019
    endloop
  endfacet
  facet normal -0.156674 0 0.98765
    outer loop
      vertex 0.313585 2 37.0164
      vertex 0.623734 -2 37.0656
      vertex 0.623734 2 37.0656
    endloop
  endfacet
  facet normal -0.156674 0 0.98765
    outer loop
      vertex 0.623734 -2 37.0656
      vertex 0.313585 2 37.0164
      vertex 0.313585 -2 37.0164
    endloop
  endfacet
  facet normal -0.707043 0 0.70717
    outer loop
      vertex 2.00739 2 37.7706
      vertex 2.22943 -2 37.9926
      vertex 2.22943 2 37.9926
    endloop
  endfacet
  facet normal -0.707043 0 0.70717
    outer loop
      vertex 2.22943 -2 37.9926
      vertex 2.00739 2 37.7706
      vertex 2.00739 -2 37.7706
    endloop
  endfacet
  facet normal -0.707043 0 -0.70717
    outer loop
      vertex 2.00739 -2 42.2294
      vertex 2.22943 2 42.0074
      vertex 2.22943 -2 42.0074
    endloop
  endfacet
  facet normal -0.707043 0 -0.70717
    outer loop
      vertex 2.22943 2 42.0074
      vertex 2.00739 -2 42.2294
      vertex 2.00739 2 42.2294
    endloop
  endfacet
  facet normal 0.987681 0 -0.156481
    outer loop
      vertex -2.93444 -2 40.6237
      vertex -2.98357 2 40.3136
      vertex -2.93444 2 40.6237
    endloop
  endfacet
  facet normal 0.987681 0 -0.156481
    outer loop
      vertex -2.98357 2 40.3136
      vertex -2.93444 -2 40.6237
      vertex -2.98357 -2 40.3136
    endloop
  endfacet
  facet normal 0.156674 0 0.98765
    outer loop
      vertex -0.623734 2 37.0656
      vertex -0.313585 -2 37.0164
      vertex -0.313585 2 37.0164
    endloop
  endfacet
  facet normal 0.156674 0 0.98765
    outer loop
      vertex -0.313585 -2 37.0164
      vertex -0.623734 2 37.0656
      vertex -0.623734 -2 37.0656
    endloop
  endfacet
  facet normal 0.358553 0 -0.933509
    outer loop
      vertex -1.22021 -2 42.7406
      vertex -0.927051 2 42.8532
      vertex -0.927051 -2 42.8532
    endloop
  endfacet
  facet normal 0.358553 0 -0.933509
    outer loop
      vertex -0.927051 2 42.8532
      vertex -1.22021 -2 42.7406
      vertex -1.22021 2 42.7406
    endloop
  endfacet
  facet normal 0.838705 -0 0.544585
    outer loop
      vertex -2.59808 -2 38.5
      vertex -2.42705 2 38.2366
      vertex -2.59808 2 38.5
    endloop
  endfacet
  facet normal 0.838705 0 0.544585
    outer loop
      vertex -2.42705 2 38.2366
      vertex -2.59808 -2 38.5
      vertex -2.42705 -2 38.2366
    endloop
  endfacet
  facet normal -0.052227 0 0.998635
    outer loop
      vertex 0 2 37
      vertex 0.313585 -2 37.0164
      vertex 0.313585 2 37.0164
    endloop
  endfacet
  facet normal -0.052227 0 0.998635
    outer loop
      vertex 0.313585 -2 37.0164
      vertex 0 2 37
      vertex 0 -2 37
    endloop
  endfacet
  facet normal 0.707043 0 0.70717
    outer loop
      vertex -2.22943 2 37.9926
      vertex -2.00739 -2 37.7706
      vertex -2.00739 2 37.7706
    endloop
  endfacet
  facet normal 0.707043 0 0.70717
    outer loop
      vertex -2.00739 -2 37.7706
      vertex -2.22943 2 37.9926
      vertex -2.22943 -2 37.9926
    endloop
  endfacet
  facet normal 0.62949 0 0.777008
    outer loop
      vertex -2.00739 2 37.7706
      vertex -1.76336 -2 37.5729
      vertex -1.76336 2 37.5729
    endloop
  endfacet
  facet normal 0.62949 0 0.777008
    outer loop
      vertex -1.76336 -2 37.5729
      vertex -2.00739 2 37.7706
      vertex -2.00739 -2 37.7706
    endloop
  endfacet
  facet normal 0.891013 -0 0.453977
    outer loop
      vertex -2.74064 -2 38.7798
      vertex -2.59808 2 38.5
      vertex -2.74064 2 38.7798
    endloop
  endfacet
  facet normal 0.891013 0 0.453977
    outer loop
      vertex -2.59808 2 38.5
      vertex -2.74064 -2 38.7798
      vertex -2.59808 -2 38.5
    endloop
  endfacet
  facet normal -0.777095 0 0.629383
    outer loop
      vertex 2.22943 -2 37.9926
      vertex 2.42705 2 38.2366
      vertex 2.22943 2 37.9926
    endloop
  endfacet
  facet normal -0.777095 0 0.629383
    outer loop
      vertex 2.42705 2 38.2366
      vertex 2.22943 -2 37.9926
      vertex 2.42705 -2 38.2366
    endloop
  endfacet
  facet normal -0.453838 0 0.891084
    outer loop
      vertex 1.22021 2 37.2594
      vertex 1.5 -2 37.4019
      vertex 1.5 2 37.4019
    endloop
  endfacet
  facet normal -0.453838 0 0.891084
    outer loop
      vertex 1.5 -2 37.4019
      vertex 1.22021 2 37.2594
      vertex 1.22021 -2 37.2594
    endloop
  endfacet
  facet normal -0.544576 0 0.838711
    outer loop
      vertex 1.5 2 37.4019
      vertex 1.76336 -2 37.5729
      vertex 1.76336 2 37.5729
    endloop
  endfacet
  facet normal -0.544576 0 0.838711
    outer loop
      vertex 1.76336 -2 37.5729
      vertex 1.5 2 37.4019
      vertex 1.5 -2 37.4019
    endloop
  endfacet
  facet normal 0.838705 0 -0.544585
    outer loop
      vertex -2.42705 -2 41.7634
      vertex -2.59808 2 41.5
      vertex -2.42705 2 41.7634
    endloop
  endfacet
  facet normal 0.838705 0 -0.544585
    outer loop
      vertex -2.59808 2 41.5
      vertex -2.42705 -2 41.7634
      vertex -2.59808 -2 41.5
    endloop
  endfacet
  facet normal -0.156674 0 -0.98765
    outer loop
      vertex 0.313585 -2 42.9836
      vertex 0.623734 2 42.9344
      vertex 0.623734 -2 42.9344
    endloop
  endfacet
  facet normal -0.156674 0 -0.98765
    outer loop
      vertex 0.623734 2 42.9344
      vertex 0.313585 -2 42.9836
      vertex 0.313585 2 42.9836
    endloop
  endfacet
  facet normal 0.965946 0 -0.258742
    outer loop
      vertex -2.85317 -2 40.9271
      vertex -2.93444 2 40.6237
      vertex -2.85317 2 40.9271
    endloop
  endfacet
  facet normal 0.965946 0 -0.258742
    outer loop
      vertex -2.93444 2 40.6237
      vertex -2.85317 -2 40.9271
      vertex -2.93444 -2 40.6237
    endloop
  endfacet
  facet normal 0.99863 -0 0.0523198
    outer loop
      vertex -3 -2 40
      vertex -2.98357 2 39.6864
      vertex -3 2 40
    endloop
  endfacet
  facet normal 0.99863 0 0.0523198
    outer loop
      vertex -2.98357 2 39.6864
      vertex -3 -2 40
      vertex -2.98357 -2 39.6864
    endloop
  endfacet
  facet normal -0 0 1
    outer loop
      vertex -36 26 2
      vertex 36 -26 2
      vertex 36 26 2
    endloop
  endfacet
  facet normal 0 0 1
    outer loop
      vertex 36 -26 2
      vertex -36 26 2
      vertex -36 -26 2
    endloop
  endfacet
  facet normal -1 0 0
    outer loop
      vertex 35.5 -25.5 0
      vertex 35.5 25.5 0.0999994
      vertex 35.5 25.5 0
    endloop
  endfacet
  facet normal -1 -0 0
    outer loop
      vertex 35.5 25.5 0.0999994
      vertex 35.5 -25.5 0
      vertex 35.5 -25.5 0.0999994
    endloop
  endfacet
  facet normal 0 0 -1
    outer loop
      vertex 35.5 -25.5 0.0999994
      vertex 33 -23 0.0999994
      vertex 35.5 25.5 0.0999994
    endloop
  endfacet
  facet normal 0 0 -1
    outer loop
      vertex 35.5 -25.5 0.0999994
      vertex -33 -23 0.0999994
      vertex 33 -23 0.0999994
    endloop
  endfacet
  facet normal -0 0 -1
    outer loop
      vertex -33 -23 0.0999994
      vertex -35.5 -25.5 0.0999994
      vertex -33 23 0.0999994
    endloop
  endfacet
  facet normal 0 0 -1
    outer loop
      vertex -35.5 -25.5 0.0999994
      vertex -33 -23 0.0999994
      vertex 35.5 -25.5 0.0999994
    endloop
  endfacet
  facet normal 0 0 -1
    outer loop
      vertex 33 23 0.0999994
      vertex 35.5 25.5 0.0999994
      vertex 33 -23 0.0999994
    endloop
  endfacet
  facet normal 0 0 -1
    outer loop
      vertex -33 23 0.0999994
      vertex 35.5 25.5 0.0999994
      vertex 33 23 0.0999994
    endloop
  endfacet
  facet normal 0 0 -1
    outer loop
      vertex -33 23 0.0999994
      vertex -35.5 25.5 0.0999994
      vertex 35.5 25.5 0.0999994
    endloop
  endfacet
  facet normal 0 0 -1
    outer loop
      vertex -35.5 25.5 0.0999994
      vertex -33 23 0.0999994
      vertex -35.5 -25.5 0.0999994
    endloop
  endfacet
  facet normal 1 -0 0
    outer loop
      vertex -35.5 -25.5 0.0999994
      vertex -35.5 25.5 0
      vertex -35.5 25.5 0.0999994
    endloop
  endfacet
  facet normal 1 0 0
    outer loop
      vertex -35.5 25.5 0
      vertex -35.5 -25.5 0.0999994
      vertex -35.5 -25.5 0
    endloop
  endfacet
  facet normal 0 -1 0
    outer loop
      vertex -35.5 25.5 0
      vertex 35.5 25.5 0.0999994
      vertex -35.5 25.5 0.0999994
    endloop
  endfacet
  facet normal 0 -1 -0
    outer loop
      vertex 35.5 25.5 0.0999994
      vertex -35.5 25.5 0
      vertex 35.5 25.5 0
    endloop
  endfacet
  facet normal 0 1 -0
    outer loop
      vertex 35.5 -25.5 0
      vertex -35.5 -25.5 0.0999994
      vertex 35.5 -25.5 0.0999994
    endloop
  endfacet
  facet normal 0 1 0
    outer loop
      vertex -35.5 -25.5 0.0999994
      vertex 35.5 -25.5 0
      vertex -35.5 -25.5 0
    endloop
  endfacet
  facet normal 1 -0 0
    outer loop
      vertex 33 -23 0.0999994
      vertex 33 23 0
      vertex 33 23 0.0999994
    endloop
  endfacet
  facet normal 1 0 0
    outer loop
      vertex 33 23 0
      vertex 33 -23 0.0999994
      vertex 33 -23 0
    endloop
  endfacet
  facet normal -1 0 0
    outer loop
      vertex -33 -23 0
      vertex -33 23 0.0999994
      vertex -33 23 0
    endloop
  endfacet
  facet normal -1 -0 0
    outer loop
      vertex -33 23 0.0999994
      vertex -33 -23 0
      vertex -33 -23 0.0999994
    endloop
  endfacet
  facet normal 0 1 -0
    outer loop
      vertex 33 23 0
      vertex -33 23 0.0999994
      vertex 33 23 0.0999994
    endloop
  endfacet
  facet normal 0 1 0
    outer loop
      vertex -33 23 0.0999994
      vertex 33 23 0
      vertex -33 23 0
    endloop
  endfacet
  facet normal 0 -1 0
    outer loop
      vertex -33 -23 0
      vertex 33 -23 0.0999994
      vertex -33 -23 0.0999994
    endloop
  endfacet
  facet normal 0 -1 -0
    outer loop
      vertex 33 -23 0.0999994
      vertex -33 -23 0
      vertex 33 -23 0
    endloop
  endfacet
endsolid OpenSCAD_Model
